M48
; DRILL file {KiCad 5.1.0-060a0da~80~ubuntu16.04.1} date Tue 26 Mar 2019 01:17:27 AM MDT
; FORMAT={-:-/ absolute / metric / decimal}
; #@! TF.CreationDate,2019-03-26T01:17:27-06:00
; #@! TF.GenerationSoftware,Kicad,Pcbnew,5.1.0-060a0da~80~ubuntu16.04.1
; #@! TF.FileFunction,Plated,1,2,PTH
FMAT,2
METRIC
T1C0.350
T2C0.400
T3C0.440
T4C0.600
T5C0.800
T6C0.950
T7C1.000
T8C1.100
T9C1.501
T10C3.000
%
G90
G05
T2
X103.886Y-43.18
X106.426Y-40.64
T3
X123.13Y-43.18
X123.78Y-42.18
X124.43Y-43.18
X125.08Y-42.18
X125.73Y-43.18
T4
X114.3Y-88.9
X114.3Y-90.9
X113.57Y-80.01
X115.57Y-80.01
X78.74Y-36.83
X78.74Y-38.83
X106.68Y-34.29
X108.68Y-34.29
X87.63Y-78.74
X87.63Y-80.74
X94.52Y-45.466
X96.52Y-45.466
X120.65Y-55.245
X120.65Y-57.245
X120.65Y-50.07
X120.65Y-52.07
X74.93Y-93.98
X76.93Y-93.98
X125.095Y-47.625
X125.095Y-49.625
T5
X69.85Y-66.04
X80.01Y-66.04
X120.65Y-66.04
X130.81Y-66.04
X69.85Y-77.47
X80.01Y-77.47
X120.65Y-72.39
X130.81Y-72.39
X120.65Y-77.47
X130.81Y-77.47
X119.38Y-88.9
X119.38Y-99.06
X120.65Y-80.01
X130.81Y-80.01
X120.65Y-60.96
X130.81Y-60.96
X69.85Y-74.93
X80.01Y-74.93
X120.65Y-74.93
X130.81Y-74.93
X83.82Y-44.45
X83.82Y-54.61
X87.63Y-49.784
X97.79Y-49.784
X120.65Y-63.5
X130.81Y-63.5
X92.71Y-53.34
X92.71Y-55.88
X92.71Y-58.42
X92.71Y-60.96
X92.71Y-63.5
X92.71Y-66.04
X92.71Y-68.58
X92.71Y-71.12
X92.71Y-73.66
X92.71Y-76.2
X92.71Y-78.74
X92.71Y-81.28
X92.71Y-83.82
X92.71Y-86.36
X92.71Y-88.9
X92.71Y-91.44
X92.71Y-93.98
X92.71Y-96.52
X92.71Y-99.06
X92.71Y-101.6
X107.95Y-53.34
X107.95Y-55.88
X107.95Y-58.42
X107.95Y-60.96
X107.95Y-63.5
X107.95Y-66.04
X107.95Y-68.58
X107.95Y-71.12
X107.95Y-73.66
X107.95Y-76.2
X107.95Y-78.74
X107.95Y-81.28
X107.95Y-83.82
X107.95Y-86.36
X107.95Y-88.9
X107.95Y-91.44
X107.95Y-93.98
X107.95Y-96.52
X107.95Y-99.06
X107.95Y-101.6
X73.66Y-87.63
X83.82Y-87.63
X80.01Y-44.45
X80.01Y-54.61
X69.85Y-68.58
X80.01Y-68.58
X69.85Y-63.5
X80.01Y-63.5
X114.3Y-34.29
X114.3Y-44.45
X110.49Y-45.72
X120.65Y-45.72
X69.85Y-72.39
X80.01Y-72.39
X71.12Y-93.98
X71.12Y-104.14
X69.85Y-80.01
X80.01Y-80.01
X120.65Y-68.58
X130.81Y-68.58
X69.85Y-60.96
X80.01Y-60.96
T6
X66.04Y-83.82
X66.04Y-86.32
X66.04Y-88.82
X66.04Y-91.32
X66.04Y-95.25
X66.04Y-97.75
X66.04Y-100.25
X66.04Y-102.75
X134.62Y-61.08
X134.62Y-63.58
X134.62Y-66.08
X134.62Y-68.58
X134.62Y-95.37
X134.62Y-97.87
X134.62Y-100.37
X134.62Y-102.87
X66.04Y-60.96
X66.04Y-63.46
X66.04Y-65.96
X66.04Y-68.46
X134.62Y-83.94
X134.62Y-86.44
X134.62Y-88.94
X134.62Y-91.44
X134.62Y-72.51
X134.62Y-75.01
X134.62Y-77.51
X134.62Y-80.01
X66.04Y-72.39
X66.04Y-74.89
X66.04Y-77.39
X66.04Y-79.89
T7
X92.75Y-35.56
X95.25Y-35.56
X133.39Y-35.56
X135.89Y-35.56
T8
X64.77Y-35.56
X64.77Y-40.06
X73.81Y-35.56
X73.81Y-40.06
T9
X74.93Y-102.87
X80.01Y-102.87
T10
X130.81Y-49.53
X130.81Y-111.76
X69.85Y-111.76
X69.85Y-49.53
T1
G00X120.855Y-37.965
M15
G01X120.855Y-36.965
M16
G05
G00X128.005Y-37.965
M15
G01X128.005Y-36.965
M16
G05
T0
M30
