%FSLAX45Y45*%
G04 Gerber Fmt 4.5, Leading zero omitted, Abs format (unit mm)*
G04 Created by KiCad (PCBNEW 5.1.0-060a0da~80~ubuntu16.04.1) date 2019-03-26 01:17:30*
%MOMM*%
%LPD*%
G04 APERTURE LIST*
%ADD10C,0.200000*%
%ADD11C,0.300000*%
G04 APERTURE END LIST*
D10*
X12068000Y-3729000D02*
X12103000Y-3764000D01*
X12103000Y-3729000D02*
X12068000Y-3764000D01*
X12093000Y-3796500D02*
X12093000Y-3696500D01*
X12078000Y-3796500D02*
X12078000Y-3696500D01*
X12093000Y-3696500D02*
G75*
G03X12078000Y-3696500I-7500J0D01*
G01*
X12078000Y-3796500D02*
G75*
G03X12093000Y-3796500I7500J0D01*
G01*
X12783000Y-3729000D02*
X12818000Y-3764000D01*
X12818000Y-3729000D02*
X12783000Y-3764000D01*
X12808000Y-3796500D02*
X12808000Y-3696500D01*
X12793000Y-3796500D02*
X12793000Y-3696500D01*
X12808000Y-3696500D02*
G75*
G03X12793000Y-3696500I-7500J0D01*
G01*
X12793000Y-3796500D02*
G75*
G03X12808000Y-3796500I7500J0D01*
G01*
X10408600Y-4318000D02*
G75*
G03X10408600Y-4318000I-20000J0D01*
G01*
X10662600Y-4064000D02*
G75*
G03X10662600Y-4064000I-20000J0D01*
G01*
X12313000Y-4296000D02*
X12313000Y-4340000D01*
X12291000Y-4318000D02*
X12335000Y-4318000D01*
X12378000Y-4196000D02*
X12378000Y-4240000D01*
X12356000Y-4218000D02*
X12400000Y-4218000D01*
X12443000Y-4296000D02*
X12443000Y-4340000D01*
X12421000Y-4318000D02*
X12465000Y-4318000D01*
X12508000Y-4196000D02*
X12508000Y-4240000D01*
X12486000Y-4218000D02*
X12530000Y-4218000D01*
X12573000Y-4296000D02*
X12573000Y-4340000D01*
X12551000Y-4318000D02*
X12595000Y-4318000D01*
X11451213Y-8911213D02*
X11451213Y-8868787D01*
X11408787Y-8868787D01*
X11408787Y-8911213D01*
X11451213Y-8911213D01*
X11451213Y-9111213D02*
X11451213Y-9068787D01*
X11408787Y-9068787D01*
X11408787Y-9111213D01*
X11451213Y-9111213D01*
X11378213Y-8022213D02*
X11378213Y-7979787D01*
X11335787Y-7979787D01*
X11335787Y-8022213D01*
X11378213Y-8022213D01*
X11578213Y-8022213D02*
X11578213Y-7979787D01*
X11535787Y-7979787D01*
X11535787Y-8022213D01*
X11578213Y-8022213D01*
X7895213Y-3704213D02*
X7895213Y-3661787D01*
X7852787Y-3661787D01*
X7852787Y-3704213D01*
X7895213Y-3704213D01*
X7895213Y-3904213D02*
X7895213Y-3861787D01*
X7852787Y-3861787D01*
X7852787Y-3904213D01*
X7895213Y-3904213D01*
X10689213Y-3450213D02*
X10689213Y-3407787D01*
X10646787Y-3407787D01*
X10646787Y-3450213D01*
X10689213Y-3450213D01*
X10889213Y-3450213D02*
X10889213Y-3407787D01*
X10846787Y-3407787D01*
X10846787Y-3450213D01*
X10889213Y-3450213D01*
X8784213Y-7895213D02*
X8784213Y-7852787D01*
X8741787Y-7852787D01*
X8741787Y-7895213D01*
X8784213Y-7895213D01*
X8784213Y-8095213D02*
X8784213Y-8052787D01*
X8741787Y-8052787D01*
X8741787Y-8095213D01*
X8784213Y-8095213D01*
X9473213Y-4567813D02*
X9473213Y-4525387D01*
X9430787Y-4525387D01*
X9430787Y-4567813D01*
X9473213Y-4567813D01*
X9673213Y-4567813D02*
X9673213Y-4525387D01*
X9630787Y-4525387D01*
X9630787Y-4567813D01*
X9673213Y-4567813D01*
X12086213Y-5545713D02*
X12086213Y-5503287D01*
X12043787Y-5503287D01*
X12043787Y-5545713D01*
X12086213Y-5545713D01*
X12086213Y-5745713D02*
X12086213Y-5703287D01*
X12043787Y-5703287D01*
X12043787Y-5745713D01*
X12086213Y-5745713D01*
X12086213Y-5028213D02*
X12086213Y-4985787D01*
X12043787Y-4985787D01*
X12043787Y-5028213D01*
X12086213Y-5028213D01*
X12086213Y-5228213D02*
X12086213Y-5185787D01*
X12043787Y-5185787D01*
X12043787Y-5228213D01*
X12086213Y-5228213D01*
X7514213Y-9419213D02*
X7514213Y-9376787D01*
X7471787Y-9376787D01*
X7471787Y-9419213D01*
X7514213Y-9419213D01*
X7714213Y-9419213D02*
X7714213Y-9376787D01*
X7671787Y-9376787D01*
X7671787Y-9419213D01*
X7714213Y-9419213D01*
X12530713Y-4783713D02*
X12530713Y-4741287D01*
X12488287Y-4741287D01*
X12488287Y-4783713D01*
X12530713Y-4783713D01*
X12530713Y-4983713D02*
X12530713Y-4941287D01*
X12488287Y-4941287D01*
X12488287Y-4983713D01*
X12530713Y-4983713D01*
X6985000Y-6644000D02*
X7025000Y-6604000D01*
X6985000Y-6564000D01*
X6945000Y-6604000D01*
X6985000Y-6644000D01*
X8001000Y-6644000D02*
X8041000Y-6604000D01*
X8001000Y-6564000D01*
X7961000Y-6604000D01*
X8001000Y-6644000D01*
X12065000Y-6644000D02*
X12105000Y-6604000D01*
X12065000Y-6564000D01*
X12025000Y-6604000D01*
X12065000Y-6644000D01*
X13081000Y-6644000D02*
X13121000Y-6604000D01*
X13081000Y-6564000D01*
X13041000Y-6604000D01*
X13081000Y-6644000D01*
X6985000Y-7787000D02*
X7025000Y-7747000D01*
X6985000Y-7707000D01*
X6945000Y-7747000D01*
X6985000Y-7787000D01*
X8001000Y-7787000D02*
X8041000Y-7747000D01*
X8001000Y-7707000D01*
X7961000Y-7747000D01*
X8001000Y-7787000D01*
X12065000Y-7279000D02*
X12105000Y-7239000D01*
X12065000Y-7199000D01*
X12025000Y-7239000D01*
X12065000Y-7279000D01*
X13081000Y-7279000D02*
X13121000Y-7239000D01*
X13081000Y-7199000D01*
X13041000Y-7239000D01*
X13081000Y-7279000D01*
X12065000Y-7787000D02*
X12105000Y-7747000D01*
X12065000Y-7707000D01*
X12025000Y-7747000D01*
X12065000Y-7787000D01*
X13081000Y-7787000D02*
X13121000Y-7747000D01*
X13081000Y-7707000D01*
X13041000Y-7747000D01*
X13081000Y-7787000D01*
X11938000Y-8930000D02*
X11978000Y-8890000D01*
X11938000Y-8850000D01*
X11898000Y-8890000D01*
X11938000Y-8930000D01*
X11938000Y-9946000D02*
X11978000Y-9906000D01*
X11938000Y-9866000D01*
X11898000Y-9906000D01*
X11938000Y-9946000D01*
X12065000Y-8041000D02*
X12105000Y-8001000D01*
X12065000Y-7961000D01*
X12025000Y-8001000D01*
X12065000Y-8041000D01*
X13081000Y-8041000D02*
X13121000Y-8001000D01*
X13081000Y-7961000D01*
X13041000Y-8001000D01*
X13081000Y-8041000D01*
X12065000Y-6136000D02*
X12105000Y-6096000D01*
X12065000Y-6056000D01*
X12025000Y-6096000D01*
X12065000Y-6136000D01*
X13081000Y-6136000D02*
X13121000Y-6096000D01*
X13081000Y-6056000D01*
X13041000Y-6096000D01*
X13081000Y-6136000D01*
X6985000Y-7533000D02*
X7025000Y-7493000D01*
X6985000Y-7453000D01*
X6945000Y-7493000D01*
X6985000Y-7533000D01*
X8001000Y-7533000D02*
X8041000Y-7493000D01*
X8001000Y-7453000D01*
X7961000Y-7493000D01*
X8001000Y-7533000D01*
X12065000Y-7533000D02*
X12105000Y-7493000D01*
X12065000Y-7453000D01*
X12025000Y-7493000D01*
X12065000Y-7533000D01*
X13081000Y-7533000D02*
X13121000Y-7493000D01*
X13081000Y-7453000D01*
X13041000Y-7493000D01*
X13081000Y-7533000D01*
X8382000Y-4485000D02*
X8422000Y-4445000D01*
X8382000Y-4405000D01*
X8342000Y-4445000D01*
X8382000Y-4485000D01*
X8382000Y-5501000D02*
X8422000Y-5461000D01*
X8382000Y-5421000D01*
X8342000Y-5461000D01*
X8382000Y-5501000D01*
X8763000Y-5018400D02*
X8803000Y-4978400D01*
X8763000Y-4938400D01*
X8723000Y-4978400D01*
X8763000Y-5018400D01*
X9779000Y-5018400D02*
X9819000Y-4978400D01*
X9779000Y-4938400D01*
X9739000Y-4978400D01*
X9779000Y-5018400D01*
X12065000Y-6390000D02*
X12105000Y-6350000D01*
X12065000Y-6310000D01*
X12025000Y-6350000D01*
X12065000Y-6390000D01*
X13081000Y-6390000D02*
X13121000Y-6350000D01*
X13081000Y-6310000D01*
X13041000Y-6350000D01*
X13081000Y-6390000D01*
X9271000Y-5374000D02*
X9311000Y-5334000D01*
X9271000Y-5294000D01*
X9231000Y-5334000D01*
X9271000Y-5374000D01*
X9271000Y-5628000D02*
X9311000Y-5588000D01*
X9271000Y-5548000D01*
X9231000Y-5588000D01*
X9271000Y-5628000D01*
X9271000Y-5882000D02*
X9311000Y-5842000D01*
X9271000Y-5802000D01*
X9231000Y-5842000D01*
X9271000Y-5882000D01*
X9271000Y-6136000D02*
X9311000Y-6096000D01*
X9271000Y-6056000D01*
X9231000Y-6096000D01*
X9271000Y-6136000D01*
X9271000Y-6390000D02*
X9311000Y-6350000D01*
X9271000Y-6310000D01*
X9231000Y-6350000D01*
X9271000Y-6390000D01*
X9271000Y-6644000D02*
X9311000Y-6604000D01*
X9271000Y-6564000D01*
X9231000Y-6604000D01*
X9271000Y-6644000D01*
X9271000Y-6898000D02*
X9311000Y-6858000D01*
X9271000Y-6818000D01*
X9231000Y-6858000D01*
X9271000Y-6898000D01*
X9271000Y-7152000D02*
X9311000Y-7112000D01*
X9271000Y-7072000D01*
X9231000Y-7112000D01*
X9271000Y-7152000D01*
X9271000Y-7406000D02*
X9311000Y-7366000D01*
X9271000Y-7326000D01*
X9231000Y-7366000D01*
X9271000Y-7406000D01*
X9271000Y-7660000D02*
X9311000Y-7620000D01*
X9271000Y-7580000D01*
X9231000Y-7620000D01*
X9271000Y-7660000D01*
X9271000Y-7914000D02*
X9311000Y-7874000D01*
X9271000Y-7834000D01*
X9231000Y-7874000D01*
X9271000Y-7914000D01*
X9271000Y-8168000D02*
X9311000Y-8128000D01*
X9271000Y-8088000D01*
X9231000Y-8128000D01*
X9271000Y-8168000D01*
X9271000Y-8422000D02*
X9311000Y-8382000D01*
X9271000Y-8342000D01*
X9231000Y-8382000D01*
X9271000Y-8422000D01*
X9271000Y-8676000D02*
X9311000Y-8636000D01*
X9271000Y-8596000D01*
X9231000Y-8636000D01*
X9271000Y-8676000D01*
X9271000Y-8930000D02*
X9311000Y-8890000D01*
X9271000Y-8850000D01*
X9231000Y-8890000D01*
X9271000Y-8930000D01*
X9271000Y-9184000D02*
X9311000Y-9144000D01*
X9271000Y-9104000D01*
X9231000Y-9144000D01*
X9271000Y-9184000D01*
X9271000Y-9438000D02*
X9311000Y-9398000D01*
X9271000Y-9358000D01*
X9231000Y-9398000D01*
X9271000Y-9438000D01*
X9271000Y-9692000D02*
X9311000Y-9652000D01*
X9271000Y-9612000D01*
X9231000Y-9652000D01*
X9271000Y-9692000D01*
X9271000Y-9946000D02*
X9311000Y-9906000D01*
X9271000Y-9866000D01*
X9231000Y-9906000D01*
X9271000Y-9946000D01*
X9271000Y-10200000D02*
X9311000Y-10160000D01*
X9271000Y-10120000D01*
X9231000Y-10160000D01*
X9271000Y-10200000D01*
X10795000Y-5374000D02*
X10835000Y-5334000D01*
X10795000Y-5294000D01*
X10755000Y-5334000D01*
X10795000Y-5374000D01*
X10795000Y-5628000D02*
X10835000Y-5588000D01*
X10795000Y-5548000D01*
X10755000Y-5588000D01*
X10795000Y-5628000D01*
X10795000Y-5882000D02*
X10835000Y-5842000D01*
X10795000Y-5802000D01*
X10755000Y-5842000D01*
X10795000Y-5882000D01*
X10795000Y-6136000D02*
X10835000Y-6096000D01*
X10795000Y-6056000D01*
X10755000Y-6096000D01*
X10795000Y-6136000D01*
X10795000Y-6390000D02*
X10835000Y-6350000D01*
X10795000Y-6310000D01*
X10755000Y-6350000D01*
X10795000Y-6390000D01*
X10795000Y-6644000D02*
X10835000Y-6604000D01*
X10795000Y-6564000D01*
X10755000Y-6604000D01*
X10795000Y-6644000D01*
X10795000Y-6898000D02*
X10835000Y-6858000D01*
X10795000Y-6818000D01*
X10755000Y-6858000D01*
X10795000Y-6898000D01*
X10795000Y-7152000D02*
X10835000Y-7112000D01*
X10795000Y-7072000D01*
X10755000Y-7112000D01*
X10795000Y-7152000D01*
X10795000Y-7406000D02*
X10835000Y-7366000D01*
X10795000Y-7326000D01*
X10755000Y-7366000D01*
X10795000Y-7406000D01*
X10795000Y-7660000D02*
X10835000Y-7620000D01*
X10795000Y-7580000D01*
X10755000Y-7620000D01*
X10795000Y-7660000D01*
X10795000Y-7914000D02*
X10835000Y-7874000D01*
X10795000Y-7834000D01*
X10755000Y-7874000D01*
X10795000Y-7914000D01*
X10795000Y-8168000D02*
X10835000Y-8128000D01*
X10795000Y-8088000D01*
X10755000Y-8128000D01*
X10795000Y-8168000D01*
X10795000Y-8422000D02*
X10835000Y-8382000D01*
X10795000Y-8342000D01*
X10755000Y-8382000D01*
X10795000Y-8422000D01*
X10795000Y-8676000D02*
X10835000Y-8636000D01*
X10795000Y-8596000D01*
X10755000Y-8636000D01*
X10795000Y-8676000D01*
X10795000Y-8930000D02*
X10835000Y-8890000D01*
X10795000Y-8850000D01*
X10755000Y-8890000D01*
X10795000Y-8930000D01*
X10795000Y-9184000D02*
X10835000Y-9144000D01*
X10795000Y-9104000D01*
X10755000Y-9144000D01*
X10795000Y-9184000D01*
X10795000Y-9438000D02*
X10835000Y-9398000D01*
X10795000Y-9358000D01*
X10755000Y-9398000D01*
X10795000Y-9438000D01*
X10795000Y-9692000D02*
X10835000Y-9652000D01*
X10795000Y-9612000D01*
X10755000Y-9652000D01*
X10795000Y-9692000D01*
X10795000Y-9946000D02*
X10835000Y-9906000D01*
X10795000Y-9866000D01*
X10755000Y-9906000D01*
X10795000Y-9946000D01*
X10795000Y-10200000D02*
X10835000Y-10160000D01*
X10795000Y-10120000D01*
X10755000Y-10160000D01*
X10795000Y-10200000D01*
X7366000Y-8803000D02*
X7406000Y-8763000D01*
X7366000Y-8723000D01*
X7326000Y-8763000D01*
X7366000Y-8803000D01*
X8382000Y-8803000D02*
X8422000Y-8763000D01*
X8382000Y-8723000D01*
X8342000Y-8763000D01*
X8382000Y-8803000D01*
X8001000Y-4485000D02*
X8041000Y-4445000D01*
X8001000Y-4405000D01*
X7961000Y-4445000D01*
X8001000Y-4485000D01*
X8001000Y-5501000D02*
X8041000Y-5461000D01*
X8001000Y-5421000D01*
X7961000Y-5461000D01*
X8001000Y-5501000D01*
X6985000Y-6898000D02*
X7025000Y-6858000D01*
X6985000Y-6818000D01*
X6945000Y-6858000D01*
X6985000Y-6898000D01*
X8001000Y-6898000D02*
X8041000Y-6858000D01*
X8001000Y-6818000D01*
X7961000Y-6858000D01*
X8001000Y-6898000D01*
X6985000Y-6390000D02*
X7025000Y-6350000D01*
X6985000Y-6310000D01*
X6945000Y-6350000D01*
X6985000Y-6390000D01*
X8001000Y-6390000D02*
X8041000Y-6350000D01*
X8001000Y-6310000D01*
X7961000Y-6350000D01*
X8001000Y-6390000D01*
X11430000Y-3469000D02*
X11470000Y-3429000D01*
X11430000Y-3389000D01*
X11390000Y-3429000D01*
X11430000Y-3469000D01*
X11430000Y-4485000D02*
X11470000Y-4445000D01*
X11430000Y-4405000D01*
X11390000Y-4445000D01*
X11430000Y-4485000D01*
X11049000Y-4612000D02*
X11089000Y-4572000D01*
X11049000Y-4532000D01*
X11009000Y-4572000D01*
X11049000Y-4612000D01*
X12065000Y-4612000D02*
X12105000Y-4572000D01*
X12065000Y-4532000D01*
X12025000Y-4572000D01*
X12065000Y-4612000D01*
X6985000Y-7279000D02*
X7025000Y-7239000D01*
X6985000Y-7199000D01*
X6945000Y-7239000D01*
X6985000Y-7279000D01*
X8001000Y-7279000D02*
X8041000Y-7239000D01*
X8001000Y-7199000D01*
X7961000Y-7239000D01*
X8001000Y-7279000D01*
X7112000Y-9438000D02*
X7152000Y-9398000D01*
X7112000Y-9358000D01*
X7072000Y-9398000D01*
X7112000Y-9438000D01*
X7112000Y-10454000D02*
X7152000Y-10414000D01*
X7112000Y-10374000D01*
X7072000Y-10414000D01*
X7112000Y-10454000D01*
X6985000Y-8041000D02*
X7025000Y-8001000D01*
X6985000Y-7961000D01*
X6945000Y-8001000D01*
X6985000Y-8041000D01*
X8001000Y-8041000D02*
X8041000Y-8001000D01*
X8001000Y-7961000D01*
X7961000Y-8001000D01*
X8001000Y-8041000D01*
X12065000Y-6898000D02*
X12105000Y-6858000D01*
X12065000Y-6818000D01*
X12025000Y-6858000D01*
X12065000Y-6898000D01*
X13081000Y-6898000D02*
X13121000Y-6858000D01*
X13081000Y-6818000D01*
X13041000Y-6858000D01*
X13081000Y-6898000D01*
X6985000Y-6136000D02*
X7025000Y-6096000D01*
X6985000Y-6056000D01*
X6945000Y-6096000D01*
X6985000Y-6136000D01*
X8001000Y-6136000D02*
X8041000Y-6096000D01*
X8001000Y-6056000D01*
X7961000Y-6096000D01*
X8001000Y-6136000D01*
X6556500Y-8334500D02*
X6651500Y-8429500D01*
X6651500Y-8334500D02*
X6556500Y-8429500D01*
X6651500Y-8382000D02*
G75*
G03X6651500Y-8382000I-47500J0D01*
G01*
X6556500Y-8584500D02*
X6651500Y-8679500D01*
X6651500Y-8584500D02*
X6556500Y-8679500D01*
X6651500Y-8632000D02*
G75*
G03X6651500Y-8632000I-47500J0D01*
G01*
X6556500Y-8834500D02*
X6651500Y-8929500D01*
X6651500Y-8834500D02*
X6556500Y-8929500D01*
X6651500Y-8882000D02*
G75*
G03X6651500Y-8882000I-47500J0D01*
G01*
X6556500Y-9084500D02*
X6651500Y-9179500D01*
X6651500Y-9084500D02*
X6556500Y-9179500D01*
X6651500Y-9132000D02*
G75*
G03X6651500Y-9132000I-47500J0D01*
G01*
X6556500Y-9477500D02*
X6651500Y-9572500D01*
X6651500Y-9477500D02*
X6556500Y-9572500D01*
X6651500Y-9525000D02*
G75*
G03X6651500Y-9525000I-47500J0D01*
G01*
X6556500Y-9727500D02*
X6651500Y-9822500D01*
X6651500Y-9727500D02*
X6556500Y-9822500D01*
X6651500Y-9775000D02*
G75*
G03X6651500Y-9775000I-47500J0D01*
G01*
X6556500Y-9977500D02*
X6651500Y-10072500D01*
X6651500Y-9977500D02*
X6556500Y-10072500D01*
X6651500Y-10025000D02*
G75*
G03X6651500Y-10025000I-47500J0D01*
G01*
X6556500Y-10227500D02*
X6651500Y-10322500D01*
X6651500Y-10227500D02*
X6556500Y-10322500D01*
X6651500Y-10275000D02*
G75*
G03X6651500Y-10275000I-47500J0D01*
G01*
X13414500Y-6060500D02*
X13509500Y-6155500D01*
X13509500Y-6060500D02*
X13414500Y-6155500D01*
X13509500Y-6108000D02*
G75*
G03X13509500Y-6108000I-47500J0D01*
G01*
X13414500Y-6310500D02*
X13509500Y-6405500D01*
X13509500Y-6310500D02*
X13414500Y-6405500D01*
X13509500Y-6358000D02*
G75*
G03X13509500Y-6358000I-47500J0D01*
G01*
X13414500Y-6560500D02*
X13509500Y-6655500D01*
X13509500Y-6560500D02*
X13414500Y-6655500D01*
X13509500Y-6608000D02*
G75*
G03X13509500Y-6608000I-47500J0D01*
G01*
X13414500Y-6810500D02*
X13509500Y-6905500D01*
X13509500Y-6810500D02*
X13414500Y-6905500D01*
X13509500Y-6858000D02*
G75*
G03X13509500Y-6858000I-47500J0D01*
G01*
X13414500Y-9489500D02*
X13509500Y-9584500D01*
X13509500Y-9489500D02*
X13414500Y-9584500D01*
X13509500Y-9537000D02*
G75*
G03X13509500Y-9537000I-47500J0D01*
G01*
X13414500Y-9739500D02*
X13509500Y-9834500D01*
X13509500Y-9739500D02*
X13414500Y-9834500D01*
X13509500Y-9787000D02*
G75*
G03X13509500Y-9787000I-47500J0D01*
G01*
X13414500Y-9989500D02*
X13509500Y-10084500D01*
X13509500Y-9989500D02*
X13414500Y-10084500D01*
X13509500Y-10037000D02*
G75*
G03X13509500Y-10037000I-47500J0D01*
G01*
X13414500Y-10239500D02*
X13509500Y-10334500D01*
X13509500Y-10239500D02*
X13414500Y-10334500D01*
X13509500Y-10287000D02*
G75*
G03X13509500Y-10287000I-47500J0D01*
G01*
X6556500Y-6048500D02*
X6651500Y-6143500D01*
X6651500Y-6048500D02*
X6556500Y-6143500D01*
X6651500Y-6096000D02*
G75*
G03X6651500Y-6096000I-47500J0D01*
G01*
X6556500Y-6298500D02*
X6651500Y-6393500D01*
X6651500Y-6298500D02*
X6556500Y-6393500D01*
X6651500Y-6346000D02*
G75*
G03X6651500Y-6346000I-47500J0D01*
G01*
X6556500Y-6548500D02*
X6651500Y-6643500D01*
X6651500Y-6548500D02*
X6556500Y-6643500D01*
X6651500Y-6596000D02*
G75*
G03X6651500Y-6596000I-47500J0D01*
G01*
X6556500Y-6798500D02*
X6651500Y-6893500D01*
X6651500Y-6798500D02*
X6556500Y-6893500D01*
X6651500Y-6846000D02*
G75*
G03X6651500Y-6846000I-47500J0D01*
G01*
X13414500Y-8346500D02*
X13509500Y-8441500D01*
X13509500Y-8346500D02*
X13414500Y-8441500D01*
X13509500Y-8394000D02*
G75*
G03X13509500Y-8394000I-47500J0D01*
G01*
X13414500Y-8596500D02*
X13509500Y-8691500D01*
X13509500Y-8596500D02*
X13414500Y-8691500D01*
X13509500Y-8644000D02*
G75*
G03X13509500Y-8644000I-47500J0D01*
G01*
X13414500Y-8846500D02*
X13509500Y-8941500D01*
X13509500Y-8846500D02*
X13414500Y-8941500D01*
X13509500Y-8894000D02*
G75*
G03X13509500Y-8894000I-47500J0D01*
G01*
X13414500Y-9096500D02*
X13509500Y-9191500D01*
X13509500Y-9096500D02*
X13414500Y-9191500D01*
X13509500Y-9144000D02*
G75*
G03X13509500Y-9144000I-47500J0D01*
G01*
X13414500Y-7203500D02*
X13509500Y-7298500D01*
X13509500Y-7203500D02*
X13414500Y-7298500D01*
X13509500Y-7251000D02*
G75*
G03X13509500Y-7251000I-47500J0D01*
G01*
X13414500Y-7453500D02*
X13509500Y-7548500D01*
X13509500Y-7453500D02*
X13414500Y-7548500D01*
X13509500Y-7501000D02*
G75*
G03X13509500Y-7501000I-47500J0D01*
G01*
X13414500Y-7703500D02*
X13509500Y-7798500D01*
X13509500Y-7703500D02*
X13414500Y-7798500D01*
X13509500Y-7751000D02*
G75*
G03X13509500Y-7751000I-47500J0D01*
G01*
X13414500Y-7953500D02*
X13509500Y-8048500D01*
X13509500Y-7953500D02*
X13414500Y-8048500D01*
X13509500Y-8001000D02*
G75*
G03X13509500Y-8001000I-47500J0D01*
G01*
X6556500Y-7191500D02*
X6651500Y-7286500D01*
X6651500Y-7191500D02*
X6556500Y-7286500D01*
X6651500Y-7239000D02*
G75*
G03X6651500Y-7239000I-47500J0D01*
G01*
X6556500Y-7441500D02*
X6651500Y-7536500D01*
X6651500Y-7441500D02*
X6556500Y-7536500D01*
X6651500Y-7489000D02*
G75*
G03X6651500Y-7489000I-47500J0D01*
G01*
X6556500Y-7691500D02*
X6651500Y-7786500D01*
X6651500Y-7691500D02*
X6556500Y-7786500D01*
X6651500Y-7739000D02*
G75*
G03X6651500Y-7739000I-47500J0D01*
G01*
X6556500Y-7941500D02*
X6651500Y-8036500D01*
X6651500Y-7941500D02*
X6556500Y-8036500D01*
X6651500Y-7989000D02*
G75*
G03X6651500Y-7989000I-47500J0D01*
G01*
X9225000Y-3506000D02*
X9325000Y-3606000D01*
X9325000Y-3506000D02*
X9225000Y-3606000D01*
X9275000Y-3506000D02*
X9275000Y-3606000D01*
X9225000Y-3556000D02*
X9325000Y-3556000D01*
X9475000Y-3506000D02*
X9575000Y-3606000D01*
X9575000Y-3506000D02*
X9475000Y-3606000D01*
X9525000Y-3506000D02*
X9525000Y-3606000D01*
X9475000Y-3556000D02*
X9575000Y-3556000D01*
X13289000Y-3506000D02*
X13389000Y-3606000D01*
X13389000Y-3506000D02*
X13289000Y-3606000D01*
X13339000Y-3506000D02*
X13339000Y-3606000D01*
X13289000Y-3556000D02*
X13389000Y-3556000D01*
X13539000Y-3506000D02*
X13639000Y-3606000D01*
X13639000Y-3506000D02*
X13539000Y-3606000D01*
X13589000Y-3506000D02*
X13589000Y-3606000D01*
X13539000Y-3556000D02*
X13639000Y-3556000D01*
X6422000Y-3501000D02*
X6532000Y-3611000D01*
X6532000Y-3501000D02*
X6422000Y-3611000D01*
X6515891Y-3594891D02*
X6515891Y-3517109D01*
X6438109Y-3517109D01*
X6438109Y-3594891D01*
X6515891Y-3594891D01*
X6422000Y-3951000D02*
X6532000Y-4061000D01*
X6532000Y-3951000D02*
X6422000Y-4061000D01*
X6515891Y-4044891D02*
X6515891Y-3967109D01*
X6438109Y-3967109D01*
X6438109Y-4044891D01*
X6515891Y-4044891D01*
X7326000Y-3501000D02*
X7436000Y-3611000D01*
X7436000Y-3501000D02*
X7326000Y-3611000D01*
X7419891Y-3594891D02*
X7419891Y-3517109D01*
X7342109Y-3517109D01*
X7342109Y-3594891D01*
X7419891Y-3594891D01*
X7326000Y-3951000D02*
X7436000Y-4061000D01*
X7436000Y-3951000D02*
X7326000Y-4061000D01*
X7419891Y-4044891D02*
X7419891Y-3967109D01*
X7342109Y-3967109D01*
X7342109Y-4044891D01*
X7419891Y-4044891D01*
X7417943Y-10211943D02*
X7568057Y-10362057D01*
X7568057Y-10211943D02*
X7417943Y-10362057D01*
X7493000Y-10362057D02*
X7568057Y-10287000D01*
X7493000Y-10211943D01*
X7417943Y-10287000D01*
X7493000Y-10362057D01*
X7925943Y-10211943D02*
X8076057Y-10362057D01*
X8076057Y-10211943D02*
X7925943Y-10362057D01*
X8001000Y-10362057D02*
X8076057Y-10287000D01*
X8001000Y-10211943D01*
X7925943Y-10287000D01*
X8001000Y-10362057D01*
X13081000Y-4803000D02*
X13081000Y-5103000D01*
X12931000Y-4953000D02*
X13231000Y-4953000D01*
X13231000Y-4953000D02*
G75*
G03X13231000Y-4953000I-150000J0D01*
G01*
X13081000Y-11026000D02*
X13081000Y-11326000D01*
X12931000Y-11176000D02*
X13231000Y-11176000D01*
X13231000Y-11176000D02*
G75*
G03X13231000Y-11176000I-150000J0D01*
G01*
X6985000Y-11026000D02*
X6985000Y-11326000D01*
X6835000Y-11176000D02*
X7135000Y-11176000D01*
X7135000Y-11176000D02*
G75*
G03X7135000Y-11176000I-150000J0D01*
G01*
X6985000Y-4803000D02*
X6985000Y-5103000D01*
X6835000Y-4953000D02*
X7135000Y-4953000D01*
X7135000Y-4953000D02*
G75*
G03X7135000Y-4953000I-150000J0D01*
G01*
D11*
X286429Y-465714D02*
X286429Y-165714D01*
X357857Y-165714D01*
X400714Y-180000D01*
X429286Y-208571D01*
X443571Y-237143D01*
X457857Y-294286D01*
X457857Y-337143D01*
X443571Y-394286D01*
X429286Y-422857D01*
X400714Y-451428D01*
X357857Y-465714D01*
X286429Y-465714D01*
X586429Y-465714D02*
X586429Y-265714D01*
X586429Y-322857D02*
X600714Y-294286D01*
X615000Y-280000D01*
X643571Y-265714D01*
X672143Y-265714D01*
X772143Y-465714D02*
X772143Y-265714D01*
X772143Y-165714D02*
X757857Y-180000D01*
X772143Y-194286D01*
X786428Y-180000D01*
X772143Y-165714D01*
X772143Y-194286D01*
X957857Y-465714D02*
X929286Y-451428D01*
X915000Y-422857D01*
X915000Y-165714D01*
X1115000Y-465714D02*
X1086429Y-451428D01*
X1072143Y-422857D01*
X1072143Y-165714D01*
X1457857Y-465714D02*
X1457857Y-165714D01*
X1557857Y-380000D01*
X1657857Y-165714D01*
X1657857Y-465714D01*
X1929286Y-465714D02*
X1929286Y-308571D01*
X1915000Y-280000D01*
X1886428Y-265714D01*
X1829286Y-265714D01*
X1800714Y-280000D01*
X1929286Y-451428D02*
X1900714Y-465714D01*
X1829286Y-465714D01*
X1800714Y-451428D01*
X1786428Y-422857D01*
X1786428Y-394286D01*
X1800714Y-365714D01*
X1829286Y-351428D01*
X1900714Y-351428D01*
X1929286Y-337143D01*
X2072143Y-265714D02*
X2072143Y-565714D01*
X2072143Y-280000D02*
X2100714Y-265714D01*
X2157857Y-265714D01*
X2186429Y-280000D01*
X2200714Y-294286D01*
X2215000Y-322857D01*
X2215000Y-408571D01*
X2200714Y-437143D01*
X2186429Y-451428D01*
X2157857Y-465714D01*
X2100714Y-465714D01*
X2072143Y-451428D01*
X2343571Y-437143D02*
X2357857Y-451428D01*
X2343571Y-465714D01*
X2329286Y-451428D01*
X2343571Y-437143D01*
X2343571Y-465714D01*
X2343571Y-280000D02*
X2357857Y-294286D01*
X2343571Y-308571D01*
X2329286Y-294286D01*
X2343571Y-280000D01*
X2343571Y-308571D01*
X-35000Y-942500D02*
X0Y-977500D01*
X0Y-942500D02*
X-35000Y-977500D01*
X343571Y-795714D02*
X372143Y-795714D01*
X400714Y-810000D01*
X415000Y-824286D01*
X429286Y-852857D01*
X443571Y-910000D01*
X443571Y-981428D01*
X429286Y-1038571D01*
X415000Y-1067143D01*
X400714Y-1081429D01*
X372143Y-1095714D01*
X343571Y-1095714D01*
X315000Y-1081429D01*
X300714Y-1067143D01*
X286429Y-1038571D01*
X272143Y-981428D01*
X272143Y-910000D01*
X286429Y-852857D01*
X300714Y-824286D01*
X315000Y-810000D01*
X343571Y-795714D01*
X572143Y-1067143D02*
X586429Y-1081429D01*
X572143Y-1095714D01*
X557857Y-1081429D01*
X572143Y-1067143D01*
X572143Y-1095714D01*
X686429Y-795714D02*
X872143Y-795714D01*
X772143Y-910000D01*
X815000Y-910000D01*
X843571Y-924286D01*
X857857Y-938571D01*
X872143Y-967143D01*
X872143Y-1038571D01*
X857857Y-1067143D01*
X843571Y-1081429D01*
X815000Y-1095714D01*
X729286Y-1095714D01*
X700714Y-1081429D01*
X686429Y-1067143D01*
X1143571Y-795714D02*
X1000714Y-795714D01*
X986428Y-938571D01*
X1000714Y-924286D01*
X1029286Y-910000D01*
X1100714Y-910000D01*
X1129286Y-924286D01*
X1143571Y-938571D01*
X1157857Y-967143D01*
X1157857Y-1038571D01*
X1143571Y-1067143D01*
X1129286Y-1081429D01*
X1100714Y-1095714D01*
X1029286Y-1095714D01*
X1000714Y-1081429D01*
X986428Y-1067143D01*
X1286429Y-1095714D02*
X1286429Y-895714D01*
X1286429Y-924286D02*
X1300714Y-910000D01*
X1329286Y-895714D01*
X1372143Y-895714D01*
X1400714Y-910000D01*
X1415000Y-938571D01*
X1415000Y-1095714D01*
X1415000Y-938571D02*
X1429286Y-910000D01*
X1457857Y-895714D01*
X1500714Y-895714D01*
X1529286Y-910000D01*
X1543571Y-938571D01*
X1543571Y-1095714D01*
X1686428Y-1095714D02*
X1686428Y-895714D01*
X1686428Y-924286D02*
X1700714Y-910000D01*
X1729286Y-895714D01*
X1772143Y-895714D01*
X1800714Y-910000D01*
X1815000Y-938571D01*
X1815000Y-1095714D01*
X1815000Y-938571D02*
X1829286Y-910000D01*
X1857857Y-895714D01*
X1900714Y-895714D01*
X1929286Y-910000D01*
X1943571Y-938571D01*
X1943571Y-1095714D01*
X2529286Y-781428D02*
X2272143Y-1167143D01*
X2915000Y-795714D02*
X2943571Y-795714D01*
X2972143Y-810000D01*
X2986428Y-824286D01*
X3000714Y-852857D01*
X3015000Y-910000D01*
X3015000Y-981428D01*
X3000714Y-1038571D01*
X2986428Y-1067143D01*
X2972143Y-1081429D01*
X2943571Y-1095714D01*
X2915000Y-1095714D01*
X2886428Y-1081429D01*
X2872143Y-1067143D01*
X2857857Y-1038571D01*
X2843571Y-981428D01*
X2843571Y-910000D01*
X2857857Y-852857D01*
X2872143Y-824286D01*
X2886428Y-810000D01*
X2915000Y-795714D01*
X3143571Y-1067143D02*
X3157857Y-1081429D01*
X3143571Y-1095714D01*
X3129286Y-1081429D01*
X3143571Y-1067143D01*
X3143571Y-1095714D01*
X3343571Y-795714D02*
X3372143Y-795714D01*
X3400714Y-810000D01*
X3415000Y-824286D01*
X3429286Y-852857D01*
X3443571Y-910000D01*
X3443571Y-981428D01*
X3429286Y-1038571D01*
X3415000Y-1067143D01*
X3400714Y-1081429D01*
X3372143Y-1095714D01*
X3343571Y-1095714D01*
X3315000Y-1081429D01*
X3300714Y-1067143D01*
X3286428Y-1038571D01*
X3272143Y-981428D01*
X3272143Y-910000D01*
X3286428Y-852857D01*
X3300714Y-824286D01*
X3315000Y-810000D01*
X3343571Y-795714D01*
X3729286Y-1095714D02*
X3557857Y-1095714D01*
X3643571Y-1095714D02*
X3643571Y-795714D01*
X3615000Y-838571D01*
X3586428Y-867143D01*
X3557857Y-881428D01*
X3986428Y-895714D02*
X3986428Y-1095714D01*
X3915000Y-781428D02*
X3843571Y-995714D01*
X4029286Y-995714D01*
X4129286Y-795714D02*
X4129286Y-852857D01*
X4243571Y-795714D02*
X4243571Y-852857D01*
X4686429Y-1210000D02*
X4672143Y-1195714D01*
X4643571Y-1152857D01*
X4629286Y-1124286D01*
X4615000Y-1081429D01*
X4600714Y-1010000D01*
X4600714Y-952857D01*
X4615000Y-881428D01*
X4629286Y-838571D01*
X4643571Y-810000D01*
X4672143Y-767143D01*
X4686429Y-752857D01*
X4857857Y-795714D02*
X4886429Y-795714D01*
X4915000Y-810000D01*
X4929286Y-824286D01*
X4943571Y-852857D01*
X4957857Y-910000D01*
X4957857Y-981428D01*
X4943571Y-1038571D01*
X4929286Y-1067143D01*
X4915000Y-1081429D01*
X4886429Y-1095714D01*
X4857857Y-1095714D01*
X4829286Y-1081429D01*
X4815000Y-1067143D01*
X4800714Y-1038571D01*
X4786429Y-981428D01*
X4786429Y-910000D01*
X4800714Y-852857D01*
X4815000Y-824286D01*
X4829286Y-810000D01*
X4857857Y-795714D01*
X5315000Y-1095714D02*
X5315000Y-795714D01*
X5443571Y-1095714D02*
X5443571Y-938571D01*
X5429286Y-910000D01*
X5400714Y-895714D01*
X5357857Y-895714D01*
X5329286Y-910000D01*
X5315000Y-924286D01*
X5629286Y-1095714D02*
X5600714Y-1081429D01*
X5586429Y-1067143D01*
X5572143Y-1038571D01*
X5572143Y-952857D01*
X5586429Y-924286D01*
X5600714Y-910000D01*
X5629286Y-895714D01*
X5672143Y-895714D01*
X5700714Y-910000D01*
X5715000Y-924286D01*
X5729286Y-952857D01*
X5729286Y-1038571D01*
X5715000Y-1067143D01*
X5700714Y-1081429D01*
X5672143Y-1095714D01*
X5629286Y-1095714D01*
X5900714Y-1095714D02*
X5872143Y-1081429D01*
X5857857Y-1052857D01*
X5857857Y-795714D01*
X6129286Y-1081429D02*
X6100714Y-1095714D01*
X6043571Y-1095714D01*
X6015000Y-1081429D01*
X6000714Y-1052857D01*
X6000714Y-938571D01*
X6015000Y-910000D01*
X6043571Y-895714D01*
X6100714Y-895714D01*
X6129286Y-910000D01*
X6143571Y-938571D01*
X6143571Y-967143D01*
X6000714Y-995714D01*
X6257857Y-1081429D02*
X6286428Y-1095714D01*
X6343571Y-1095714D01*
X6372143Y-1081429D01*
X6386428Y-1052857D01*
X6386428Y-1038571D01*
X6372143Y-1010000D01*
X6343571Y-995714D01*
X6300714Y-995714D01*
X6272143Y-981428D01*
X6257857Y-952857D01*
X6257857Y-938571D01*
X6272143Y-910000D01*
X6300714Y-895714D01*
X6343571Y-895714D01*
X6372143Y-910000D01*
X6743571Y-981428D02*
X6972143Y-981428D01*
X6857857Y-1095714D02*
X6857857Y-867143D01*
X7329286Y-824286D02*
X7343571Y-810000D01*
X7372143Y-795714D01*
X7443571Y-795714D01*
X7472143Y-810000D01*
X7486428Y-824286D01*
X7500714Y-852857D01*
X7500714Y-881428D01*
X7486428Y-924286D01*
X7315000Y-1095714D01*
X7500714Y-1095714D01*
X7843571Y-1081429D02*
X7872143Y-1095714D01*
X7929286Y-1095714D01*
X7957857Y-1081429D01*
X7972143Y-1052857D01*
X7972143Y-1038571D01*
X7957857Y-1010000D01*
X7929286Y-995714D01*
X7886428Y-995714D01*
X7857857Y-981428D01*
X7843571Y-952857D01*
X7843571Y-938571D01*
X7857857Y-910000D01*
X7886428Y-895714D01*
X7929286Y-895714D01*
X7957857Y-910000D01*
X8143571Y-1095714D02*
X8115000Y-1081429D01*
X8100714Y-1052857D01*
X8100714Y-795714D01*
X8300714Y-1095714D02*
X8272143Y-1081429D01*
X8257857Y-1067143D01*
X8243571Y-1038571D01*
X8243571Y-952857D01*
X8257857Y-924286D01*
X8272143Y-910000D01*
X8300714Y-895714D01*
X8343571Y-895714D01*
X8372143Y-910000D01*
X8386428Y-924286D01*
X8400714Y-952857D01*
X8400714Y-1038571D01*
X8386428Y-1067143D01*
X8372143Y-1081429D01*
X8343571Y-1095714D01*
X8300714Y-1095714D01*
X8486429Y-895714D02*
X8600714Y-895714D01*
X8529286Y-795714D02*
X8529286Y-1052857D01*
X8543571Y-1081429D01*
X8572143Y-1095714D01*
X8600714Y-1095714D01*
X8686429Y-1081429D02*
X8715000Y-1095714D01*
X8772143Y-1095714D01*
X8800714Y-1081429D01*
X8815000Y-1052857D01*
X8815000Y-1038571D01*
X8800714Y-1010000D01*
X8772143Y-995714D01*
X8729286Y-995714D01*
X8700714Y-981428D01*
X8686429Y-952857D01*
X8686429Y-938571D01*
X8700714Y-910000D01*
X8729286Y-895714D01*
X8772143Y-895714D01*
X8800714Y-910000D01*
X8915000Y-1210000D02*
X8929286Y-1195714D01*
X8957857Y-1152857D01*
X8972143Y-1124286D01*
X8986429Y-1081429D01*
X9000714Y-1010000D01*
X9000714Y-952857D01*
X8986429Y-881428D01*
X8972143Y-838571D01*
X8957857Y-810000D01*
X8929286Y-767143D01*
X8915000Y-752857D01*
X0Y-1356000D02*
G75*
G03X0Y-1356000I-20000J0D01*
G01*
X343571Y-1191714D02*
X372143Y-1191714D01*
X400714Y-1206000D01*
X415000Y-1220286D01*
X429286Y-1248857D01*
X443571Y-1306000D01*
X443571Y-1377429D01*
X429286Y-1434571D01*
X415000Y-1463143D01*
X400714Y-1477428D01*
X372143Y-1491714D01*
X343571Y-1491714D01*
X315000Y-1477428D01*
X300714Y-1463143D01*
X286429Y-1434571D01*
X272143Y-1377429D01*
X272143Y-1306000D01*
X286429Y-1248857D01*
X300714Y-1220286D01*
X315000Y-1206000D01*
X343571Y-1191714D01*
X572143Y-1463143D02*
X586429Y-1477428D01*
X572143Y-1491714D01*
X557857Y-1477428D01*
X572143Y-1463143D01*
X572143Y-1491714D01*
X843571Y-1291714D02*
X843571Y-1491714D01*
X772143Y-1177429D02*
X700714Y-1391714D01*
X886428Y-1391714D01*
X1057857Y-1191714D02*
X1086429Y-1191714D01*
X1115000Y-1206000D01*
X1129286Y-1220286D01*
X1143571Y-1248857D01*
X1157857Y-1306000D01*
X1157857Y-1377429D01*
X1143571Y-1434571D01*
X1129286Y-1463143D01*
X1115000Y-1477428D01*
X1086429Y-1491714D01*
X1057857Y-1491714D01*
X1029286Y-1477428D01*
X1015000Y-1463143D01*
X1000714Y-1434571D01*
X986428Y-1377429D01*
X986428Y-1306000D01*
X1000714Y-1248857D01*
X1015000Y-1220286D01*
X1029286Y-1206000D01*
X1057857Y-1191714D01*
X1286429Y-1491714D02*
X1286429Y-1291714D01*
X1286429Y-1320286D02*
X1300714Y-1306000D01*
X1329286Y-1291714D01*
X1372143Y-1291714D01*
X1400714Y-1306000D01*
X1415000Y-1334571D01*
X1415000Y-1491714D01*
X1415000Y-1334571D02*
X1429286Y-1306000D01*
X1457857Y-1291714D01*
X1500714Y-1291714D01*
X1529286Y-1306000D01*
X1543571Y-1334571D01*
X1543571Y-1491714D01*
X1686428Y-1491714D02*
X1686428Y-1291714D01*
X1686428Y-1320286D02*
X1700714Y-1306000D01*
X1729286Y-1291714D01*
X1772143Y-1291714D01*
X1800714Y-1306000D01*
X1815000Y-1334571D01*
X1815000Y-1491714D01*
X1815000Y-1334571D02*
X1829286Y-1306000D01*
X1857857Y-1291714D01*
X1900714Y-1291714D01*
X1929286Y-1306000D01*
X1943571Y-1334571D01*
X1943571Y-1491714D01*
X2529286Y-1177429D02*
X2272143Y-1563143D01*
X2915000Y-1191714D02*
X2943571Y-1191714D01*
X2972143Y-1206000D01*
X2986428Y-1220286D01*
X3000714Y-1248857D01*
X3015000Y-1306000D01*
X3015000Y-1377429D01*
X3000714Y-1434571D01*
X2986428Y-1463143D01*
X2972143Y-1477428D01*
X2943571Y-1491714D01*
X2915000Y-1491714D01*
X2886428Y-1477428D01*
X2872143Y-1463143D01*
X2857857Y-1434571D01*
X2843571Y-1377429D01*
X2843571Y-1306000D01*
X2857857Y-1248857D01*
X2872143Y-1220286D01*
X2886428Y-1206000D01*
X2915000Y-1191714D01*
X3143571Y-1463143D02*
X3157857Y-1477428D01*
X3143571Y-1491714D01*
X3129286Y-1477428D01*
X3143571Y-1463143D01*
X3143571Y-1491714D01*
X3343571Y-1191714D02*
X3372143Y-1191714D01*
X3400714Y-1206000D01*
X3415000Y-1220286D01*
X3429286Y-1248857D01*
X3443571Y-1306000D01*
X3443571Y-1377429D01*
X3429286Y-1434571D01*
X3415000Y-1463143D01*
X3400714Y-1477428D01*
X3372143Y-1491714D01*
X3343571Y-1491714D01*
X3315000Y-1477428D01*
X3300714Y-1463143D01*
X3286428Y-1434571D01*
X3272143Y-1377429D01*
X3272143Y-1306000D01*
X3286428Y-1248857D01*
X3300714Y-1220286D01*
X3315000Y-1206000D01*
X3343571Y-1191714D01*
X3729286Y-1491714D02*
X3557857Y-1491714D01*
X3643571Y-1491714D02*
X3643571Y-1191714D01*
X3615000Y-1234571D01*
X3586428Y-1263143D01*
X3557857Y-1277429D01*
X3986428Y-1191714D02*
X3929286Y-1191714D01*
X3900714Y-1206000D01*
X3886428Y-1220286D01*
X3857857Y-1263143D01*
X3843571Y-1320286D01*
X3843571Y-1434571D01*
X3857857Y-1463143D01*
X3872143Y-1477428D01*
X3900714Y-1491714D01*
X3957857Y-1491714D01*
X3986428Y-1477428D01*
X4000714Y-1463143D01*
X4015000Y-1434571D01*
X4015000Y-1363143D01*
X4000714Y-1334571D01*
X3986428Y-1320286D01*
X3957857Y-1306000D01*
X3900714Y-1306000D01*
X3872143Y-1320286D01*
X3857857Y-1334571D01*
X3843571Y-1363143D01*
X4129286Y-1191714D02*
X4129286Y-1248857D01*
X4243571Y-1191714D02*
X4243571Y-1248857D01*
X4686429Y-1606000D02*
X4672143Y-1591714D01*
X4643571Y-1548857D01*
X4629286Y-1520286D01*
X4615000Y-1477428D01*
X4600714Y-1406000D01*
X4600714Y-1348857D01*
X4615000Y-1277429D01*
X4629286Y-1234571D01*
X4643571Y-1206000D01*
X4672143Y-1163143D01*
X4686429Y-1148857D01*
X4786429Y-1220286D02*
X4800714Y-1206000D01*
X4829286Y-1191714D01*
X4900714Y-1191714D01*
X4929286Y-1206000D01*
X4943571Y-1220286D01*
X4957857Y-1248857D01*
X4957857Y-1277429D01*
X4943571Y-1320286D01*
X4772143Y-1491714D01*
X4957857Y-1491714D01*
X5315000Y-1491714D02*
X5315000Y-1191714D01*
X5443571Y-1491714D02*
X5443571Y-1334571D01*
X5429286Y-1306000D01*
X5400714Y-1291714D01*
X5357857Y-1291714D01*
X5329286Y-1306000D01*
X5315000Y-1320286D01*
X5629286Y-1491714D02*
X5600714Y-1477428D01*
X5586429Y-1463143D01*
X5572143Y-1434571D01*
X5572143Y-1348857D01*
X5586429Y-1320286D01*
X5600714Y-1306000D01*
X5629286Y-1291714D01*
X5672143Y-1291714D01*
X5700714Y-1306000D01*
X5715000Y-1320286D01*
X5729286Y-1348857D01*
X5729286Y-1434571D01*
X5715000Y-1463143D01*
X5700714Y-1477428D01*
X5672143Y-1491714D01*
X5629286Y-1491714D01*
X5900714Y-1491714D02*
X5872143Y-1477428D01*
X5857857Y-1448857D01*
X5857857Y-1191714D01*
X6129286Y-1477428D02*
X6100714Y-1491714D01*
X6043571Y-1491714D01*
X6015000Y-1477428D01*
X6000714Y-1448857D01*
X6000714Y-1334571D01*
X6015000Y-1306000D01*
X6043571Y-1291714D01*
X6100714Y-1291714D01*
X6129286Y-1306000D01*
X6143571Y-1334571D01*
X6143571Y-1363143D01*
X6000714Y-1391714D01*
X6257857Y-1477428D02*
X6286428Y-1491714D01*
X6343571Y-1491714D01*
X6372143Y-1477428D01*
X6386428Y-1448857D01*
X6386428Y-1434571D01*
X6372143Y-1406000D01*
X6343571Y-1391714D01*
X6300714Y-1391714D01*
X6272143Y-1377429D01*
X6257857Y-1348857D01*
X6257857Y-1334571D01*
X6272143Y-1306000D01*
X6300714Y-1291714D01*
X6343571Y-1291714D01*
X6372143Y-1306000D01*
X6486428Y-1606000D02*
X6500714Y-1591714D01*
X6529286Y-1548857D01*
X6543571Y-1520286D01*
X6557857Y-1477428D01*
X6572143Y-1406000D01*
X6572143Y-1348857D01*
X6557857Y-1277429D01*
X6543571Y-1234571D01*
X6529286Y-1206000D01*
X6500714Y-1163143D01*
X6486428Y-1148857D01*
X-22000Y-1730000D02*
X-22000Y-1774000D01*
X-44000Y-1752000D02*
X0Y-1752000D01*
X343571Y-1587714D02*
X372143Y-1587714D01*
X400714Y-1602000D01*
X415000Y-1616286D01*
X429286Y-1644857D01*
X443571Y-1702000D01*
X443571Y-1773428D01*
X429286Y-1830571D01*
X415000Y-1859143D01*
X400714Y-1873428D01*
X372143Y-1887714D01*
X343571Y-1887714D01*
X315000Y-1873428D01*
X300714Y-1859143D01*
X286429Y-1830571D01*
X272143Y-1773428D01*
X272143Y-1702000D01*
X286429Y-1644857D01*
X300714Y-1616286D01*
X315000Y-1602000D01*
X343571Y-1587714D01*
X572143Y-1859143D02*
X586429Y-1873428D01*
X572143Y-1887714D01*
X557857Y-1873428D01*
X572143Y-1859143D01*
X572143Y-1887714D01*
X843571Y-1687714D02*
X843571Y-1887714D01*
X772143Y-1573428D02*
X700714Y-1787714D01*
X886428Y-1787714D01*
X1129286Y-1687714D02*
X1129286Y-1887714D01*
X1057857Y-1573428D02*
X986428Y-1787714D01*
X1172143Y-1787714D01*
X1286429Y-1887714D02*
X1286429Y-1687714D01*
X1286429Y-1716286D02*
X1300714Y-1702000D01*
X1329286Y-1687714D01*
X1372143Y-1687714D01*
X1400714Y-1702000D01*
X1415000Y-1730571D01*
X1415000Y-1887714D01*
X1415000Y-1730571D02*
X1429286Y-1702000D01*
X1457857Y-1687714D01*
X1500714Y-1687714D01*
X1529286Y-1702000D01*
X1543571Y-1730571D01*
X1543571Y-1887714D01*
X1686428Y-1887714D02*
X1686428Y-1687714D01*
X1686428Y-1716286D02*
X1700714Y-1702000D01*
X1729286Y-1687714D01*
X1772143Y-1687714D01*
X1800714Y-1702000D01*
X1815000Y-1730571D01*
X1815000Y-1887714D01*
X1815000Y-1730571D02*
X1829286Y-1702000D01*
X1857857Y-1687714D01*
X1900714Y-1687714D01*
X1929286Y-1702000D01*
X1943571Y-1730571D01*
X1943571Y-1887714D01*
X2529286Y-1573428D02*
X2272143Y-1959143D01*
X2915000Y-1587714D02*
X2943571Y-1587714D01*
X2972143Y-1602000D01*
X2986428Y-1616286D01*
X3000714Y-1644857D01*
X3015000Y-1702000D01*
X3015000Y-1773428D01*
X3000714Y-1830571D01*
X2986428Y-1859143D01*
X2972143Y-1873428D01*
X2943571Y-1887714D01*
X2915000Y-1887714D01*
X2886428Y-1873428D01*
X2872143Y-1859143D01*
X2857857Y-1830571D01*
X2843571Y-1773428D01*
X2843571Y-1702000D01*
X2857857Y-1644857D01*
X2872143Y-1616286D01*
X2886428Y-1602000D01*
X2915000Y-1587714D01*
X3143571Y-1859143D02*
X3157857Y-1873428D01*
X3143571Y-1887714D01*
X3129286Y-1873428D01*
X3143571Y-1859143D01*
X3143571Y-1887714D01*
X3343571Y-1587714D02*
X3372143Y-1587714D01*
X3400714Y-1602000D01*
X3415000Y-1616286D01*
X3429286Y-1644857D01*
X3443571Y-1702000D01*
X3443571Y-1773428D01*
X3429286Y-1830571D01*
X3415000Y-1859143D01*
X3400714Y-1873428D01*
X3372143Y-1887714D01*
X3343571Y-1887714D01*
X3315000Y-1873428D01*
X3300714Y-1859143D01*
X3286428Y-1830571D01*
X3272143Y-1773428D01*
X3272143Y-1702000D01*
X3286428Y-1644857D01*
X3300714Y-1616286D01*
X3315000Y-1602000D01*
X3343571Y-1587714D01*
X3729286Y-1887714D02*
X3557857Y-1887714D01*
X3643571Y-1887714D02*
X3643571Y-1587714D01*
X3615000Y-1630571D01*
X3586428Y-1659143D01*
X3557857Y-1673428D01*
X3829286Y-1587714D02*
X4029286Y-1587714D01*
X3900714Y-1887714D01*
X4129286Y-1587714D02*
X4129286Y-1644857D01*
X4243571Y-1587714D02*
X4243571Y-1644857D01*
X4686429Y-2002000D02*
X4672143Y-1987714D01*
X4643571Y-1944857D01*
X4629286Y-1916286D01*
X4615000Y-1873428D01*
X4600714Y-1802000D01*
X4600714Y-1744857D01*
X4615000Y-1673428D01*
X4629286Y-1630571D01*
X4643571Y-1602000D01*
X4672143Y-1559143D01*
X4686429Y-1544857D01*
X4943571Y-1587714D02*
X4800714Y-1587714D01*
X4786429Y-1730571D01*
X4800714Y-1716286D01*
X4829286Y-1702000D01*
X4900714Y-1702000D01*
X4929286Y-1716286D01*
X4943571Y-1730571D01*
X4957857Y-1759143D01*
X4957857Y-1830571D01*
X4943571Y-1859143D01*
X4929286Y-1873428D01*
X4900714Y-1887714D01*
X4829286Y-1887714D01*
X4800714Y-1873428D01*
X4786429Y-1859143D01*
X5315000Y-1887714D02*
X5315000Y-1587714D01*
X5443571Y-1887714D02*
X5443571Y-1730571D01*
X5429286Y-1702000D01*
X5400714Y-1687714D01*
X5357857Y-1687714D01*
X5329286Y-1702000D01*
X5315000Y-1716286D01*
X5629286Y-1887714D02*
X5600714Y-1873428D01*
X5586429Y-1859143D01*
X5572143Y-1830571D01*
X5572143Y-1744857D01*
X5586429Y-1716286D01*
X5600714Y-1702000D01*
X5629286Y-1687714D01*
X5672143Y-1687714D01*
X5700714Y-1702000D01*
X5715000Y-1716286D01*
X5729286Y-1744857D01*
X5729286Y-1830571D01*
X5715000Y-1859143D01*
X5700714Y-1873428D01*
X5672143Y-1887714D01*
X5629286Y-1887714D01*
X5900714Y-1887714D02*
X5872143Y-1873428D01*
X5857857Y-1844857D01*
X5857857Y-1587714D01*
X6129286Y-1873428D02*
X6100714Y-1887714D01*
X6043571Y-1887714D01*
X6015000Y-1873428D01*
X6000714Y-1844857D01*
X6000714Y-1730571D01*
X6015000Y-1702000D01*
X6043571Y-1687714D01*
X6100714Y-1687714D01*
X6129286Y-1702000D01*
X6143571Y-1730571D01*
X6143571Y-1759143D01*
X6000714Y-1787714D01*
X6257857Y-1873428D02*
X6286428Y-1887714D01*
X6343571Y-1887714D01*
X6372143Y-1873428D01*
X6386428Y-1844857D01*
X6386428Y-1830571D01*
X6372143Y-1802000D01*
X6343571Y-1787714D01*
X6300714Y-1787714D01*
X6272143Y-1773428D01*
X6257857Y-1744857D01*
X6257857Y-1730571D01*
X6272143Y-1702000D01*
X6300714Y-1687714D01*
X6343571Y-1687714D01*
X6372143Y-1702000D01*
X6486428Y-2002000D02*
X6500714Y-1987714D01*
X6529286Y-1944857D01*
X6543571Y-1916286D01*
X6557857Y-1873428D01*
X6572143Y-1802000D01*
X6572143Y-1744857D01*
X6557857Y-1673428D01*
X6543571Y-1630571D01*
X6529286Y-1602000D01*
X6500714Y-1559143D01*
X6486428Y-1544857D01*
X-8787Y-2169213D02*
X-8787Y-2126787D01*
X-51213Y-2126787D01*
X-51213Y-2169213D01*
X-8787Y-2169213D01*
X343571Y-1983714D02*
X372143Y-1983714D01*
X400714Y-1998000D01*
X415000Y-2012286D01*
X429286Y-2040857D01*
X443571Y-2098000D01*
X443571Y-2169429D01*
X429286Y-2226571D01*
X415000Y-2255143D01*
X400714Y-2269429D01*
X372143Y-2283714D01*
X343571Y-2283714D01*
X315000Y-2269429D01*
X300714Y-2255143D01*
X286429Y-2226571D01*
X272143Y-2169429D01*
X272143Y-2098000D01*
X286429Y-2040857D01*
X300714Y-2012286D01*
X315000Y-1998000D01*
X343571Y-1983714D01*
X572143Y-2255143D02*
X586429Y-2269429D01*
X572143Y-2283714D01*
X557857Y-2269429D01*
X572143Y-2255143D01*
X572143Y-2283714D01*
X843571Y-1983714D02*
X786428Y-1983714D01*
X757857Y-1998000D01*
X743571Y-2012286D01*
X715000Y-2055143D01*
X700714Y-2112286D01*
X700714Y-2226571D01*
X715000Y-2255143D01*
X729286Y-2269429D01*
X757857Y-2283714D01*
X815000Y-2283714D01*
X843571Y-2269429D01*
X857857Y-2255143D01*
X872143Y-2226571D01*
X872143Y-2155143D01*
X857857Y-2126571D01*
X843571Y-2112286D01*
X815000Y-2098000D01*
X757857Y-2098000D01*
X729286Y-2112286D01*
X715000Y-2126571D01*
X700714Y-2155143D01*
X1057857Y-1983714D02*
X1086429Y-1983714D01*
X1115000Y-1998000D01*
X1129286Y-2012286D01*
X1143571Y-2040857D01*
X1157857Y-2098000D01*
X1157857Y-2169429D01*
X1143571Y-2226571D01*
X1129286Y-2255143D01*
X1115000Y-2269429D01*
X1086429Y-2283714D01*
X1057857Y-2283714D01*
X1029286Y-2269429D01*
X1015000Y-2255143D01*
X1000714Y-2226571D01*
X986428Y-2169429D01*
X986428Y-2098000D01*
X1000714Y-2040857D01*
X1015000Y-2012286D01*
X1029286Y-1998000D01*
X1057857Y-1983714D01*
X1286429Y-2283714D02*
X1286429Y-2083714D01*
X1286429Y-2112286D02*
X1300714Y-2098000D01*
X1329286Y-2083714D01*
X1372143Y-2083714D01*
X1400714Y-2098000D01*
X1415000Y-2126571D01*
X1415000Y-2283714D01*
X1415000Y-2126571D02*
X1429286Y-2098000D01*
X1457857Y-2083714D01*
X1500714Y-2083714D01*
X1529286Y-2098000D01*
X1543571Y-2126571D01*
X1543571Y-2283714D01*
X1686428Y-2283714D02*
X1686428Y-2083714D01*
X1686428Y-2112286D02*
X1700714Y-2098000D01*
X1729286Y-2083714D01*
X1772143Y-2083714D01*
X1800714Y-2098000D01*
X1815000Y-2126571D01*
X1815000Y-2283714D01*
X1815000Y-2126571D02*
X1829286Y-2098000D01*
X1857857Y-2083714D01*
X1900714Y-2083714D01*
X1929286Y-2098000D01*
X1943571Y-2126571D01*
X1943571Y-2283714D01*
X2529286Y-1969428D02*
X2272143Y-2355143D01*
X2915000Y-1983714D02*
X2943571Y-1983714D01*
X2972143Y-1998000D01*
X2986428Y-2012286D01*
X3000714Y-2040857D01*
X3015000Y-2098000D01*
X3015000Y-2169429D01*
X3000714Y-2226571D01*
X2986428Y-2255143D01*
X2972143Y-2269429D01*
X2943571Y-2283714D01*
X2915000Y-2283714D01*
X2886428Y-2269429D01*
X2872143Y-2255143D01*
X2857857Y-2226571D01*
X2843571Y-2169429D01*
X2843571Y-2098000D01*
X2857857Y-2040857D01*
X2872143Y-2012286D01*
X2886428Y-1998000D01*
X2915000Y-1983714D01*
X3143571Y-2255143D02*
X3157857Y-2269429D01*
X3143571Y-2283714D01*
X3129286Y-2269429D01*
X3143571Y-2255143D01*
X3143571Y-2283714D01*
X3343571Y-1983714D02*
X3372143Y-1983714D01*
X3400714Y-1998000D01*
X3415000Y-2012286D01*
X3429286Y-2040857D01*
X3443571Y-2098000D01*
X3443571Y-2169429D01*
X3429286Y-2226571D01*
X3415000Y-2255143D01*
X3400714Y-2269429D01*
X3372143Y-2283714D01*
X3343571Y-2283714D01*
X3315000Y-2269429D01*
X3300714Y-2255143D01*
X3286428Y-2226571D01*
X3272143Y-2169429D01*
X3272143Y-2098000D01*
X3286428Y-2040857D01*
X3300714Y-2012286D01*
X3315000Y-1998000D01*
X3343571Y-1983714D01*
X3557857Y-2012286D02*
X3572143Y-1998000D01*
X3600714Y-1983714D01*
X3672143Y-1983714D01*
X3700714Y-1998000D01*
X3715000Y-2012286D01*
X3729286Y-2040857D01*
X3729286Y-2069428D01*
X3715000Y-2112286D01*
X3543571Y-2283714D01*
X3729286Y-2283714D01*
X3986428Y-2083714D02*
X3986428Y-2283714D01*
X3915000Y-1969428D02*
X3843571Y-2183714D01*
X4029286Y-2183714D01*
X4129286Y-1983714D02*
X4129286Y-2040857D01*
X4243571Y-1983714D02*
X4243571Y-2040857D01*
X4686429Y-2398000D02*
X4672143Y-2383714D01*
X4643571Y-2340857D01*
X4629286Y-2312286D01*
X4615000Y-2269429D01*
X4600714Y-2198000D01*
X4600714Y-2140857D01*
X4615000Y-2069428D01*
X4629286Y-2026571D01*
X4643571Y-1998000D01*
X4672143Y-1955143D01*
X4686429Y-1940857D01*
X4786429Y-2012286D02*
X4800714Y-1998000D01*
X4829286Y-1983714D01*
X4900714Y-1983714D01*
X4929286Y-1998000D01*
X4943571Y-2012286D01*
X4957857Y-2040857D01*
X4957857Y-2069428D01*
X4943571Y-2112286D01*
X4772143Y-2283714D01*
X4957857Y-2283714D01*
X5143571Y-1983714D02*
X5172143Y-1983714D01*
X5200714Y-1998000D01*
X5215000Y-2012286D01*
X5229286Y-2040857D01*
X5243571Y-2098000D01*
X5243571Y-2169429D01*
X5229286Y-2226571D01*
X5215000Y-2255143D01*
X5200714Y-2269429D01*
X5172143Y-2283714D01*
X5143571Y-2283714D01*
X5115000Y-2269429D01*
X5100714Y-2255143D01*
X5086429Y-2226571D01*
X5072143Y-2169429D01*
X5072143Y-2098000D01*
X5086429Y-2040857D01*
X5100714Y-2012286D01*
X5115000Y-1998000D01*
X5143571Y-1983714D01*
X5600714Y-2283714D02*
X5600714Y-1983714D01*
X5729286Y-2283714D02*
X5729286Y-2126571D01*
X5715000Y-2098000D01*
X5686428Y-2083714D01*
X5643571Y-2083714D01*
X5615000Y-2098000D01*
X5600714Y-2112286D01*
X5915000Y-2283714D02*
X5886428Y-2269429D01*
X5872143Y-2255143D01*
X5857857Y-2226571D01*
X5857857Y-2140857D01*
X5872143Y-2112286D01*
X5886428Y-2098000D01*
X5915000Y-2083714D01*
X5957857Y-2083714D01*
X5986428Y-2098000D01*
X6000714Y-2112286D01*
X6015000Y-2140857D01*
X6015000Y-2226571D01*
X6000714Y-2255143D01*
X5986428Y-2269429D01*
X5957857Y-2283714D01*
X5915000Y-2283714D01*
X6186428Y-2283714D02*
X6157857Y-2269429D01*
X6143571Y-2240857D01*
X6143571Y-1983714D01*
X6415000Y-2269429D02*
X6386428Y-2283714D01*
X6329286Y-2283714D01*
X6300714Y-2269429D01*
X6286428Y-2240857D01*
X6286428Y-2126571D01*
X6300714Y-2098000D01*
X6329286Y-2083714D01*
X6386428Y-2083714D01*
X6415000Y-2098000D01*
X6429286Y-2126571D01*
X6429286Y-2155143D01*
X6286428Y-2183714D01*
X6543571Y-2269429D02*
X6572143Y-2283714D01*
X6629286Y-2283714D01*
X6657857Y-2269429D01*
X6672143Y-2240857D01*
X6672143Y-2226571D01*
X6657857Y-2198000D01*
X6629286Y-2183714D01*
X6586428Y-2183714D01*
X6557857Y-2169429D01*
X6543571Y-2140857D01*
X6543571Y-2126571D01*
X6557857Y-2098000D01*
X6586428Y-2083714D01*
X6629286Y-2083714D01*
X6657857Y-2098000D01*
X6772143Y-2398000D02*
X6786428Y-2383714D01*
X6815000Y-2340857D01*
X6829286Y-2312286D01*
X6843571Y-2269429D01*
X6857857Y-2198000D01*
X6857857Y-2140857D01*
X6843571Y-2069428D01*
X6829286Y-2026571D01*
X6815000Y-1998000D01*
X6786428Y-1955143D01*
X6772143Y-1940857D01*
X-40000Y-2584000D02*
X0Y-2544000D01*
X-40000Y-2504000D01*
X-80000Y-2544000D01*
X-40000Y-2584000D01*
X343571Y-2379714D02*
X372143Y-2379714D01*
X400714Y-2394000D01*
X415000Y-2408286D01*
X429286Y-2436857D01*
X443571Y-2494000D01*
X443571Y-2565429D01*
X429286Y-2622571D01*
X415000Y-2651143D01*
X400714Y-2665429D01*
X372143Y-2679714D01*
X343571Y-2679714D01*
X315000Y-2665429D01*
X300714Y-2651143D01*
X286429Y-2622571D01*
X272143Y-2565429D01*
X272143Y-2494000D01*
X286429Y-2436857D01*
X300714Y-2408286D01*
X315000Y-2394000D01*
X343571Y-2379714D01*
X572143Y-2651143D02*
X586429Y-2665429D01*
X572143Y-2679714D01*
X557857Y-2665429D01*
X572143Y-2651143D01*
X572143Y-2679714D01*
X757857Y-2508286D02*
X729286Y-2494000D01*
X715000Y-2479714D01*
X700714Y-2451143D01*
X700714Y-2436857D01*
X715000Y-2408286D01*
X729286Y-2394000D01*
X757857Y-2379714D01*
X815000Y-2379714D01*
X843571Y-2394000D01*
X857857Y-2408286D01*
X872143Y-2436857D01*
X872143Y-2451143D01*
X857857Y-2479714D01*
X843571Y-2494000D01*
X815000Y-2508286D01*
X757857Y-2508286D01*
X729286Y-2522571D01*
X715000Y-2536857D01*
X700714Y-2565429D01*
X700714Y-2622571D01*
X715000Y-2651143D01*
X729286Y-2665429D01*
X757857Y-2679714D01*
X815000Y-2679714D01*
X843571Y-2665429D01*
X857857Y-2651143D01*
X872143Y-2622571D01*
X872143Y-2565429D01*
X857857Y-2536857D01*
X843571Y-2522571D01*
X815000Y-2508286D01*
X1057857Y-2379714D02*
X1086429Y-2379714D01*
X1115000Y-2394000D01*
X1129286Y-2408286D01*
X1143571Y-2436857D01*
X1157857Y-2494000D01*
X1157857Y-2565429D01*
X1143571Y-2622571D01*
X1129286Y-2651143D01*
X1115000Y-2665429D01*
X1086429Y-2679714D01*
X1057857Y-2679714D01*
X1029286Y-2665429D01*
X1015000Y-2651143D01*
X1000714Y-2622571D01*
X986428Y-2565429D01*
X986428Y-2494000D01*
X1000714Y-2436857D01*
X1015000Y-2408286D01*
X1029286Y-2394000D01*
X1057857Y-2379714D01*
X1286429Y-2679714D02*
X1286429Y-2479714D01*
X1286429Y-2508286D02*
X1300714Y-2494000D01*
X1329286Y-2479714D01*
X1372143Y-2479714D01*
X1400714Y-2494000D01*
X1415000Y-2522571D01*
X1415000Y-2679714D01*
X1415000Y-2522571D02*
X1429286Y-2494000D01*
X1457857Y-2479714D01*
X1500714Y-2479714D01*
X1529286Y-2494000D01*
X1543571Y-2522571D01*
X1543571Y-2679714D01*
X1686428Y-2679714D02*
X1686428Y-2479714D01*
X1686428Y-2508286D02*
X1700714Y-2494000D01*
X1729286Y-2479714D01*
X1772143Y-2479714D01*
X1800714Y-2494000D01*
X1815000Y-2522571D01*
X1815000Y-2679714D01*
X1815000Y-2522571D02*
X1829286Y-2494000D01*
X1857857Y-2479714D01*
X1900714Y-2479714D01*
X1929286Y-2494000D01*
X1943571Y-2522571D01*
X1943571Y-2679714D01*
X2529286Y-2365429D02*
X2272143Y-2751143D01*
X2915000Y-2379714D02*
X2943571Y-2379714D01*
X2972143Y-2394000D01*
X2986428Y-2408286D01*
X3000714Y-2436857D01*
X3015000Y-2494000D01*
X3015000Y-2565429D01*
X3000714Y-2622571D01*
X2986428Y-2651143D01*
X2972143Y-2665429D01*
X2943571Y-2679714D01*
X2915000Y-2679714D01*
X2886428Y-2665429D01*
X2872143Y-2651143D01*
X2857857Y-2622571D01*
X2843571Y-2565429D01*
X2843571Y-2494000D01*
X2857857Y-2436857D01*
X2872143Y-2408286D01*
X2886428Y-2394000D01*
X2915000Y-2379714D01*
X3143571Y-2651143D02*
X3157857Y-2665429D01*
X3143571Y-2679714D01*
X3129286Y-2665429D01*
X3143571Y-2651143D01*
X3143571Y-2679714D01*
X3343571Y-2379714D02*
X3372143Y-2379714D01*
X3400714Y-2394000D01*
X3415000Y-2408286D01*
X3429286Y-2436857D01*
X3443571Y-2494000D01*
X3443571Y-2565429D01*
X3429286Y-2622571D01*
X3415000Y-2651143D01*
X3400714Y-2665429D01*
X3372143Y-2679714D01*
X3343571Y-2679714D01*
X3315000Y-2665429D01*
X3300714Y-2651143D01*
X3286428Y-2622571D01*
X3272143Y-2565429D01*
X3272143Y-2494000D01*
X3286428Y-2436857D01*
X3300714Y-2408286D01*
X3315000Y-2394000D01*
X3343571Y-2379714D01*
X3543571Y-2379714D02*
X3729286Y-2379714D01*
X3629286Y-2494000D01*
X3672143Y-2494000D01*
X3700714Y-2508286D01*
X3715000Y-2522571D01*
X3729286Y-2551143D01*
X3729286Y-2622571D01*
X3715000Y-2651143D01*
X3700714Y-2665429D01*
X3672143Y-2679714D01*
X3586428Y-2679714D01*
X3557857Y-2665429D01*
X3543571Y-2651143D01*
X4015000Y-2679714D02*
X3843571Y-2679714D01*
X3929286Y-2679714D02*
X3929286Y-2379714D01*
X3900714Y-2422571D01*
X3872143Y-2451143D01*
X3843571Y-2465429D01*
X4129286Y-2379714D02*
X4129286Y-2436857D01*
X4243571Y-2379714D02*
X4243571Y-2436857D01*
X4686429Y-2794000D02*
X4672143Y-2779714D01*
X4643571Y-2736857D01*
X4629286Y-2708286D01*
X4615000Y-2665429D01*
X4600714Y-2594000D01*
X4600714Y-2536857D01*
X4615000Y-2465429D01*
X4629286Y-2422571D01*
X4643571Y-2394000D01*
X4672143Y-2351143D01*
X4686429Y-2336857D01*
X4843571Y-2508286D02*
X4815000Y-2494000D01*
X4800714Y-2479714D01*
X4786429Y-2451143D01*
X4786429Y-2436857D01*
X4800714Y-2408286D01*
X4815000Y-2394000D01*
X4843571Y-2379714D01*
X4900714Y-2379714D01*
X4929286Y-2394000D01*
X4943571Y-2408286D01*
X4957857Y-2436857D01*
X4957857Y-2451143D01*
X4943571Y-2479714D01*
X4929286Y-2494000D01*
X4900714Y-2508286D01*
X4843571Y-2508286D01*
X4815000Y-2522571D01*
X4800714Y-2536857D01*
X4786429Y-2565429D01*
X4786429Y-2622571D01*
X4800714Y-2651143D01*
X4815000Y-2665429D01*
X4843571Y-2679714D01*
X4900714Y-2679714D01*
X4929286Y-2665429D01*
X4943571Y-2651143D01*
X4957857Y-2622571D01*
X4957857Y-2565429D01*
X4943571Y-2536857D01*
X4929286Y-2522571D01*
X4900714Y-2508286D01*
X5129286Y-2508286D02*
X5100714Y-2494000D01*
X5086429Y-2479714D01*
X5072143Y-2451143D01*
X5072143Y-2436857D01*
X5086429Y-2408286D01*
X5100714Y-2394000D01*
X5129286Y-2379714D01*
X5186429Y-2379714D01*
X5215000Y-2394000D01*
X5229286Y-2408286D01*
X5243571Y-2436857D01*
X5243571Y-2451143D01*
X5229286Y-2479714D01*
X5215000Y-2494000D01*
X5186429Y-2508286D01*
X5129286Y-2508286D01*
X5100714Y-2522571D01*
X5086429Y-2536857D01*
X5072143Y-2565429D01*
X5072143Y-2622571D01*
X5086429Y-2651143D01*
X5100714Y-2665429D01*
X5129286Y-2679714D01*
X5186429Y-2679714D01*
X5215000Y-2665429D01*
X5229286Y-2651143D01*
X5243571Y-2622571D01*
X5243571Y-2565429D01*
X5229286Y-2536857D01*
X5215000Y-2522571D01*
X5186429Y-2508286D01*
X5600714Y-2679714D02*
X5600714Y-2379714D01*
X5729286Y-2679714D02*
X5729286Y-2522571D01*
X5715000Y-2494000D01*
X5686428Y-2479714D01*
X5643571Y-2479714D01*
X5615000Y-2494000D01*
X5600714Y-2508286D01*
X5915000Y-2679714D02*
X5886428Y-2665429D01*
X5872143Y-2651143D01*
X5857857Y-2622571D01*
X5857857Y-2536857D01*
X5872143Y-2508286D01*
X5886428Y-2494000D01*
X5915000Y-2479714D01*
X5957857Y-2479714D01*
X5986428Y-2494000D01*
X6000714Y-2508286D01*
X6015000Y-2536857D01*
X6015000Y-2622571D01*
X6000714Y-2651143D01*
X5986428Y-2665429D01*
X5957857Y-2679714D01*
X5915000Y-2679714D01*
X6186428Y-2679714D02*
X6157857Y-2665429D01*
X6143571Y-2636857D01*
X6143571Y-2379714D01*
X6415000Y-2665429D02*
X6386428Y-2679714D01*
X6329286Y-2679714D01*
X6300714Y-2665429D01*
X6286428Y-2636857D01*
X6286428Y-2522571D01*
X6300714Y-2494000D01*
X6329286Y-2479714D01*
X6386428Y-2479714D01*
X6415000Y-2494000D01*
X6429286Y-2522571D01*
X6429286Y-2551143D01*
X6286428Y-2579714D01*
X6543571Y-2665429D02*
X6572143Y-2679714D01*
X6629286Y-2679714D01*
X6657857Y-2665429D01*
X6672143Y-2636857D01*
X6672143Y-2622571D01*
X6657857Y-2594000D01*
X6629286Y-2579714D01*
X6586428Y-2579714D01*
X6557857Y-2565429D01*
X6543571Y-2536857D01*
X6543571Y-2522571D01*
X6557857Y-2494000D01*
X6586428Y-2479714D01*
X6629286Y-2479714D01*
X6657857Y-2494000D01*
X6772143Y-2794000D02*
X6786428Y-2779714D01*
X6815000Y-2736857D01*
X6829286Y-2708286D01*
X6843571Y-2665429D01*
X6857857Y-2594000D01*
X6857857Y-2536857D01*
X6843571Y-2465429D01*
X6829286Y-2422571D01*
X6815000Y-2394000D01*
X6786428Y-2351143D01*
X6772143Y-2336857D01*
X-95000Y-2892500D02*
X0Y-2987500D01*
X0Y-2892500D02*
X-95000Y-2987500D01*
X0Y-2940000D02*
G75*
G03X0Y-2940000I-47500J0D01*
G01*
X343571Y-2775714D02*
X372143Y-2775714D01*
X400714Y-2790000D01*
X415000Y-2804286D01*
X429286Y-2832857D01*
X443571Y-2890000D01*
X443571Y-2961428D01*
X429286Y-3018571D01*
X415000Y-3047143D01*
X400714Y-3061428D01*
X372143Y-3075714D01*
X343571Y-3075714D01*
X315000Y-3061428D01*
X300714Y-3047143D01*
X286429Y-3018571D01*
X272143Y-2961428D01*
X272143Y-2890000D01*
X286429Y-2832857D01*
X300714Y-2804286D01*
X315000Y-2790000D01*
X343571Y-2775714D01*
X572143Y-3047143D02*
X586429Y-3061428D01*
X572143Y-3075714D01*
X557857Y-3061428D01*
X572143Y-3047143D01*
X572143Y-3075714D01*
X729286Y-3075714D02*
X786428Y-3075714D01*
X815000Y-3061428D01*
X829286Y-3047143D01*
X857857Y-3004286D01*
X872143Y-2947143D01*
X872143Y-2832857D01*
X857857Y-2804286D01*
X843571Y-2790000D01*
X815000Y-2775714D01*
X757857Y-2775714D01*
X729286Y-2790000D01*
X715000Y-2804286D01*
X700714Y-2832857D01*
X700714Y-2904286D01*
X715000Y-2932857D01*
X729286Y-2947143D01*
X757857Y-2961428D01*
X815000Y-2961428D01*
X843571Y-2947143D01*
X857857Y-2932857D01*
X872143Y-2904286D01*
X1143571Y-2775714D02*
X1000714Y-2775714D01*
X986428Y-2918571D01*
X1000714Y-2904286D01*
X1029286Y-2890000D01*
X1100714Y-2890000D01*
X1129286Y-2904286D01*
X1143571Y-2918571D01*
X1157857Y-2947143D01*
X1157857Y-3018571D01*
X1143571Y-3047143D01*
X1129286Y-3061428D01*
X1100714Y-3075714D01*
X1029286Y-3075714D01*
X1000714Y-3061428D01*
X986428Y-3047143D01*
X1286429Y-3075714D02*
X1286429Y-2875714D01*
X1286429Y-2904286D02*
X1300714Y-2890000D01*
X1329286Y-2875714D01*
X1372143Y-2875714D01*
X1400714Y-2890000D01*
X1415000Y-2918571D01*
X1415000Y-3075714D01*
X1415000Y-2918571D02*
X1429286Y-2890000D01*
X1457857Y-2875714D01*
X1500714Y-2875714D01*
X1529286Y-2890000D01*
X1543571Y-2918571D01*
X1543571Y-3075714D01*
X1686428Y-3075714D02*
X1686428Y-2875714D01*
X1686428Y-2904286D02*
X1700714Y-2890000D01*
X1729286Y-2875714D01*
X1772143Y-2875714D01*
X1800714Y-2890000D01*
X1815000Y-2918571D01*
X1815000Y-3075714D01*
X1815000Y-2918571D02*
X1829286Y-2890000D01*
X1857857Y-2875714D01*
X1900714Y-2875714D01*
X1929286Y-2890000D01*
X1943571Y-2918571D01*
X1943571Y-3075714D01*
X2529286Y-2761429D02*
X2272143Y-3147143D01*
X2915000Y-2775714D02*
X2943571Y-2775714D01*
X2972143Y-2790000D01*
X2986428Y-2804286D01*
X3000714Y-2832857D01*
X3015000Y-2890000D01*
X3015000Y-2961428D01*
X3000714Y-3018571D01*
X2986428Y-3047143D01*
X2972143Y-3061428D01*
X2943571Y-3075714D01*
X2915000Y-3075714D01*
X2886428Y-3061428D01*
X2872143Y-3047143D01*
X2857857Y-3018571D01*
X2843571Y-2961428D01*
X2843571Y-2890000D01*
X2857857Y-2832857D01*
X2872143Y-2804286D01*
X2886428Y-2790000D01*
X2915000Y-2775714D01*
X3143571Y-3047143D02*
X3157857Y-3061428D01*
X3143571Y-3075714D01*
X3129286Y-3061428D01*
X3143571Y-3047143D01*
X3143571Y-3075714D01*
X3343571Y-2775714D02*
X3372143Y-2775714D01*
X3400714Y-2790000D01*
X3415000Y-2804286D01*
X3429286Y-2832857D01*
X3443571Y-2890000D01*
X3443571Y-2961428D01*
X3429286Y-3018571D01*
X3415000Y-3047143D01*
X3400714Y-3061428D01*
X3372143Y-3075714D01*
X3343571Y-3075714D01*
X3315000Y-3061428D01*
X3300714Y-3047143D01*
X3286428Y-3018571D01*
X3272143Y-2961428D01*
X3272143Y-2890000D01*
X3286428Y-2832857D01*
X3300714Y-2804286D01*
X3315000Y-2790000D01*
X3343571Y-2775714D01*
X3543571Y-2775714D02*
X3729286Y-2775714D01*
X3629286Y-2890000D01*
X3672143Y-2890000D01*
X3700714Y-2904286D01*
X3715000Y-2918571D01*
X3729286Y-2947143D01*
X3729286Y-3018571D01*
X3715000Y-3047143D01*
X3700714Y-3061428D01*
X3672143Y-3075714D01*
X3586428Y-3075714D01*
X3557857Y-3061428D01*
X3543571Y-3047143D01*
X3829286Y-2775714D02*
X4029286Y-2775714D01*
X3900714Y-3075714D01*
X4129286Y-2775714D02*
X4129286Y-2832857D01*
X4243571Y-2775714D02*
X4243571Y-2832857D01*
X4686429Y-3190000D02*
X4672143Y-3175714D01*
X4643571Y-3132857D01*
X4629286Y-3104286D01*
X4615000Y-3061428D01*
X4600714Y-2990000D01*
X4600714Y-2932857D01*
X4615000Y-2861428D01*
X4629286Y-2818571D01*
X4643571Y-2790000D01*
X4672143Y-2747143D01*
X4686429Y-2732857D01*
X4772143Y-2775714D02*
X4957857Y-2775714D01*
X4857857Y-2890000D01*
X4900714Y-2890000D01*
X4929286Y-2904286D01*
X4943571Y-2918571D01*
X4957857Y-2947143D01*
X4957857Y-3018571D01*
X4943571Y-3047143D01*
X4929286Y-3061428D01*
X4900714Y-3075714D01*
X4815000Y-3075714D01*
X4786429Y-3061428D01*
X4772143Y-3047143D01*
X5072143Y-2804286D02*
X5086429Y-2790000D01*
X5115000Y-2775714D01*
X5186429Y-2775714D01*
X5215000Y-2790000D01*
X5229286Y-2804286D01*
X5243571Y-2832857D01*
X5243571Y-2861428D01*
X5229286Y-2904286D01*
X5057857Y-3075714D01*
X5243571Y-3075714D01*
X5600714Y-3075714D02*
X5600714Y-2775714D01*
X5729286Y-3075714D02*
X5729286Y-2918571D01*
X5715000Y-2890000D01*
X5686428Y-2875714D01*
X5643571Y-2875714D01*
X5615000Y-2890000D01*
X5600714Y-2904286D01*
X5915000Y-3075714D02*
X5886428Y-3061428D01*
X5872143Y-3047143D01*
X5857857Y-3018571D01*
X5857857Y-2932857D01*
X5872143Y-2904286D01*
X5886428Y-2890000D01*
X5915000Y-2875714D01*
X5957857Y-2875714D01*
X5986428Y-2890000D01*
X6000714Y-2904286D01*
X6015000Y-2932857D01*
X6015000Y-3018571D01*
X6000714Y-3047143D01*
X5986428Y-3061428D01*
X5957857Y-3075714D01*
X5915000Y-3075714D01*
X6186428Y-3075714D02*
X6157857Y-3061428D01*
X6143571Y-3032857D01*
X6143571Y-2775714D01*
X6415000Y-3061428D02*
X6386428Y-3075714D01*
X6329286Y-3075714D01*
X6300714Y-3061428D01*
X6286428Y-3032857D01*
X6286428Y-2918571D01*
X6300714Y-2890000D01*
X6329286Y-2875714D01*
X6386428Y-2875714D01*
X6415000Y-2890000D01*
X6429286Y-2918571D01*
X6429286Y-2947143D01*
X6286428Y-2975714D01*
X6543571Y-3061428D02*
X6572143Y-3075714D01*
X6629286Y-3075714D01*
X6657857Y-3061428D01*
X6672143Y-3032857D01*
X6672143Y-3018571D01*
X6657857Y-2990000D01*
X6629286Y-2975714D01*
X6586428Y-2975714D01*
X6557857Y-2961428D01*
X6543571Y-2932857D01*
X6543571Y-2918571D01*
X6557857Y-2890000D01*
X6586428Y-2875714D01*
X6629286Y-2875714D01*
X6657857Y-2890000D01*
X6772143Y-3190000D02*
X6786428Y-3175714D01*
X6815000Y-3132857D01*
X6829286Y-3104286D01*
X6843571Y-3061428D01*
X6857857Y-2990000D01*
X6857857Y-2932857D01*
X6843571Y-2861428D01*
X6829286Y-2818571D01*
X6815000Y-2790000D01*
X6786428Y-2747143D01*
X6772143Y-2732857D01*
X-100000Y-3286000D02*
X0Y-3386000D01*
X0Y-3286000D02*
X-100000Y-3386000D01*
X-50000Y-3286000D02*
X-50000Y-3386000D01*
X-100000Y-3336000D02*
X0Y-3336000D01*
X443571Y-3471714D02*
X272143Y-3471714D01*
X357857Y-3471714D02*
X357857Y-3171714D01*
X329286Y-3214571D01*
X300714Y-3243143D01*
X272143Y-3257428D01*
X572143Y-3443143D02*
X586429Y-3457428D01*
X572143Y-3471714D01*
X557857Y-3457428D01*
X572143Y-3443143D01*
X572143Y-3471714D01*
X772143Y-3171714D02*
X800714Y-3171714D01*
X829286Y-3186000D01*
X843571Y-3200286D01*
X857857Y-3228857D01*
X872143Y-3286000D01*
X872143Y-3357428D01*
X857857Y-3414571D01*
X843571Y-3443143D01*
X829286Y-3457428D01*
X800714Y-3471714D01*
X772143Y-3471714D01*
X743571Y-3457428D01*
X729286Y-3443143D01*
X715000Y-3414571D01*
X700714Y-3357428D01*
X700714Y-3286000D01*
X715000Y-3228857D01*
X729286Y-3200286D01*
X743571Y-3186000D01*
X772143Y-3171714D01*
X1057857Y-3171714D02*
X1086429Y-3171714D01*
X1115000Y-3186000D01*
X1129286Y-3200286D01*
X1143571Y-3228857D01*
X1157857Y-3286000D01*
X1157857Y-3357428D01*
X1143571Y-3414571D01*
X1129286Y-3443143D01*
X1115000Y-3457428D01*
X1086429Y-3471714D01*
X1057857Y-3471714D01*
X1029286Y-3457428D01*
X1015000Y-3443143D01*
X1000714Y-3414571D01*
X986428Y-3357428D01*
X986428Y-3286000D01*
X1000714Y-3228857D01*
X1015000Y-3200286D01*
X1029286Y-3186000D01*
X1057857Y-3171714D01*
X1286429Y-3471714D02*
X1286429Y-3271714D01*
X1286429Y-3300286D02*
X1300714Y-3286000D01*
X1329286Y-3271714D01*
X1372143Y-3271714D01*
X1400714Y-3286000D01*
X1415000Y-3314571D01*
X1415000Y-3471714D01*
X1415000Y-3314571D02*
X1429286Y-3286000D01*
X1457857Y-3271714D01*
X1500714Y-3271714D01*
X1529286Y-3286000D01*
X1543571Y-3314571D01*
X1543571Y-3471714D01*
X1686428Y-3471714D02*
X1686428Y-3271714D01*
X1686428Y-3300286D02*
X1700714Y-3286000D01*
X1729286Y-3271714D01*
X1772143Y-3271714D01*
X1800714Y-3286000D01*
X1815000Y-3314571D01*
X1815000Y-3471714D01*
X1815000Y-3314571D02*
X1829286Y-3286000D01*
X1857857Y-3271714D01*
X1900714Y-3271714D01*
X1929286Y-3286000D01*
X1943571Y-3314571D01*
X1943571Y-3471714D01*
X2529286Y-3157428D02*
X2272143Y-3543143D01*
X2915000Y-3171714D02*
X2943571Y-3171714D01*
X2972143Y-3186000D01*
X2986428Y-3200286D01*
X3000714Y-3228857D01*
X3015000Y-3286000D01*
X3015000Y-3357428D01*
X3000714Y-3414571D01*
X2986428Y-3443143D01*
X2972143Y-3457428D01*
X2943571Y-3471714D01*
X2915000Y-3471714D01*
X2886428Y-3457428D01*
X2872143Y-3443143D01*
X2857857Y-3414571D01*
X2843571Y-3357428D01*
X2843571Y-3286000D01*
X2857857Y-3228857D01*
X2872143Y-3200286D01*
X2886428Y-3186000D01*
X2915000Y-3171714D01*
X3143571Y-3443143D02*
X3157857Y-3457428D01*
X3143571Y-3471714D01*
X3129286Y-3457428D01*
X3143571Y-3443143D01*
X3143571Y-3471714D01*
X3343571Y-3171714D02*
X3372143Y-3171714D01*
X3400714Y-3186000D01*
X3415000Y-3200286D01*
X3429286Y-3228857D01*
X3443571Y-3286000D01*
X3443571Y-3357428D01*
X3429286Y-3414571D01*
X3415000Y-3443143D01*
X3400714Y-3457428D01*
X3372143Y-3471714D01*
X3343571Y-3471714D01*
X3315000Y-3457428D01*
X3300714Y-3443143D01*
X3286428Y-3414571D01*
X3272143Y-3357428D01*
X3272143Y-3286000D01*
X3286428Y-3228857D01*
X3300714Y-3200286D01*
X3315000Y-3186000D01*
X3343571Y-3171714D01*
X3543571Y-3171714D02*
X3729286Y-3171714D01*
X3629286Y-3286000D01*
X3672143Y-3286000D01*
X3700714Y-3300286D01*
X3715000Y-3314571D01*
X3729286Y-3343143D01*
X3729286Y-3414571D01*
X3715000Y-3443143D01*
X3700714Y-3457428D01*
X3672143Y-3471714D01*
X3586428Y-3471714D01*
X3557857Y-3457428D01*
X3543571Y-3443143D01*
X3872143Y-3471714D02*
X3929286Y-3471714D01*
X3957857Y-3457428D01*
X3972143Y-3443143D01*
X4000714Y-3400286D01*
X4015000Y-3343143D01*
X4015000Y-3228857D01*
X4000714Y-3200286D01*
X3986428Y-3186000D01*
X3957857Y-3171714D01*
X3900714Y-3171714D01*
X3872143Y-3186000D01*
X3857857Y-3200286D01*
X3843571Y-3228857D01*
X3843571Y-3300286D01*
X3857857Y-3328857D01*
X3872143Y-3343143D01*
X3900714Y-3357428D01*
X3957857Y-3357428D01*
X3986428Y-3343143D01*
X4000714Y-3328857D01*
X4015000Y-3300286D01*
X4129286Y-3171714D02*
X4129286Y-3228857D01*
X4243571Y-3171714D02*
X4243571Y-3228857D01*
X4686429Y-3586000D02*
X4672143Y-3571714D01*
X4643571Y-3528857D01*
X4629286Y-3500286D01*
X4615000Y-3457428D01*
X4600714Y-3386000D01*
X4600714Y-3328857D01*
X4615000Y-3257428D01*
X4629286Y-3214571D01*
X4643571Y-3186000D01*
X4672143Y-3143143D01*
X4686429Y-3128857D01*
X4929286Y-3271714D02*
X4929286Y-3471714D01*
X4857857Y-3157428D02*
X4786429Y-3371714D01*
X4972143Y-3371714D01*
X5315000Y-3471714D02*
X5315000Y-3171714D01*
X5443571Y-3471714D02*
X5443571Y-3314571D01*
X5429286Y-3286000D01*
X5400714Y-3271714D01*
X5357857Y-3271714D01*
X5329286Y-3286000D01*
X5315000Y-3300286D01*
X5629286Y-3471714D02*
X5600714Y-3457428D01*
X5586429Y-3443143D01*
X5572143Y-3414571D01*
X5572143Y-3328857D01*
X5586429Y-3300286D01*
X5600714Y-3286000D01*
X5629286Y-3271714D01*
X5672143Y-3271714D01*
X5700714Y-3286000D01*
X5715000Y-3300286D01*
X5729286Y-3328857D01*
X5729286Y-3414571D01*
X5715000Y-3443143D01*
X5700714Y-3457428D01*
X5672143Y-3471714D01*
X5629286Y-3471714D01*
X5900714Y-3471714D02*
X5872143Y-3457428D01*
X5857857Y-3428857D01*
X5857857Y-3171714D01*
X6129286Y-3457428D02*
X6100714Y-3471714D01*
X6043571Y-3471714D01*
X6015000Y-3457428D01*
X6000714Y-3428857D01*
X6000714Y-3314571D01*
X6015000Y-3286000D01*
X6043571Y-3271714D01*
X6100714Y-3271714D01*
X6129286Y-3286000D01*
X6143571Y-3314571D01*
X6143571Y-3343143D01*
X6000714Y-3371714D01*
X6257857Y-3457428D02*
X6286428Y-3471714D01*
X6343571Y-3471714D01*
X6372143Y-3457428D01*
X6386428Y-3428857D01*
X6386428Y-3414571D01*
X6372143Y-3386000D01*
X6343571Y-3371714D01*
X6300714Y-3371714D01*
X6272143Y-3357428D01*
X6257857Y-3328857D01*
X6257857Y-3314571D01*
X6272143Y-3286000D01*
X6300714Y-3271714D01*
X6343571Y-3271714D01*
X6372143Y-3286000D01*
X6486428Y-3586000D02*
X6500714Y-3571714D01*
X6529286Y-3528857D01*
X6543571Y-3500286D01*
X6557857Y-3457428D01*
X6572143Y-3386000D01*
X6572143Y-3328857D01*
X6557857Y-3257428D01*
X6543571Y-3214571D01*
X6529286Y-3186000D01*
X6500714Y-3143143D01*
X6486428Y-3128857D01*
X-110000Y-3677000D02*
X0Y-3787000D01*
X0Y-3677000D02*
X-110000Y-3787000D01*
X-16109Y-3770891D02*
X-16109Y-3693109D01*
X-93891Y-3693109D01*
X-93891Y-3770891D01*
X-16109Y-3770891D01*
X443571Y-3867714D02*
X272143Y-3867714D01*
X357857Y-3867714D02*
X357857Y-3567714D01*
X329286Y-3610571D01*
X300714Y-3639143D01*
X272143Y-3653428D01*
X572143Y-3839143D02*
X586429Y-3853428D01*
X572143Y-3867714D01*
X557857Y-3853428D01*
X572143Y-3839143D01*
X572143Y-3867714D01*
X872143Y-3867714D02*
X700714Y-3867714D01*
X786428Y-3867714D02*
X786428Y-3567714D01*
X757857Y-3610571D01*
X729286Y-3639143D01*
X700714Y-3653428D01*
X1057857Y-3567714D02*
X1086429Y-3567714D01*
X1115000Y-3582000D01*
X1129286Y-3596286D01*
X1143571Y-3624857D01*
X1157857Y-3682000D01*
X1157857Y-3753428D01*
X1143571Y-3810571D01*
X1129286Y-3839143D01*
X1115000Y-3853428D01*
X1086429Y-3867714D01*
X1057857Y-3867714D01*
X1029286Y-3853428D01*
X1015000Y-3839143D01*
X1000714Y-3810571D01*
X986428Y-3753428D01*
X986428Y-3682000D01*
X1000714Y-3624857D01*
X1015000Y-3596286D01*
X1029286Y-3582000D01*
X1057857Y-3567714D01*
X1286429Y-3867714D02*
X1286429Y-3667714D01*
X1286429Y-3696286D02*
X1300714Y-3682000D01*
X1329286Y-3667714D01*
X1372143Y-3667714D01*
X1400714Y-3682000D01*
X1415000Y-3710571D01*
X1415000Y-3867714D01*
X1415000Y-3710571D02*
X1429286Y-3682000D01*
X1457857Y-3667714D01*
X1500714Y-3667714D01*
X1529286Y-3682000D01*
X1543571Y-3710571D01*
X1543571Y-3867714D01*
X1686428Y-3867714D02*
X1686428Y-3667714D01*
X1686428Y-3696286D02*
X1700714Y-3682000D01*
X1729286Y-3667714D01*
X1772143Y-3667714D01*
X1800714Y-3682000D01*
X1815000Y-3710571D01*
X1815000Y-3867714D01*
X1815000Y-3710571D02*
X1829286Y-3682000D01*
X1857857Y-3667714D01*
X1900714Y-3667714D01*
X1929286Y-3682000D01*
X1943571Y-3710571D01*
X1943571Y-3867714D01*
X2529286Y-3553428D02*
X2272143Y-3939143D01*
X2915000Y-3567714D02*
X2943571Y-3567714D01*
X2972143Y-3582000D01*
X2986428Y-3596286D01*
X3000714Y-3624857D01*
X3015000Y-3682000D01*
X3015000Y-3753428D01*
X3000714Y-3810571D01*
X2986428Y-3839143D01*
X2972143Y-3853428D01*
X2943571Y-3867714D01*
X2915000Y-3867714D01*
X2886428Y-3853428D01*
X2872143Y-3839143D01*
X2857857Y-3810571D01*
X2843571Y-3753428D01*
X2843571Y-3682000D01*
X2857857Y-3624857D01*
X2872143Y-3596286D01*
X2886428Y-3582000D01*
X2915000Y-3567714D01*
X3143571Y-3839143D02*
X3157857Y-3853428D01*
X3143571Y-3867714D01*
X3129286Y-3853428D01*
X3143571Y-3839143D01*
X3143571Y-3867714D01*
X3343571Y-3567714D02*
X3372143Y-3567714D01*
X3400714Y-3582000D01*
X3415000Y-3596286D01*
X3429286Y-3624857D01*
X3443571Y-3682000D01*
X3443571Y-3753428D01*
X3429286Y-3810571D01*
X3415000Y-3839143D01*
X3400714Y-3853428D01*
X3372143Y-3867714D01*
X3343571Y-3867714D01*
X3315000Y-3853428D01*
X3300714Y-3839143D01*
X3286428Y-3810571D01*
X3272143Y-3753428D01*
X3272143Y-3682000D01*
X3286428Y-3624857D01*
X3300714Y-3596286D01*
X3315000Y-3582000D01*
X3343571Y-3567714D01*
X3700714Y-3667714D02*
X3700714Y-3867714D01*
X3629286Y-3553428D02*
X3557857Y-3767714D01*
X3743571Y-3767714D01*
X3829286Y-3567714D02*
X4015000Y-3567714D01*
X3915000Y-3682000D01*
X3957857Y-3682000D01*
X3986428Y-3696286D01*
X4000714Y-3710571D01*
X4015000Y-3739143D01*
X4015000Y-3810571D01*
X4000714Y-3839143D01*
X3986428Y-3853428D01*
X3957857Y-3867714D01*
X3872143Y-3867714D01*
X3843571Y-3853428D01*
X3829286Y-3839143D01*
X4129286Y-3567714D02*
X4129286Y-3624857D01*
X4243571Y-3567714D02*
X4243571Y-3624857D01*
X4686429Y-3982000D02*
X4672143Y-3967714D01*
X4643571Y-3924857D01*
X4629286Y-3896286D01*
X4615000Y-3853428D01*
X4600714Y-3782000D01*
X4600714Y-3724857D01*
X4615000Y-3653428D01*
X4629286Y-3610571D01*
X4643571Y-3582000D01*
X4672143Y-3539143D01*
X4686429Y-3524857D01*
X4929286Y-3667714D02*
X4929286Y-3867714D01*
X4857857Y-3553428D02*
X4786429Y-3767714D01*
X4972143Y-3767714D01*
X5315000Y-3867714D02*
X5315000Y-3567714D01*
X5443571Y-3867714D02*
X5443571Y-3710571D01*
X5429286Y-3682000D01*
X5400714Y-3667714D01*
X5357857Y-3667714D01*
X5329286Y-3682000D01*
X5315000Y-3696286D01*
X5629286Y-3867714D02*
X5600714Y-3853428D01*
X5586429Y-3839143D01*
X5572143Y-3810571D01*
X5572143Y-3724857D01*
X5586429Y-3696286D01*
X5600714Y-3682000D01*
X5629286Y-3667714D01*
X5672143Y-3667714D01*
X5700714Y-3682000D01*
X5715000Y-3696286D01*
X5729286Y-3724857D01*
X5729286Y-3810571D01*
X5715000Y-3839143D01*
X5700714Y-3853428D01*
X5672143Y-3867714D01*
X5629286Y-3867714D01*
X5900714Y-3867714D02*
X5872143Y-3853428D01*
X5857857Y-3824857D01*
X5857857Y-3567714D01*
X6129286Y-3853428D02*
X6100714Y-3867714D01*
X6043571Y-3867714D01*
X6015000Y-3853428D01*
X6000714Y-3824857D01*
X6000714Y-3710571D01*
X6015000Y-3682000D01*
X6043571Y-3667714D01*
X6100714Y-3667714D01*
X6129286Y-3682000D01*
X6143571Y-3710571D01*
X6143571Y-3739143D01*
X6000714Y-3767714D01*
X6257857Y-3853428D02*
X6286428Y-3867714D01*
X6343571Y-3867714D01*
X6372143Y-3853428D01*
X6386428Y-3824857D01*
X6386428Y-3810571D01*
X6372143Y-3782000D01*
X6343571Y-3767714D01*
X6300714Y-3767714D01*
X6272143Y-3753428D01*
X6257857Y-3724857D01*
X6257857Y-3710571D01*
X6272143Y-3682000D01*
X6300714Y-3667714D01*
X6343571Y-3667714D01*
X6372143Y-3682000D01*
X6486428Y-3982000D02*
X6500714Y-3967714D01*
X6529286Y-3924857D01*
X6543571Y-3896286D01*
X6557857Y-3853428D01*
X6572143Y-3782000D01*
X6572143Y-3724857D01*
X6557857Y-3653428D01*
X6543571Y-3610571D01*
X6529286Y-3582000D01*
X6500714Y-3539143D01*
X6486428Y-3524857D01*
X-150114Y-4052943D02*
X0Y-4203057D01*
X0Y-4052943D02*
X-150114Y-4203057D01*
X-75057Y-4203057D02*
X0Y-4128000D01*
X-75057Y-4052943D01*
X-150114Y-4128000D01*
X-75057Y-4203057D01*
X443571Y-4263714D02*
X272143Y-4263714D01*
X357857Y-4263714D02*
X357857Y-3963714D01*
X329286Y-4006571D01*
X300714Y-4035143D01*
X272143Y-4049428D01*
X572143Y-4235143D02*
X586429Y-4249429D01*
X572143Y-4263714D01*
X557857Y-4249429D01*
X572143Y-4235143D01*
X572143Y-4263714D01*
X857857Y-3963714D02*
X715000Y-3963714D01*
X700714Y-4106571D01*
X715000Y-4092286D01*
X743571Y-4078000D01*
X815000Y-4078000D01*
X843571Y-4092286D01*
X857857Y-4106571D01*
X872143Y-4135143D01*
X872143Y-4206571D01*
X857857Y-4235143D01*
X843571Y-4249429D01*
X815000Y-4263714D01*
X743571Y-4263714D01*
X715000Y-4249429D01*
X700714Y-4235143D01*
X1057857Y-3963714D02*
X1086429Y-3963714D01*
X1115000Y-3978000D01*
X1129286Y-3992286D01*
X1143571Y-4020857D01*
X1157857Y-4078000D01*
X1157857Y-4149428D01*
X1143571Y-4206571D01*
X1129286Y-4235143D01*
X1115000Y-4249429D01*
X1086429Y-4263714D01*
X1057857Y-4263714D01*
X1029286Y-4249429D01*
X1015000Y-4235143D01*
X1000714Y-4206571D01*
X986428Y-4149428D01*
X986428Y-4078000D01*
X1000714Y-4020857D01*
X1015000Y-3992286D01*
X1029286Y-3978000D01*
X1057857Y-3963714D01*
X1286429Y-4263714D02*
X1286429Y-4063714D01*
X1286429Y-4092286D02*
X1300714Y-4078000D01*
X1329286Y-4063714D01*
X1372143Y-4063714D01*
X1400714Y-4078000D01*
X1415000Y-4106571D01*
X1415000Y-4263714D01*
X1415000Y-4106571D02*
X1429286Y-4078000D01*
X1457857Y-4063714D01*
X1500714Y-4063714D01*
X1529286Y-4078000D01*
X1543571Y-4106571D01*
X1543571Y-4263714D01*
X1686428Y-4263714D02*
X1686428Y-4063714D01*
X1686428Y-4092286D02*
X1700714Y-4078000D01*
X1729286Y-4063714D01*
X1772143Y-4063714D01*
X1800714Y-4078000D01*
X1815000Y-4106571D01*
X1815000Y-4263714D01*
X1815000Y-4106571D02*
X1829286Y-4078000D01*
X1857857Y-4063714D01*
X1900714Y-4063714D01*
X1929286Y-4078000D01*
X1943571Y-4106571D01*
X1943571Y-4263714D01*
X2529286Y-3949428D02*
X2272143Y-4335143D01*
X2915000Y-3963714D02*
X2943571Y-3963714D01*
X2972143Y-3978000D01*
X2986428Y-3992286D01*
X3000714Y-4020857D01*
X3015000Y-4078000D01*
X3015000Y-4149428D01*
X3000714Y-4206571D01*
X2986428Y-4235143D01*
X2972143Y-4249429D01*
X2943571Y-4263714D01*
X2915000Y-4263714D01*
X2886428Y-4249429D01*
X2872143Y-4235143D01*
X2857857Y-4206571D01*
X2843571Y-4149428D01*
X2843571Y-4078000D01*
X2857857Y-4020857D01*
X2872143Y-3992286D01*
X2886428Y-3978000D01*
X2915000Y-3963714D01*
X3143571Y-4235143D02*
X3157857Y-4249429D01*
X3143571Y-4263714D01*
X3129286Y-4249429D01*
X3143571Y-4235143D01*
X3143571Y-4263714D01*
X3343571Y-3963714D02*
X3372143Y-3963714D01*
X3400714Y-3978000D01*
X3415000Y-3992286D01*
X3429286Y-4020857D01*
X3443571Y-4078000D01*
X3443571Y-4149428D01*
X3429286Y-4206571D01*
X3415000Y-4235143D01*
X3400714Y-4249429D01*
X3372143Y-4263714D01*
X3343571Y-4263714D01*
X3315000Y-4249429D01*
X3300714Y-4235143D01*
X3286428Y-4206571D01*
X3272143Y-4149428D01*
X3272143Y-4078000D01*
X3286428Y-4020857D01*
X3300714Y-3992286D01*
X3315000Y-3978000D01*
X3343571Y-3963714D01*
X3715000Y-3963714D02*
X3572143Y-3963714D01*
X3557857Y-4106571D01*
X3572143Y-4092286D01*
X3600714Y-4078000D01*
X3672143Y-4078000D01*
X3700714Y-4092286D01*
X3715000Y-4106571D01*
X3729286Y-4135143D01*
X3729286Y-4206571D01*
X3715000Y-4235143D01*
X3700714Y-4249429D01*
X3672143Y-4263714D01*
X3600714Y-4263714D01*
X3572143Y-4249429D01*
X3557857Y-4235143D01*
X3872143Y-4263714D02*
X3929286Y-4263714D01*
X3957857Y-4249429D01*
X3972143Y-4235143D01*
X4000714Y-4192286D01*
X4015000Y-4135143D01*
X4015000Y-4020857D01*
X4000714Y-3992286D01*
X3986428Y-3978000D01*
X3957857Y-3963714D01*
X3900714Y-3963714D01*
X3872143Y-3978000D01*
X3857857Y-3992286D01*
X3843571Y-4020857D01*
X3843571Y-4092286D01*
X3857857Y-4120857D01*
X3872143Y-4135143D01*
X3900714Y-4149428D01*
X3957857Y-4149428D01*
X3986428Y-4135143D01*
X4000714Y-4120857D01*
X4015000Y-4092286D01*
X4129286Y-3963714D02*
X4129286Y-4020857D01*
X4243571Y-3963714D02*
X4243571Y-4020857D01*
X4686429Y-4378000D02*
X4672143Y-4363714D01*
X4643571Y-4320857D01*
X4629286Y-4292286D01*
X4615000Y-4249429D01*
X4600714Y-4178000D01*
X4600714Y-4120857D01*
X4615000Y-4049428D01*
X4629286Y-4006571D01*
X4643571Y-3978000D01*
X4672143Y-3935143D01*
X4686429Y-3920857D01*
X4786429Y-3992286D02*
X4800714Y-3978000D01*
X4829286Y-3963714D01*
X4900714Y-3963714D01*
X4929286Y-3978000D01*
X4943571Y-3992286D01*
X4957857Y-4020857D01*
X4957857Y-4049428D01*
X4943571Y-4092286D01*
X4772143Y-4263714D01*
X4957857Y-4263714D01*
X5315000Y-4263714D02*
X5315000Y-3963714D01*
X5443571Y-4263714D02*
X5443571Y-4106571D01*
X5429286Y-4078000D01*
X5400714Y-4063714D01*
X5357857Y-4063714D01*
X5329286Y-4078000D01*
X5315000Y-4092286D01*
X5629286Y-4263714D02*
X5600714Y-4249429D01*
X5586429Y-4235143D01*
X5572143Y-4206571D01*
X5572143Y-4120857D01*
X5586429Y-4092286D01*
X5600714Y-4078000D01*
X5629286Y-4063714D01*
X5672143Y-4063714D01*
X5700714Y-4078000D01*
X5715000Y-4092286D01*
X5729286Y-4120857D01*
X5729286Y-4206571D01*
X5715000Y-4235143D01*
X5700714Y-4249429D01*
X5672143Y-4263714D01*
X5629286Y-4263714D01*
X5900714Y-4263714D02*
X5872143Y-4249429D01*
X5857857Y-4220857D01*
X5857857Y-3963714D01*
X6129286Y-4249429D02*
X6100714Y-4263714D01*
X6043571Y-4263714D01*
X6015000Y-4249429D01*
X6000714Y-4220857D01*
X6000714Y-4106571D01*
X6015000Y-4078000D01*
X6043571Y-4063714D01*
X6100714Y-4063714D01*
X6129286Y-4078000D01*
X6143571Y-4106571D01*
X6143571Y-4135143D01*
X6000714Y-4163714D01*
X6257857Y-4249429D02*
X6286428Y-4263714D01*
X6343571Y-4263714D01*
X6372143Y-4249429D01*
X6386428Y-4220857D01*
X6386428Y-4206571D01*
X6372143Y-4178000D01*
X6343571Y-4163714D01*
X6300714Y-4163714D01*
X6272143Y-4149428D01*
X6257857Y-4120857D01*
X6257857Y-4106571D01*
X6272143Y-4078000D01*
X6300714Y-4063714D01*
X6343571Y-4063714D01*
X6372143Y-4078000D01*
X6486428Y-4378000D02*
X6500714Y-4363714D01*
X6529286Y-4320857D01*
X6543571Y-4292286D01*
X6557857Y-4249429D01*
X6572143Y-4178000D01*
X6572143Y-4120857D01*
X6557857Y-4049428D01*
X6543571Y-4006571D01*
X6529286Y-3978000D01*
X6500714Y-3935143D01*
X6486428Y-3920857D01*
X-150000Y-4374000D02*
X-150000Y-4674000D01*
X-300000Y-4524000D02*
X0Y-4524000D01*
X0Y-4524000D02*
G75*
G03X0Y-4524000I-150000J0D01*
G01*
X257857Y-4359714D02*
X443571Y-4359714D01*
X343571Y-4474000D01*
X386428Y-4474000D01*
X415000Y-4488286D01*
X429286Y-4502571D01*
X443571Y-4531143D01*
X443571Y-4602571D01*
X429286Y-4631143D01*
X415000Y-4645429D01*
X386428Y-4659714D01*
X300714Y-4659714D01*
X272143Y-4645429D01*
X257857Y-4631143D01*
X572143Y-4631143D02*
X586429Y-4645429D01*
X572143Y-4659714D01*
X557857Y-4645429D01*
X572143Y-4631143D01*
X572143Y-4659714D01*
X772143Y-4359714D02*
X800714Y-4359714D01*
X829286Y-4374000D01*
X843571Y-4388286D01*
X857857Y-4416857D01*
X872143Y-4474000D01*
X872143Y-4545429D01*
X857857Y-4602571D01*
X843571Y-4631143D01*
X829286Y-4645429D01*
X800714Y-4659714D01*
X772143Y-4659714D01*
X743571Y-4645429D01*
X729286Y-4631143D01*
X715000Y-4602571D01*
X700714Y-4545429D01*
X700714Y-4474000D01*
X715000Y-4416857D01*
X729286Y-4388286D01*
X743571Y-4374000D01*
X772143Y-4359714D01*
X1057857Y-4359714D02*
X1086429Y-4359714D01*
X1115000Y-4374000D01*
X1129286Y-4388286D01*
X1143571Y-4416857D01*
X1157857Y-4474000D01*
X1157857Y-4545429D01*
X1143571Y-4602571D01*
X1129286Y-4631143D01*
X1115000Y-4645429D01*
X1086429Y-4659714D01*
X1057857Y-4659714D01*
X1029286Y-4645429D01*
X1015000Y-4631143D01*
X1000714Y-4602571D01*
X986428Y-4545429D01*
X986428Y-4474000D01*
X1000714Y-4416857D01*
X1015000Y-4388286D01*
X1029286Y-4374000D01*
X1057857Y-4359714D01*
X1286429Y-4659714D02*
X1286429Y-4459714D01*
X1286429Y-4488286D02*
X1300714Y-4474000D01*
X1329286Y-4459714D01*
X1372143Y-4459714D01*
X1400714Y-4474000D01*
X1415000Y-4502571D01*
X1415000Y-4659714D01*
X1415000Y-4502571D02*
X1429286Y-4474000D01*
X1457857Y-4459714D01*
X1500714Y-4459714D01*
X1529286Y-4474000D01*
X1543571Y-4502571D01*
X1543571Y-4659714D01*
X1686428Y-4659714D02*
X1686428Y-4459714D01*
X1686428Y-4488286D02*
X1700714Y-4474000D01*
X1729286Y-4459714D01*
X1772143Y-4459714D01*
X1800714Y-4474000D01*
X1815000Y-4502571D01*
X1815000Y-4659714D01*
X1815000Y-4502571D02*
X1829286Y-4474000D01*
X1857857Y-4459714D01*
X1900714Y-4459714D01*
X1929286Y-4474000D01*
X1943571Y-4502571D01*
X1943571Y-4659714D01*
X2529286Y-4345429D02*
X2272143Y-4731143D01*
X2915000Y-4359714D02*
X2943571Y-4359714D01*
X2972143Y-4374000D01*
X2986428Y-4388286D01*
X3000714Y-4416857D01*
X3015000Y-4474000D01*
X3015000Y-4545429D01*
X3000714Y-4602571D01*
X2986428Y-4631143D01*
X2972143Y-4645429D01*
X2943571Y-4659714D01*
X2915000Y-4659714D01*
X2886428Y-4645429D01*
X2872143Y-4631143D01*
X2857857Y-4602571D01*
X2843571Y-4545429D01*
X2843571Y-4474000D01*
X2857857Y-4416857D01*
X2872143Y-4388286D01*
X2886428Y-4374000D01*
X2915000Y-4359714D01*
X3143571Y-4631143D02*
X3157857Y-4645429D01*
X3143571Y-4659714D01*
X3129286Y-4645429D01*
X3143571Y-4631143D01*
X3143571Y-4659714D01*
X3443571Y-4659714D02*
X3272143Y-4659714D01*
X3357857Y-4659714D02*
X3357857Y-4359714D01*
X3329286Y-4402571D01*
X3300714Y-4431143D01*
X3272143Y-4445429D01*
X3729286Y-4659714D02*
X3557857Y-4659714D01*
X3643571Y-4659714D02*
X3643571Y-4359714D01*
X3615000Y-4402571D01*
X3586428Y-4431143D01*
X3557857Y-4445429D01*
X3900714Y-4488286D02*
X3872143Y-4474000D01*
X3857857Y-4459714D01*
X3843571Y-4431143D01*
X3843571Y-4416857D01*
X3857857Y-4388286D01*
X3872143Y-4374000D01*
X3900714Y-4359714D01*
X3957857Y-4359714D01*
X3986428Y-4374000D01*
X4000714Y-4388286D01*
X4015000Y-4416857D01*
X4015000Y-4431143D01*
X4000714Y-4459714D01*
X3986428Y-4474000D01*
X3957857Y-4488286D01*
X3900714Y-4488286D01*
X3872143Y-4502571D01*
X3857857Y-4516857D01*
X3843571Y-4545429D01*
X3843571Y-4602571D01*
X3857857Y-4631143D01*
X3872143Y-4645429D01*
X3900714Y-4659714D01*
X3957857Y-4659714D01*
X3986428Y-4645429D01*
X4000714Y-4631143D01*
X4015000Y-4602571D01*
X4015000Y-4545429D01*
X4000714Y-4516857D01*
X3986428Y-4502571D01*
X3957857Y-4488286D01*
X4129286Y-4359714D02*
X4129286Y-4416857D01*
X4243571Y-4359714D02*
X4243571Y-4416857D01*
X4686429Y-4774000D02*
X4672143Y-4759714D01*
X4643571Y-4716857D01*
X4629286Y-4688286D01*
X4615000Y-4645429D01*
X4600714Y-4574000D01*
X4600714Y-4516857D01*
X4615000Y-4445429D01*
X4629286Y-4402571D01*
X4643571Y-4374000D01*
X4672143Y-4331143D01*
X4686429Y-4316857D01*
X4929286Y-4459714D02*
X4929286Y-4659714D01*
X4857857Y-4345429D02*
X4786429Y-4559714D01*
X4972143Y-4559714D01*
X5315000Y-4659714D02*
X5315000Y-4359714D01*
X5443571Y-4659714D02*
X5443571Y-4502571D01*
X5429286Y-4474000D01*
X5400714Y-4459714D01*
X5357857Y-4459714D01*
X5329286Y-4474000D01*
X5315000Y-4488286D01*
X5629286Y-4659714D02*
X5600714Y-4645429D01*
X5586429Y-4631143D01*
X5572143Y-4602571D01*
X5572143Y-4516857D01*
X5586429Y-4488286D01*
X5600714Y-4474000D01*
X5629286Y-4459714D01*
X5672143Y-4459714D01*
X5700714Y-4474000D01*
X5715000Y-4488286D01*
X5729286Y-4516857D01*
X5729286Y-4602571D01*
X5715000Y-4631143D01*
X5700714Y-4645429D01*
X5672143Y-4659714D01*
X5629286Y-4659714D01*
X5900714Y-4659714D02*
X5872143Y-4645429D01*
X5857857Y-4616857D01*
X5857857Y-4359714D01*
X6129286Y-4645429D02*
X6100714Y-4659714D01*
X6043571Y-4659714D01*
X6015000Y-4645429D01*
X6000714Y-4616857D01*
X6000714Y-4502571D01*
X6015000Y-4474000D01*
X6043571Y-4459714D01*
X6100714Y-4459714D01*
X6129286Y-4474000D01*
X6143571Y-4502571D01*
X6143571Y-4531143D01*
X6000714Y-4559714D01*
X6257857Y-4645429D02*
X6286428Y-4659714D01*
X6343571Y-4659714D01*
X6372143Y-4645429D01*
X6386428Y-4616857D01*
X6386428Y-4602571D01*
X6372143Y-4574000D01*
X6343571Y-4559714D01*
X6300714Y-4559714D01*
X6272143Y-4545429D01*
X6257857Y-4516857D01*
X6257857Y-4502571D01*
X6272143Y-4474000D01*
X6300714Y-4459714D01*
X6343571Y-4459714D01*
X6372143Y-4474000D01*
X6486428Y-4774000D02*
X6500714Y-4759714D01*
X6529286Y-4716857D01*
X6543571Y-4688286D01*
X6557857Y-4645429D01*
X6572143Y-4574000D01*
X6572143Y-4516857D01*
X6557857Y-4445429D01*
X6543571Y-4402571D01*
X6529286Y-4374000D01*
X6500714Y-4331143D01*
X6486428Y-4316857D01*
M02*
