G04 #@! TF.GenerationSoftware,KiCad,Pcbnew,5.1.0-060a0da~80~ubuntu16.04.1*
G04 #@! TF.CreationDate,2019-03-26T00:44:10-06:00*
G04 #@! TF.ProjectId,ARES_PCB_1,41524553-5f50-4434-925f-312e6b696361,rev?*
G04 #@! TF.SameCoordinates,Original*
G04 #@! TF.FileFunction,Legend,Top*
G04 #@! TF.FilePolarity,Positive*
%FSLAX46Y46*%
G04 Gerber Fmt 4.6, Leading zero omitted, Abs format (unit mm)*
G04 Created by KiCad (PCBNEW 5.1.0-060a0da~80~ubuntu16.04.1) date 2019-03-26 00:44:10*
%MOMM*%
%LPD*%
G04 APERTURE LIST*
%ADD10C,0.120000*%
%ADD11C,0.150000*%
G04 APERTURE END LIST*
D10*
X134310000Y-49530000D02*
G75*
G03X134310000Y-49530000I-3500000J0D01*
G01*
X134310000Y-111760000D02*
G75*
G03X134310000Y-111760000I-3500000J0D01*
G01*
X73350000Y-111760000D02*
G75*
G03X73350000Y-111760000I-3500000J0D01*
G01*
X73350000Y-49530000D02*
G75*
G03X73350000Y-49530000I-3500000J0D01*
G01*
X74930000Y-38560000D02*
X74930000Y-37060000D01*
X72390000Y-34560000D02*
X65770000Y-34560000D01*
X64520000Y-37060000D02*
X64520000Y-38560000D01*
X65770000Y-41060000D02*
X72390000Y-41060000D01*
X72490000Y-95790000D02*
X69750000Y-95790000D01*
X69750000Y-95790000D02*
X69750000Y-102330000D01*
X69750000Y-102330000D02*
X72490000Y-102330000D01*
X72490000Y-102330000D02*
X72490000Y-95790000D01*
X71120000Y-95020000D02*
X71120000Y-95790000D01*
X71120000Y-103100000D02*
X71120000Y-102330000D01*
X82780000Y-87630000D02*
X82010000Y-87630000D01*
X74700000Y-87630000D02*
X75470000Y-87630000D01*
X82010000Y-86260000D02*
X75470000Y-86260000D01*
X82010000Y-89000000D02*
X82010000Y-86260000D01*
X75470000Y-89000000D02*
X82010000Y-89000000D01*
X75470000Y-86260000D02*
X75470000Y-89000000D01*
X119380000Y-89940000D02*
X119380000Y-90710000D01*
X119380000Y-98020000D02*
X119380000Y-97250000D01*
X118010000Y-90710000D02*
X118010000Y-97250000D01*
X120750000Y-90710000D02*
X118010000Y-90710000D01*
X120750000Y-97250000D02*
X120750000Y-90710000D01*
X118010000Y-97250000D02*
X120750000Y-97250000D01*
X96750000Y-49784000D02*
X95980000Y-49784000D01*
X88670000Y-49784000D02*
X89440000Y-49784000D01*
X95980000Y-48414000D02*
X89440000Y-48414000D01*
X95980000Y-51154000D02*
X95980000Y-48414000D01*
X89440000Y-51154000D02*
X95980000Y-51154000D01*
X89440000Y-48414000D02*
X89440000Y-51154000D01*
X138800000Y-31680000D02*
X136300000Y-31680000D01*
X138800000Y-34180000D02*
X138800000Y-31680000D01*
X131780000Y-33480000D02*
X131780000Y-31980000D01*
X130780000Y-33480000D02*
X131780000Y-33480000D01*
X137500000Y-33480000D02*
X137500000Y-31980000D01*
X138500000Y-33480000D02*
X137500000Y-33480000D01*
X131280000Y-34290000D02*
X130780000Y-34290000D01*
X131280000Y-35500000D02*
X131280000Y-34290000D01*
X138000000Y-35500000D02*
X131280000Y-35500000D01*
X138000000Y-34290000D02*
X138000000Y-35500000D01*
X138500000Y-34290000D02*
X138000000Y-34290000D01*
X130780000Y-36000000D02*
X138500000Y-36000000D01*
X130780000Y-31980000D02*
X130780000Y-36000000D01*
X138500000Y-31980000D02*
X130780000Y-31980000D01*
X138500000Y-36000000D02*
X138500000Y-31980000D01*
X137230000Y-71490000D02*
X137230000Y-68990000D01*
X134730000Y-71490000D02*
X137230000Y-71490000D01*
X135430000Y-59470000D02*
X136930000Y-59470000D01*
X135430000Y-58470000D02*
X135430000Y-59470000D01*
X135430000Y-70190000D02*
X136930000Y-70190000D01*
X135430000Y-71190000D02*
X135430000Y-70190000D01*
X134620000Y-58970000D02*
X134620000Y-58470000D01*
X133410000Y-58970000D02*
X134620000Y-58970000D01*
X133410000Y-70690000D02*
X133410000Y-58970000D01*
X134620000Y-70690000D02*
X133410000Y-70690000D01*
X134620000Y-71190000D02*
X134620000Y-70690000D01*
X132910000Y-58470000D02*
X132910000Y-71190000D01*
X136930000Y-58470000D02*
X132910000Y-58470000D01*
X136930000Y-71190000D02*
X136930000Y-58470000D01*
X132910000Y-71190000D02*
X136930000Y-71190000D01*
X137230000Y-82920000D02*
X137230000Y-80420000D01*
X134730000Y-82920000D02*
X137230000Y-82920000D01*
X135430000Y-70900000D02*
X136930000Y-70900000D01*
X135430000Y-69900000D02*
X135430000Y-70900000D01*
X135430000Y-81620000D02*
X136930000Y-81620000D01*
X135430000Y-82620000D02*
X135430000Y-81620000D01*
X134620000Y-70400000D02*
X134620000Y-69900000D01*
X133410000Y-70400000D02*
X134620000Y-70400000D01*
X133410000Y-82120000D02*
X133410000Y-70400000D01*
X134620000Y-82120000D02*
X133410000Y-82120000D01*
X134620000Y-82620000D02*
X134620000Y-82120000D01*
X132910000Y-69900000D02*
X132910000Y-82620000D01*
X136930000Y-69900000D02*
X132910000Y-69900000D01*
X136930000Y-82620000D02*
X136930000Y-69900000D01*
X132910000Y-82620000D02*
X136930000Y-82620000D01*
X132910000Y-105480000D02*
X136930000Y-105480000D01*
X136930000Y-105480000D02*
X136930000Y-92760000D01*
X136930000Y-92760000D02*
X132910000Y-92760000D01*
X132910000Y-92760000D02*
X132910000Y-105480000D01*
X134620000Y-105480000D02*
X134620000Y-104980000D01*
X134620000Y-104980000D02*
X133410000Y-104980000D01*
X133410000Y-104980000D02*
X133410000Y-93260000D01*
X133410000Y-93260000D02*
X134620000Y-93260000D01*
X134620000Y-93260000D02*
X134620000Y-92760000D01*
X135430000Y-105480000D02*
X135430000Y-104480000D01*
X135430000Y-104480000D02*
X136930000Y-104480000D01*
X135430000Y-92760000D02*
X135430000Y-93760000D01*
X135430000Y-93760000D02*
X136930000Y-93760000D01*
X134730000Y-105780000D02*
X137230000Y-105780000D01*
X137230000Y-105780000D02*
X137230000Y-103280000D01*
X63430000Y-92340000D02*
X63430000Y-94840000D01*
X65930000Y-92340000D02*
X63430000Y-92340000D01*
X65230000Y-104360000D02*
X63730000Y-104360000D01*
X65230000Y-105360000D02*
X65230000Y-104360000D01*
X65230000Y-93640000D02*
X63730000Y-93640000D01*
X65230000Y-92640000D02*
X65230000Y-93640000D01*
X66040000Y-104860000D02*
X66040000Y-105360000D01*
X67250000Y-104860000D02*
X66040000Y-104860000D01*
X67250000Y-93140000D02*
X67250000Y-104860000D01*
X66040000Y-93140000D02*
X67250000Y-93140000D01*
X66040000Y-92640000D02*
X66040000Y-93140000D01*
X67750000Y-105360000D02*
X67750000Y-92640000D01*
X63730000Y-105360000D02*
X67750000Y-105360000D01*
X63730000Y-92640000D02*
X63730000Y-105360000D01*
X67750000Y-92640000D02*
X63730000Y-92640000D01*
X98120000Y-31680000D02*
X95620000Y-31680000D01*
X98120000Y-34180000D02*
X98120000Y-31680000D01*
X91100000Y-33480000D02*
X91100000Y-31980000D01*
X90100000Y-33480000D02*
X91100000Y-33480000D01*
X96820000Y-33480000D02*
X96820000Y-31980000D01*
X97820000Y-33480000D02*
X96820000Y-33480000D01*
X90600000Y-34290000D02*
X90100000Y-34290000D01*
X90600000Y-35500000D02*
X90600000Y-34290000D01*
X97320000Y-35500000D02*
X90600000Y-35500000D01*
X97320000Y-34290000D02*
X97320000Y-35500000D01*
X97820000Y-34290000D02*
X97320000Y-34290000D01*
X90100000Y-36000000D02*
X97820000Y-36000000D01*
X90100000Y-31980000D02*
X90100000Y-36000000D01*
X97820000Y-31980000D02*
X90100000Y-31980000D01*
X97820000Y-36000000D02*
X97820000Y-31980000D01*
X137230000Y-94350000D02*
X137230000Y-91850000D01*
X134730000Y-94350000D02*
X137230000Y-94350000D01*
X135430000Y-82330000D02*
X136930000Y-82330000D01*
X135430000Y-81330000D02*
X135430000Y-82330000D01*
X135430000Y-93050000D02*
X136930000Y-93050000D01*
X135430000Y-94050000D02*
X135430000Y-93050000D01*
X134620000Y-81830000D02*
X134620000Y-81330000D01*
X133410000Y-81830000D02*
X134620000Y-81830000D01*
X133410000Y-93550000D02*
X133410000Y-81830000D01*
X134620000Y-93550000D02*
X133410000Y-93550000D01*
X134620000Y-94050000D02*
X134620000Y-93550000D01*
X132910000Y-81330000D02*
X132910000Y-94050000D01*
X136930000Y-81330000D02*
X132910000Y-81330000D01*
X136930000Y-94050000D02*
X136930000Y-81330000D01*
X132910000Y-94050000D02*
X136930000Y-94050000D01*
X63430000Y-80910000D02*
X63430000Y-83410000D01*
X65930000Y-80910000D02*
X63430000Y-80910000D01*
X65230000Y-92930000D02*
X63730000Y-92930000D01*
X65230000Y-93930000D02*
X65230000Y-92930000D01*
X65230000Y-82210000D02*
X63730000Y-82210000D01*
X65230000Y-81210000D02*
X65230000Y-82210000D01*
X66040000Y-93430000D02*
X66040000Y-93930000D01*
X67250000Y-93430000D02*
X66040000Y-93430000D01*
X67250000Y-81710000D02*
X67250000Y-93430000D01*
X66040000Y-81710000D02*
X67250000Y-81710000D01*
X66040000Y-81210000D02*
X66040000Y-81710000D01*
X67750000Y-93930000D02*
X67750000Y-81210000D01*
X63730000Y-93930000D02*
X67750000Y-93930000D01*
X63730000Y-81210000D02*
X63730000Y-93930000D01*
X67750000Y-81210000D02*
X63730000Y-81210000D01*
X63430000Y-69480000D02*
X63430000Y-71980000D01*
X65930000Y-69480000D02*
X63430000Y-69480000D01*
X65230000Y-81500000D02*
X63730000Y-81500000D01*
X65230000Y-82500000D02*
X65230000Y-81500000D01*
X65230000Y-70780000D02*
X63730000Y-70780000D01*
X65230000Y-69780000D02*
X65230000Y-70780000D01*
X66040000Y-82000000D02*
X66040000Y-82500000D01*
X67250000Y-82000000D02*
X66040000Y-82000000D01*
X67250000Y-70280000D02*
X67250000Y-82000000D01*
X66040000Y-70280000D02*
X67250000Y-70280000D01*
X66040000Y-69780000D02*
X66040000Y-70280000D01*
X67750000Y-82500000D02*
X67750000Y-69780000D01*
X63730000Y-82500000D02*
X67750000Y-82500000D01*
X63730000Y-69780000D02*
X63730000Y-82500000D01*
X67750000Y-69780000D02*
X63730000Y-69780000D01*
X63430000Y-58050000D02*
X63430000Y-60550000D01*
X65930000Y-58050000D02*
X63430000Y-58050000D01*
X65230000Y-70070000D02*
X63730000Y-70070000D01*
X65230000Y-71070000D02*
X65230000Y-70070000D01*
X65230000Y-59350000D02*
X63730000Y-59350000D01*
X65230000Y-58350000D02*
X65230000Y-59350000D01*
X66040000Y-70570000D02*
X66040000Y-71070000D01*
X67250000Y-70570000D02*
X66040000Y-70570000D01*
X67250000Y-58850000D02*
X67250000Y-70570000D01*
X66040000Y-58850000D02*
X67250000Y-58850000D01*
X66040000Y-58350000D02*
X66040000Y-58850000D01*
X67750000Y-71070000D02*
X67750000Y-58350000D01*
X63730000Y-71070000D02*
X67750000Y-71070000D01*
X63730000Y-58350000D02*
X63730000Y-71070000D01*
X67750000Y-58350000D02*
X63730000Y-58350000D01*
X73860199Y-92585000D02*
X73860199Y-92985000D01*
X73660199Y-92785000D02*
X74060199Y-92785000D01*
X78011000Y-93610000D02*
X78011000Y-94350000D01*
X77971000Y-93443000D02*
X77971000Y-94517000D01*
X77931000Y-93316000D02*
X77931000Y-94644000D01*
X77891000Y-93212000D02*
X77891000Y-94748000D01*
X77851000Y-93121000D02*
X77851000Y-94839000D01*
X77811000Y-93040000D02*
X77811000Y-94920000D01*
X77771000Y-92967000D02*
X77771000Y-94993000D01*
X77731000Y-94820000D02*
X77731000Y-95060000D01*
X77731000Y-92900000D02*
X77731000Y-93140000D01*
X77691000Y-94820000D02*
X77691000Y-95122000D01*
X77691000Y-92838000D02*
X77691000Y-93140000D01*
X77651000Y-94820000D02*
X77651000Y-95180000D01*
X77651000Y-92780000D02*
X77651000Y-93140000D01*
X77611000Y-94820000D02*
X77611000Y-95234000D01*
X77611000Y-92726000D02*
X77611000Y-93140000D01*
X77571000Y-94820000D02*
X77571000Y-95284000D01*
X77571000Y-92676000D02*
X77571000Y-93140000D01*
X77531000Y-94820000D02*
X77531000Y-95331000D01*
X77531000Y-92629000D02*
X77531000Y-93140000D01*
X77491000Y-94820000D02*
X77491000Y-95376000D01*
X77491000Y-92584000D02*
X77491000Y-93140000D01*
X77451000Y-94820000D02*
X77451000Y-95418000D01*
X77451000Y-92542000D02*
X77451000Y-93140000D01*
X77411000Y-94820000D02*
X77411000Y-95458000D01*
X77411000Y-92502000D02*
X77411000Y-93140000D01*
X77371000Y-94820000D02*
X77371000Y-95496000D01*
X77371000Y-92464000D02*
X77371000Y-93140000D01*
X77331000Y-94820000D02*
X77331000Y-95532000D01*
X77331000Y-92428000D02*
X77331000Y-93140000D01*
X77291000Y-94820000D02*
X77291000Y-95567000D01*
X77291000Y-92393000D02*
X77291000Y-93140000D01*
X77251000Y-94820000D02*
X77251000Y-95599000D01*
X77251000Y-92361000D02*
X77251000Y-93140000D01*
X77211000Y-94820000D02*
X77211000Y-95630000D01*
X77211000Y-92330000D02*
X77211000Y-93140000D01*
X77171000Y-94820000D02*
X77171000Y-95660000D01*
X77171000Y-92300000D02*
X77171000Y-93140000D01*
X77131000Y-94820000D02*
X77131000Y-95688000D01*
X77131000Y-92272000D02*
X77131000Y-93140000D01*
X77091000Y-94820000D02*
X77091000Y-95715000D01*
X77091000Y-92245000D02*
X77091000Y-93140000D01*
X77051000Y-94820000D02*
X77051000Y-95740000D01*
X77051000Y-92220000D02*
X77051000Y-93140000D01*
X77011000Y-94820000D02*
X77011000Y-95765000D01*
X77011000Y-92195000D02*
X77011000Y-93140000D01*
X76971000Y-94820000D02*
X76971000Y-95788000D01*
X76971000Y-92172000D02*
X76971000Y-93140000D01*
X76931000Y-94820000D02*
X76931000Y-95810000D01*
X76931000Y-92150000D02*
X76931000Y-93140000D01*
X76891000Y-94820000D02*
X76891000Y-95831000D01*
X76891000Y-92129000D02*
X76891000Y-93140000D01*
X76851000Y-94820000D02*
X76851000Y-95850000D01*
X76851000Y-92110000D02*
X76851000Y-93140000D01*
X76811000Y-94820000D02*
X76811000Y-95869000D01*
X76811000Y-92091000D02*
X76811000Y-93140000D01*
X76771000Y-94820000D02*
X76771000Y-95887000D01*
X76771000Y-92073000D02*
X76771000Y-93140000D01*
X76731000Y-94820000D02*
X76731000Y-95904000D01*
X76731000Y-92056000D02*
X76731000Y-93140000D01*
X76691000Y-94820000D02*
X76691000Y-95920000D01*
X76691000Y-92040000D02*
X76691000Y-93140000D01*
X76651000Y-94820000D02*
X76651000Y-95934000D01*
X76651000Y-92026000D02*
X76651000Y-93140000D01*
X76610000Y-94820000D02*
X76610000Y-95948000D01*
X76610000Y-92012000D02*
X76610000Y-93140000D01*
X76570000Y-94820000D02*
X76570000Y-95962000D01*
X76570000Y-91998000D02*
X76570000Y-93140000D01*
X76530000Y-94820000D02*
X76530000Y-95974000D01*
X76530000Y-91986000D02*
X76530000Y-93140000D01*
X76490000Y-94820000D02*
X76490000Y-95985000D01*
X76490000Y-91975000D02*
X76490000Y-93140000D01*
X76450000Y-94820000D02*
X76450000Y-95996000D01*
X76450000Y-91964000D02*
X76450000Y-93140000D01*
X76410000Y-94820000D02*
X76410000Y-96005000D01*
X76410000Y-91955000D02*
X76410000Y-93140000D01*
X76370000Y-94820000D02*
X76370000Y-96014000D01*
X76370000Y-91946000D02*
X76370000Y-93140000D01*
X76330000Y-94820000D02*
X76330000Y-96022000D01*
X76330000Y-91938000D02*
X76330000Y-93140000D01*
X76290000Y-94820000D02*
X76290000Y-96030000D01*
X76290000Y-91930000D02*
X76290000Y-93140000D01*
X76250000Y-94820000D02*
X76250000Y-96036000D01*
X76250000Y-91924000D02*
X76250000Y-93140000D01*
X76210000Y-94820000D02*
X76210000Y-96042000D01*
X76210000Y-91918000D02*
X76210000Y-93140000D01*
X76170000Y-94820000D02*
X76170000Y-96047000D01*
X76170000Y-91913000D02*
X76170000Y-93140000D01*
X76130000Y-94820000D02*
X76130000Y-96051000D01*
X76130000Y-91909000D02*
X76130000Y-93140000D01*
X76090000Y-91906000D02*
X76090000Y-96054000D01*
X76050000Y-91903000D02*
X76050000Y-96057000D01*
X76010000Y-91901000D02*
X76010000Y-96059000D01*
X75970000Y-91900000D02*
X75970000Y-96060000D01*
X75930000Y-91900000D02*
X75930000Y-96060000D01*
X78050000Y-93980000D02*
G75*
G03X78050000Y-93980000I-2120000J0D01*
G01*
X115695000Y-87830199D02*
X115295000Y-87830199D01*
X115495000Y-87630199D02*
X115495000Y-88030199D01*
X114670000Y-91981000D02*
X113930000Y-91981000D01*
X114837000Y-91941000D02*
X113763000Y-91941000D01*
X114964000Y-91901000D02*
X113636000Y-91901000D01*
X115068000Y-91861000D02*
X113532000Y-91861000D01*
X115159000Y-91821000D02*
X113441000Y-91821000D01*
X115240000Y-91781000D02*
X113360000Y-91781000D01*
X115313000Y-91741000D02*
X113287000Y-91741000D01*
X113460000Y-91701000D02*
X113220000Y-91701000D01*
X115380000Y-91701000D02*
X115140000Y-91701000D01*
X113460000Y-91661000D02*
X113158000Y-91661000D01*
X115442000Y-91661000D02*
X115140000Y-91661000D01*
X113460000Y-91621000D02*
X113100000Y-91621000D01*
X115500000Y-91621000D02*
X115140000Y-91621000D01*
X113460000Y-91581000D02*
X113046000Y-91581000D01*
X115554000Y-91581000D02*
X115140000Y-91581000D01*
X113460000Y-91541000D02*
X112996000Y-91541000D01*
X115604000Y-91541000D02*
X115140000Y-91541000D01*
X113460000Y-91501000D02*
X112949000Y-91501000D01*
X115651000Y-91501000D02*
X115140000Y-91501000D01*
X113460000Y-91461000D02*
X112904000Y-91461000D01*
X115696000Y-91461000D02*
X115140000Y-91461000D01*
X113460000Y-91421000D02*
X112862000Y-91421000D01*
X115738000Y-91421000D02*
X115140000Y-91421000D01*
X113460000Y-91381000D02*
X112822000Y-91381000D01*
X115778000Y-91381000D02*
X115140000Y-91381000D01*
X113460000Y-91341000D02*
X112784000Y-91341000D01*
X115816000Y-91341000D02*
X115140000Y-91341000D01*
X113460000Y-91301000D02*
X112748000Y-91301000D01*
X115852000Y-91301000D02*
X115140000Y-91301000D01*
X113460000Y-91261000D02*
X112713000Y-91261000D01*
X115887000Y-91261000D02*
X115140000Y-91261000D01*
X113460000Y-91221000D02*
X112681000Y-91221000D01*
X115919000Y-91221000D02*
X115140000Y-91221000D01*
X113460000Y-91181000D02*
X112650000Y-91181000D01*
X115950000Y-91181000D02*
X115140000Y-91181000D01*
X113460000Y-91141000D02*
X112620000Y-91141000D01*
X115980000Y-91141000D02*
X115140000Y-91141000D01*
X113460000Y-91101000D02*
X112592000Y-91101000D01*
X116008000Y-91101000D02*
X115140000Y-91101000D01*
X113460000Y-91061000D02*
X112565000Y-91061000D01*
X116035000Y-91061000D02*
X115140000Y-91061000D01*
X113460000Y-91021000D02*
X112540000Y-91021000D01*
X116060000Y-91021000D02*
X115140000Y-91021000D01*
X113460000Y-90981000D02*
X112515000Y-90981000D01*
X116085000Y-90981000D02*
X115140000Y-90981000D01*
X113460000Y-90941000D02*
X112492000Y-90941000D01*
X116108000Y-90941000D02*
X115140000Y-90941000D01*
X113460000Y-90901000D02*
X112470000Y-90901000D01*
X116130000Y-90901000D02*
X115140000Y-90901000D01*
X113460000Y-90861000D02*
X112449000Y-90861000D01*
X116151000Y-90861000D02*
X115140000Y-90861000D01*
X113460000Y-90821000D02*
X112430000Y-90821000D01*
X116170000Y-90821000D02*
X115140000Y-90821000D01*
X113460000Y-90781000D02*
X112411000Y-90781000D01*
X116189000Y-90781000D02*
X115140000Y-90781000D01*
X113460000Y-90741000D02*
X112393000Y-90741000D01*
X116207000Y-90741000D02*
X115140000Y-90741000D01*
X113460000Y-90701000D02*
X112376000Y-90701000D01*
X116224000Y-90701000D02*
X115140000Y-90701000D01*
X113460000Y-90661000D02*
X112360000Y-90661000D01*
X116240000Y-90661000D02*
X115140000Y-90661000D01*
X113460000Y-90621000D02*
X112346000Y-90621000D01*
X116254000Y-90621000D02*
X115140000Y-90621000D01*
X113460000Y-90580000D02*
X112332000Y-90580000D01*
X116268000Y-90580000D02*
X115140000Y-90580000D01*
X113460000Y-90540000D02*
X112318000Y-90540000D01*
X116282000Y-90540000D02*
X115140000Y-90540000D01*
X113460000Y-90500000D02*
X112306000Y-90500000D01*
X116294000Y-90500000D02*
X115140000Y-90500000D01*
X113460000Y-90460000D02*
X112295000Y-90460000D01*
X116305000Y-90460000D02*
X115140000Y-90460000D01*
X113460000Y-90420000D02*
X112284000Y-90420000D01*
X116316000Y-90420000D02*
X115140000Y-90420000D01*
X113460000Y-90380000D02*
X112275000Y-90380000D01*
X116325000Y-90380000D02*
X115140000Y-90380000D01*
X113460000Y-90340000D02*
X112266000Y-90340000D01*
X116334000Y-90340000D02*
X115140000Y-90340000D01*
X113460000Y-90300000D02*
X112258000Y-90300000D01*
X116342000Y-90300000D02*
X115140000Y-90300000D01*
X113460000Y-90260000D02*
X112250000Y-90260000D01*
X116350000Y-90260000D02*
X115140000Y-90260000D01*
X113460000Y-90220000D02*
X112244000Y-90220000D01*
X116356000Y-90220000D02*
X115140000Y-90220000D01*
X113460000Y-90180000D02*
X112238000Y-90180000D01*
X116362000Y-90180000D02*
X115140000Y-90180000D01*
X113460000Y-90140000D02*
X112233000Y-90140000D01*
X116367000Y-90140000D02*
X115140000Y-90140000D01*
X113460000Y-90100000D02*
X112229000Y-90100000D01*
X116371000Y-90100000D02*
X115140000Y-90100000D01*
X116374000Y-90060000D02*
X112226000Y-90060000D01*
X116377000Y-90020000D02*
X112223000Y-90020000D01*
X116379000Y-89980000D02*
X112221000Y-89980000D01*
X116380000Y-89940000D02*
X112220000Y-89940000D01*
X116380000Y-89900000D02*
X112220000Y-89900000D01*
X116420000Y-89900000D02*
G75*
G03X116420000Y-89900000I-2120000J0D01*
G01*
X97589801Y-46861000D02*
X97589801Y-46461000D01*
X97789801Y-46661000D02*
X97389801Y-46661000D01*
X93439000Y-45836000D02*
X93439000Y-45096000D01*
X93479000Y-46003000D02*
X93479000Y-44929000D01*
X93519000Y-46130000D02*
X93519000Y-44802000D01*
X93559000Y-46234000D02*
X93559000Y-44698000D01*
X93599000Y-46325000D02*
X93599000Y-44607000D01*
X93639000Y-46406000D02*
X93639000Y-44526000D01*
X93679000Y-46479000D02*
X93679000Y-44453000D01*
X93719000Y-44626000D02*
X93719000Y-44386000D01*
X93719000Y-46546000D02*
X93719000Y-46306000D01*
X93759000Y-44626000D02*
X93759000Y-44324000D01*
X93759000Y-46608000D02*
X93759000Y-46306000D01*
X93799000Y-44626000D02*
X93799000Y-44266000D01*
X93799000Y-46666000D02*
X93799000Y-46306000D01*
X93839000Y-44626000D02*
X93839000Y-44212000D01*
X93839000Y-46720000D02*
X93839000Y-46306000D01*
X93879000Y-44626000D02*
X93879000Y-44162000D01*
X93879000Y-46770000D02*
X93879000Y-46306000D01*
X93919000Y-44626000D02*
X93919000Y-44115000D01*
X93919000Y-46817000D02*
X93919000Y-46306000D01*
X93959000Y-44626000D02*
X93959000Y-44070000D01*
X93959000Y-46862000D02*
X93959000Y-46306000D01*
X93999000Y-44626000D02*
X93999000Y-44028000D01*
X93999000Y-46904000D02*
X93999000Y-46306000D01*
X94039000Y-44626000D02*
X94039000Y-43988000D01*
X94039000Y-46944000D02*
X94039000Y-46306000D01*
X94079000Y-44626000D02*
X94079000Y-43950000D01*
X94079000Y-46982000D02*
X94079000Y-46306000D01*
X94119000Y-44626000D02*
X94119000Y-43914000D01*
X94119000Y-47018000D02*
X94119000Y-46306000D01*
X94159000Y-44626000D02*
X94159000Y-43879000D01*
X94159000Y-47053000D02*
X94159000Y-46306000D01*
X94199000Y-44626000D02*
X94199000Y-43847000D01*
X94199000Y-47085000D02*
X94199000Y-46306000D01*
X94239000Y-44626000D02*
X94239000Y-43816000D01*
X94239000Y-47116000D02*
X94239000Y-46306000D01*
X94279000Y-44626000D02*
X94279000Y-43786000D01*
X94279000Y-47146000D02*
X94279000Y-46306000D01*
X94319000Y-44626000D02*
X94319000Y-43758000D01*
X94319000Y-47174000D02*
X94319000Y-46306000D01*
X94359000Y-44626000D02*
X94359000Y-43731000D01*
X94359000Y-47201000D02*
X94359000Y-46306000D01*
X94399000Y-44626000D02*
X94399000Y-43706000D01*
X94399000Y-47226000D02*
X94399000Y-46306000D01*
X94439000Y-44626000D02*
X94439000Y-43681000D01*
X94439000Y-47251000D02*
X94439000Y-46306000D01*
X94479000Y-44626000D02*
X94479000Y-43658000D01*
X94479000Y-47274000D02*
X94479000Y-46306000D01*
X94519000Y-44626000D02*
X94519000Y-43636000D01*
X94519000Y-47296000D02*
X94519000Y-46306000D01*
X94559000Y-44626000D02*
X94559000Y-43615000D01*
X94559000Y-47317000D02*
X94559000Y-46306000D01*
X94599000Y-44626000D02*
X94599000Y-43596000D01*
X94599000Y-47336000D02*
X94599000Y-46306000D01*
X94639000Y-44626000D02*
X94639000Y-43577000D01*
X94639000Y-47355000D02*
X94639000Y-46306000D01*
X94679000Y-44626000D02*
X94679000Y-43559000D01*
X94679000Y-47373000D02*
X94679000Y-46306000D01*
X94719000Y-44626000D02*
X94719000Y-43542000D01*
X94719000Y-47390000D02*
X94719000Y-46306000D01*
X94759000Y-44626000D02*
X94759000Y-43526000D01*
X94759000Y-47406000D02*
X94759000Y-46306000D01*
X94799000Y-44626000D02*
X94799000Y-43512000D01*
X94799000Y-47420000D02*
X94799000Y-46306000D01*
X94840000Y-44626000D02*
X94840000Y-43498000D01*
X94840000Y-47434000D02*
X94840000Y-46306000D01*
X94880000Y-44626000D02*
X94880000Y-43484000D01*
X94880000Y-47448000D02*
X94880000Y-46306000D01*
X94920000Y-44626000D02*
X94920000Y-43472000D01*
X94920000Y-47460000D02*
X94920000Y-46306000D01*
X94960000Y-44626000D02*
X94960000Y-43461000D01*
X94960000Y-47471000D02*
X94960000Y-46306000D01*
X95000000Y-44626000D02*
X95000000Y-43450000D01*
X95000000Y-47482000D02*
X95000000Y-46306000D01*
X95040000Y-44626000D02*
X95040000Y-43441000D01*
X95040000Y-47491000D02*
X95040000Y-46306000D01*
X95080000Y-44626000D02*
X95080000Y-43432000D01*
X95080000Y-47500000D02*
X95080000Y-46306000D01*
X95120000Y-44626000D02*
X95120000Y-43424000D01*
X95120000Y-47508000D02*
X95120000Y-46306000D01*
X95160000Y-44626000D02*
X95160000Y-43416000D01*
X95160000Y-47516000D02*
X95160000Y-46306000D01*
X95200000Y-44626000D02*
X95200000Y-43410000D01*
X95200000Y-47522000D02*
X95200000Y-46306000D01*
X95240000Y-44626000D02*
X95240000Y-43404000D01*
X95240000Y-47528000D02*
X95240000Y-46306000D01*
X95280000Y-44626000D02*
X95280000Y-43399000D01*
X95280000Y-47533000D02*
X95280000Y-46306000D01*
X95320000Y-44626000D02*
X95320000Y-43395000D01*
X95320000Y-47537000D02*
X95320000Y-46306000D01*
X95360000Y-47540000D02*
X95360000Y-43392000D01*
X95400000Y-47543000D02*
X95400000Y-43389000D01*
X95440000Y-47545000D02*
X95440000Y-43387000D01*
X95480000Y-47546000D02*
X95480000Y-43386000D01*
X95520000Y-47546000D02*
X95520000Y-43386000D01*
X97640000Y-45466000D02*
G75*
G03X97640000Y-45466000I-2120000J0D01*
G01*
X80135000Y-35760199D02*
X79735000Y-35760199D01*
X79935000Y-35560199D02*
X79935000Y-35960199D01*
X79110000Y-39911000D02*
X78370000Y-39911000D01*
X79277000Y-39871000D02*
X78203000Y-39871000D01*
X79404000Y-39831000D02*
X78076000Y-39831000D01*
X79508000Y-39791000D02*
X77972000Y-39791000D01*
X79599000Y-39751000D02*
X77881000Y-39751000D01*
X79680000Y-39711000D02*
X77800000Y-39711000D01*
X79753000Y-39671000D02*
X77727000Y-39671000D01*
X77900000Y-39631000D02*
X77660000Y-39631000D01*
X79820000Y-39631000D02*
X79580000Y-39631000D01*
X77900000Y-39591000D02*
X77598000Y-39591000D01*
X79882000Y-39591000D02*
X79580000Y-39591000D01*
X77900000Y-39551000D02*
X77540000Y-39551000D01*
X79940000Y-39551000D02*
X79580000Y-39551000D01*
X77900000Y-39511000D02*
X77486000Y-39511000D01*
X79994000Y-39511000D02*
X79580000Y-39511000D01*
X77900000Y-39471000D02*
X77436000Y-39471000D01*
X80044000Y-39471000D02*
X79580000Y-39471000D01*
X77900000Y-39431000D02*
X77389000Y-39431000D01*
X80091000Y-39431000D02*
X79580000Y-39431000D01*
X77900000Y-39391000D02*
X77344000Y-39391000D01*
X80136000Y-39391000D02*
X79580000Y-39391000D01*
X77900000Y-39351000D02*
X77302000Y-39351000D01*
X80178000Y-39351000D02*
X79580000Y-39351000D01*
X77900000Y-39311000D02*
X77262000Y-39311000D01*
X80218000Y-39311000D02*
X79580000Y-39311000D01*
X77900000Y-39271000D02*
X77224000Y-39271000D01*
X80256000Y-39271000D02*
X79580000Y-39271000D01*
X77900000Y-39231000D02*
X77188000Y-39231000D01*
X80292000Y-39231000D02*
X79580000Y-39231000D01*
X77900000Y-39191000D02*
X77153000Y-39191000D01*
X80327000Y-39191000D02*
X79580000Y-39191000D01*
X77900000Y-39151000D02*
X77121000Y-39151000D01*
X80359000Y-39151000D02*
X79580000Y-39151000D01*
X77900000Y-39111000D02*
X77090000Y-39111000D01*
X80390000Y-39111000D02*
X79580000Y-39111000D01*
X77900000Y-39071000D02*
X77060000Y-39071000D01*
X80420000Y-39071000D02*
X79580000Y-39071000D01*
X77900000Y-39031000D02*
X77032000Y-39031000D01*
X80448000Y-39031000D02*
X79580000Y-39031000D01*
X77900000Y-38991000D02*
X77005000Y-38991000D01*
X80475000Y-38991000D02*
X79580000Y-38991000D01*
X77900000Y-38951000D02*
X76980000Y-38951000D01*
X80500000Y-38951000D02*
X79580000Y-38951000D01*
X77900000Y-38911000D02*
X76955000Y-38911000D01*
X80525000Y-38911000D02*
X79580000Y-38911000D01*
X77900000Y-38871000D02*
X76932000Y-38871000D01*
X80548000Y-38871000D02*
X79580000Y-38871000D01*
X77900000Y-38831000D02*
X76910000Y-38831000D01*
X80570000Y-38831000D02*
X79580000Y-38831000D01*
X77900000Y-38791000D02*
X76889000Y-38791000D01*
X80591000Y-38791000D02*
X79580000Y-38791000D01*
X77900000Y-38751000D02*
X76870000Y-38751000D01*
X80610000Y-38751000D02*
X79580000Y-38751000D01*
X77900000Y-38711000D02*
X76851000Y-38711000D01*
X80629000Y-38711000D02*
X79580000Y-38711000D01*
X77900000Y-38671000D02*
X76833000Y-38671000D01*
X80647000Y-38671000D02*
X79580000Y-38671000D01*
X77900000Y-38631000D02*
X76816000Y-38631000D01*
X80664000Y-38631000D02*
X79580000Y-38631000D01*
X77900000Y-38591000D02*
X76800000Y-38591000D01*
X80680000Y-38591000D02*
X79580000Y-38591000D01*
X77900000Y-38551000D02*
X76786000Y-38551000D01*
X80694000Y-38551000D02*
X79580000Y-38551000D01*
X77900000Y-38510000D02*
X76772000Y-38510000D01*
X80708000Y-38510000D02*
X79580000Y-38510000D01*
X77900000Y-38470000D02*
X76758000Y-38470000D01*
X80722000Y-38470000D02*
X79580000Y-38470000D01*
X77900000Y-38430000D02*
X76746000Y-38430000D01*
X80734000Y-38430000D02*
X79580000Y-38430000D01*
X77900000Y-38390000D02*
X76735000Y-38390000D01*
X80745000Y-38390000D02*
X79580000Y-38390000D01*
X77900000Y-38350000D02*
X76724000Y-38350000D01*
X80756000Y-38350000D02*
X79580000Y-38350000D01*
X77900000Y-38310000D02*
X76715000Y-38310000D01*
X80765000Y-38310000D02*
X79580000Y-38310000D01*
X77900000Y-38270000D02*
X76706000Y-38270000D01*
X80774000Y-38270000D02*
X79580000Y-38270000D01*
X77900000Y-38230000D02*
X76698000Y-38230000D01*
X80782000Y-38230000D02*
X79580000Y-38230000D01*
X77900000Y-38190000D02*
X76690000Y-38190000D01*
X80790000Y-38190000D02*
X79580000Y-38190000D01*
X77900000Y-38150000D02*
X76684000Y-38150000D01*
X80796000Y-38150000D02*
X79580000Y-38150000D01*
X77900000Y-38110000D02*
X76678000Y-38110000D01*
X80802000Y-38110000D02*
X79580000Y-38110000D01*
X77900000Y-38070000D02*
X76673000Y-38070000D01*
X80807000Y-38070000D02*
X79580000Y-38070000D01*
X77900000Y-38030000D02*
X76669000Y-38030000D01*
X80811000Y-38030000D02*
X79580000Y-38030000D01*
X80814000Y-37990000D02*
X76666000Y-37990000D01*
X80817000Y-37950000D02*
X76663000Y-37950000D01*
X80819000Y-37910000D02*
X76661000Y-37910000D01*
X80820000Y-37870000D02*
X76660000Y-37870000D01*
X80820000Y-37830000D02*
X76660000Y-37830000D01*
X80860000Y-37830000D02*
G75*
G03X80860000Y-37830000I-2120000J0D01*
G01*
X106390000Y-52010000D02*
X101330000Y-52010000D01*
X106390000Y-102930000D02*
X106390000Y-52010000D01*
X94270000Y-102930000D02*
X106390000Y-102930000D01*
X94270000Y-52010000D02*
X94270000Y-102930000D01*
X99330000Y-52010000D02*
X94270000Y-52010000D01*
X101330000Y-52010000D02*
G75*
G02X99330000Y-52010000I-1000000J0D01*
G01*
D11*
X99390000Y-44785000D02*
X99390000Y-46385000D01*
X109465000Y-44785000D02*
X109465000Y-39035000D01*
X98815000Y-44785000D02*
X98815000Y-39035000D01*
X109465000Y-44785000D02*
X108815000Y-44785000D01*
X109465000Y-39035000D02*
X108815000Y-39035000D01*
X98815000Y-39035000D02*
X99465000Y-39035000D01*
X98815000Y-44785000D02*
X99390000Y-44785000D01*
D10*
X121690000Y-60960000D02*
X122460000Y-60960000D01*
X129770000Y-60960000D02*
X129000000Y-60960000D01*
X122460000Y-62330000D02*
X129000000Y-62330000D01*
X122460000Y-59590000D02*
X122460000Y-62330000D01*
X129000000Y-59590000D02*
X122460000Y-59590000D01*
X129000000Y-62330000D02*
X129000000Y-59590000D01*
X121690000Y-63500000D02*
X122460000Y-63500000D01*
X129770000Y-63500000D02*
X129000000Y-63500000D01*
X122460000Y-64870000D02*
X129000000Y-64870000D01*
X122460000Y-62130000D02*
X122460000Y-64870000D01*
X129000000Y-62130000D02*
X122460000Y-62130000D01*
X129000000Y-64870000D02*
X129000000Y-62130000D01*
X121690000Y-66040000D02*
X122460000Y-66040000D01*
X129770000Y-66040000D02*
X129000000Y-66040000D01*
X122460000Y-67410000D02*
X129000000Y-67410000D01*
X122460000Y-64670000D02*
X122460000Y-67410000D01*
X129000000Y-64670000D02*
X122460000Y-64670000D01*
X129000000Y-67410000D02*
X129000000Y-64670000D01*
X121690000Y-68580000D02*
X122460000Y-68580000D01*
X129770000Y-68580000D02*
X129000000Y-68580000D01*
X122460000Y-69950000D02*
X129000000Y-69950000D01*
X122460000Y-67210000D02*
X122460000Y-69950000D01*
X129000000Y-67210000D02*
X122460000Y-67210000D01*
X129000000Y-69950000D02*
X129000000Y-67210000D01*
X121690000Y-72390000D02*
X122460000Y-72390000D01*
X129770000Y-72390000D02*
X129000000Y-72390000D01*
X122460000Y-73760000D02*
X129000000Y-73760000D01*
X122460000Y-71020000D02*
X122460000Y-73760000D01*
X129000000Y-71020000D02*
X122460000Y-71020000D01*
X129000000Y-73760000D02*
X129000000Y-71020000D01*
X121690000Y-74930000D02*
X122460000Y-74930000D01*
X129770000Y-74930000D02*
X129000000Y-74930000D01*
X122460000Y-76300000D02*
X129000000Y-76300000D01*
X122460000Y-73560000D02*
X122460000Y-76300000D01*
X129000000Y-73560000D02*
X122460000Y-73560000D01*
X129000000Y-76300000D02*
X129000000Y-73560000D01*
X121690000Y-77470000D02*
X122460000Y-77470000D01*
X129770000Y-77470000D02*
X129000000Y-77470000D01*
X122460000Y-78840000D02*
X129000000Y-78840000D01*
X122460000Y-76100000D02*
X122460000Y-78840000D01*
X129000000Y-76100000D02*
X122460000Y-76100000D01*
X129000000Y-78840000D02*
X129000000Y-76100000D01*
X121690000Y-80010000D02*
X122460000Y-80010000D01*
X129770000Y-80010000D02*
X129000000Y-80010000D01*
X122460000Y-81380000D02*
X129000000Y-81380000D01*
X122460000Y-78640000D02*
X122460000Y-81380000D01*
X129000000Y-78640000D02*
X122460000Y-78640000D01*
X129000000Y-81380000D02*
X129000000Y-78640000D01*
X111530000Y-45720000D02*
X112300000Y-45720000D01*
X119610000Y-45720000D02*
X118840000Y-45720000D01*
X112300000Y-47090000D02*
X118840000Y-47090000D01*
X112300000Y-44350000D02*
X112300000Y-47090000D01*
X118840000Y-44350000D02*
X112300000Y-44350000D01*
X118840000Y-47090000D02*
X118840000Y-44350000D01*
X80010000Y-53570000D02*
X80010000Y-52800000D01*
X80010000Y-45490000D02*
X80010000Y-46260000D01*
X81380000Y-52800000D02*
X81380000Y-46260000D01*
X78640000Y-52800000D02*
X81380000Y-52800000D01*
X78640000Y-46260000D02*
X78640000Y-52800000D01*
X81380000Y-46260000D02*
X78640000Y-46260000D01*
X114300000Y-43410000D02*
X114300000Y-42640000D01*
X114300000Y-35330000D02*
X114300000Y-36100000D01*
X115670000Y-42640000D02*
X115670000Y-36100000D01*
X112930000Y-42640000D02*
X115670000Y-42640000D01*
X112930000Y-36100000D02*
X112930000Y-42640000D01*
X115670000Y-36100000D02*
X112930000Y-36100000D01*
X83820000Y-53570000D02*
X83820000Y-52800000D01*
X83820000Y-45490000D02*
X83820000Y-46260000D01*
X85190000Y-52800000D02*
X85190000Y-46260000D01*
X82450000Y-52800000D02*
X85190000Y-52800000D01*
X82450000Y-46260000D02*
X82450000Y-52800000D01*
X85190000Y-46260000D02*
X82450000Y-46260000D01*
X78970000Y-80010000D02*
X78200000Y-80010000D01*
X70890000Y-80010000D02*
X71660000Y-80010000D01*
X78200000Y-78640000D02*
X71660000Y-78640000D01*
X78200000Y-81380000D02*
X78200000Y-78640000D01*
X71660000Y-81380000D02*
X78200000Y-81380000D01*
X71660000Y-78640000D02*
X71660000Y-81380000D01*
X78970000Y-77470000D02*
X78200000Y-77470000D01*
X70890000Y-77470000D02*
X71660000Y-77470000D01*
X78200000Y-76100000D02*
X71660000Y-76100000D01*
X78200000Y-78840000D02*
X78200000Y-76100000D01*
X71660000Y-78840000D02*
X78200000Y-78840000D01*
X71660000Y-76100000D02*
X71660000Y-78840000D01*
X78970000Y-74930000D02*
X78200000Y-74930000D01*
X70890000Y-74930000D02*
X71660000Y-74930000D01*
X78200000Y-73560000D02*
X71660000Y-73560000D01*
X78200000Y-76300000D02*
X78200000Y-73560000D01*
X71660000Y-76300000D02*
X78200000Y-76300000D01*
X71660000Y-73560000D02*
X71660000Y-76300000D01*
X78970000Y-72390000D02*
X78200000Y-72390000D01*
X70890000Y-72390000D02*
X71660000Y-72390000D01*
X78200000Y-71020000D02*
X71660000Y-71020000D01*
X78200000Y-73760000D02*
X78200000Y-71020000D01*
X71660000Y-73760000D02*
X78200000Y-73760000D01*
X71660000Y-71020000D02*
X71660000Y-73760000D01*
X78970000Y-68580000D02*
X78200000Y-68580000D01*
X70890000Y-68580000D02*
X71660000Y-68580000D01*
X78200000Y-67210000D02*
X71660000Y-67210000D01*
X78200000Y-69950000D02*
X78200000Y-67210000D01*
X71660000Y-69950000D02*
X78200000Y-69950000D01*
X71660000Y-67210000D02*
X71660000Y-69950000D01*
X71660000Y-64670000D02*
X71660000Y-67410000D01*
X71660000Y-67410000D02*
X78200000Y-67410000D01*
X78200000Y-67410000D02*
X78200000Y-64670000D01*
X78200000Y-64670000D02*
X71660000Y-64670000D01*
X70890000Y-66040000D02*
X71660000Y-66040000D01*
X78970000Y-66040000D02*
X78200000Y-66040000D01*
X78970000Y-63500000D02*
X78200000Y-63500000D01*
X70890000Y-63500000D02*
X71660000Y-63500000D01*
X78200000Y-62130000D02*
X71660000Y-62130000D01*
X78200000Y-64870000D02*
X78200000Y-62130000D01*
X71660000Y-64870000D02*
X78200000Y-64870000D01*
X71660000Y-62130000D02*
X71660000Y-64870000D01*
X78970000Y-60960000D02*
X78200000Y-60960000D01*
X70890000Y-60960000D02*
X71660000Y-60960000D01*
X78200000Y-59590000D02*
X71660000Y-59590000D01*
X78200000Y-62330000D02*
X78200000Y-59590000D01*
X71660000Y-62330000D02*
X78200000Y-62330000D01*
X71660000Y-59590000D02*
X71660000Y-62330000D01*
X113920000Y-51242000D02*
X114970000Y-51242000D01*
X113920000Y-49442000D02*
X113920000Y-51242000D01*
X117220000Y-51242000D02*
X116170000Y-51242000D01*
X117220000Y-48842000D02*
X117220000Y-51242000D01*
D11*
X126730000Y-44860000D02*
X124730000Y-44860000D01*
X120280000Y-32385000D02*
X120280000Y-41835000D01*
X128580000Y-32385000D02*
X120280000Y-32385000D01*
X128580000Y-41835000D02*
X128580000Y-32385000D01*
X120280000Y-44560000D02*
X120280000Y-44085000D01*
X128580000Y-44560000D02*
X120280000Y-44560000D01*
X128580000Y-44085000D02*
X128580000Y-44560000D01*
D10*
X126490000Y-46555199D02*
X126090000Y-46555199D01*
X126290000Y-46355199D02*
X126290000Y-46755199D01*
X125465000Y-50706000D02*
X124725000Y-50706000D01*
X125632000Y-50666000D02*
X124558000Y-50666000D01*
X125759000Y-50626000D02*
X124431000Y-50626000D01*
X125863000Y-50586000D02*
X124327000Y-50586000D01*
X125954000Y-50546000D02*
X124236000Y-50546000D01*
X126035000Y-50506000D02*
X124155000Y-50506000D01*
X126108000Y-50466000D02*
X124082000Y-50466000D01*
X124255000Y-50426000D02*
X124015000Y-50426000D01*
X126175000Y-50426000D02*
X125935000Y-50426000D01*
X124255000Y-50386000D02*
X123953000Y-50386000D01*
X126237000Y-50386000D02*
X125935000Y-50386000D01*
X124255000Y-50346000D02*
X123895000Y-50346000D01*
X126295000Y-50346000D02*
X125935000Y-50346000D01*
X124255000Y-50306000D02*
X123841000Y-50306000D01*
X126349000Y-50306000D02*
X125935000Y-50306000D01*
X124255000Y-50266000D02*
X123791000Y-50266000D01*
X126399000Y-50266000D02*
X125935000Y-50266000D01*
X124255000Y-50226000D02*
X123744000Y-50226000D01*
X126446000Y-50226000D02*
X125935000Y-50226000D01*
X124255000Y-50186000D02*
X123699000Y-50186000D01*
X126491000Y-50186000D02*
X125935000Y-50186000D01*
X124255000Y-50146000D02*
X123657000Y-50146000D01*
X126533000Y-50146000D02*
X125935000Y-50146000D01*
X124255000Y-50106000D02*
X123617000Y-50106000D01*
X126573000Y-50106000D02*
X125935000Y-50106000D01*
X124255000Y-50066000D02*
X123579000Y-50066000D01*
X126611000Y-50066000D02*
X125935000Y-50066000D01*
X124255000Y-50026000D02*
X123543000Y-50026000D01*
X126647000Y-50026000D02*
X125935000Y-50026000D01*
X124255000Y-49986000D02*
X123508000Y-49986000D01*
X126682000Y-49986000D02*
X125935000Y-49986000D01*
X124255000Y-49946000D02*
X123476000Y-49946000D01*
X126714000Y-49946000D02*
X125935000Y-49946000D01*
X124255000Y-49906000D02*
X123445000Y-49906000D01*
X126745000Y-49906000D02*
X125935000Y-49906000D01*
X124255000Y-49866000D02*
X123415000Y-49866000D01*
X126775000Y-49866000D02*
X125935000Y-49866000D01*
X124255000Y-49826000D02*
X123387000Y-49826000D01*
X126803000Y-49826000D02*
X125935000Y-49826000D01*
X124255000Y-49786000D02*
X123360000Y-49786000D01*
X126830000Y-49786000D02*
X125935000Y-49786000D01*
X124255000Y-49746000D02*
X123335000Y-49746000D01*
X126855000Y-49746000D02*
X125935000Y-49746000D01*
X124255000Y-49706000D02*
X123310000Y-49706000D01*
X126880000Y-49706000D02*
X125935000Y-49706000D01*
X124255000Y-49666000D02*
X123287000Y-49666000D01*
X126903000Y-49666000D02*
X125935000Y-49666000D01*
X124255000Y-49626000D02*
X123265000Y-49626000D01*
X126925000Y-49626000D02*
X125935000Y-49626000D01*
X124255000Y-49586000D02*
X123244000Y-49586000D01*
X126946000Y-49586000D02*
X125935000Y-49586000D01*
X124255000Y-49546000D02*
X123225000Y-49546000D01*
X126965000Y-49546000D02*
X125935000Y-49546000D01*
X124255000Y-49506000D02*
X123206000Y-49506000D01*
X126984000Y-49506000D02*
X125935000Y-49506000D01*
X124255000Y-49466000D02*
X123188000Y-49466000D01*
X127002000Y-49466000D02*
X125935000Y-49466000D01*
X124255000Y-49426000D02*
X123171000Y-49426000D01*
X127019000Y-49426000D02*
X125935000Y-49426000D01*
X124255000Y-49386000D02*
X123155000Y-49386000D01*
X127035000Y-49386000D02*
X125935000Y-49386000D01*
X124255000Y-49346000D02*
X123141000Y-49346000D01*
X127049000Y-49346000D02*
X125935000Y-49346000D01*
X124255000Y-49305000D02*
X123127000Y-49305000D01*
X127063000Y-49305000D02*
X125935000Y-49305000D01*
X124255000Y-49265000D02*
X123113000Y-49265000D01*
X127077000Y-49265000D02*
X125935000Y-49265000D01*
X124255000Y-49225000D02*
X123101000Y-49225000D01*
X127089000Y-49225000D02*
X125935000Y-49225000D01*
X124255000Y-49185000D02*
X123090000Y-49185000D01*
X127100000Y-49185000D02*
X125935000Y-49185000D01*
X124255000Y-49145000D02*
X123079000Y-49145000D01*
X127111000Y-49145000D02*
X125935000Y-49145000D01*
X124255000Y-49105000D02*
X123070000Y-49105000D01*
X127120000Y-49105000D02*
X125935000Y-49105000D01*
X124255000Y-49065000D02*
X123061000Y-49065000D01*
X127129000Y-49065000D02*
X125935000Y-49065000D01*
X124255000Y-49025000D02*
X123053000Y-49025000D01*
X127137000Y-49025000D02*
X125935000Y-49025000D01*
X124255000Y-48985000D02*
X123045000Y-48985000D01*
X127145000Y-48985000D02*
X125935000Y-48985000D01*
X124255000Y-48945000D02*
X123039000Y-48945000D01*
X127151000Y-48945000D02*
X125935000Y-48945000D01*
X124255000Y-48905000D02*
X123033000Y-48905000D01*
X127157000Y-48905000D02*
X125935000Y-48905000D01*
X124255000Y-48865000D02*
X123028000Y-48865000D01*
X127162000Y-48865000D02*
X125935000Y-48865000D01*
X124255000Y-48825000D02*
X123024000Y-48825000D01*
X127166000Y-48825000D02*
X125935000Y-48825000D01*
X127169000Y-48785000D02*
X123021000Y-48785000D01*
X127172000Y-48745000D02*
X123018000Y-48745000D01*
X127174000Y-48705000D02*
X123016000Y-48705000D01*
X127175000Y-48665000D02*
X123015000Y-48665000D01*
X127175000Y-48625000D02*
X123015000Y-48625000D01*
X127215000Y-48625000D02*
G75*
G03X127215000Y-48625000I-2120000J0D01*
G01*
X116639801Y-81405000D02*
X116639801Y-81005000D01*
X116839801Y-81205000D02*
X116439801Y-81205000D01*
X112489000Y-80380000D02*
X112489000Y-79640000D01*
X112529000Y-80547000D02*
X112529000Y-79473000D01*
X112569000Y-80674000D02*
X112569000Y-79346000D01*
X112609000Y-80778000D02*
X112609000Y-79242000D01*
X112649000Y-80869000D02*
X112649000Y-79151000D01*
X112689000Y-80950000D02*
X112689000Y-79070000D01*
X112729000Y-81023000D02*
X112729000Y-78997000D01*
X112769000Y-79170000D02*
X112769000Y-78930000D01*
X112769000Y-81090000D02*
X112769000Y-80850000D01*
X112809000Y-79170000D02*
X112809000Y-78868000D01*
X112809000Y-81152000D02*
X112809000Y-80850000D01*
X112849000Y-79170000D02*
X112849000Y-78810000D01*
X112849000Y-81210000D02*
X112849000Y-80850000D01*
X112889000Y-79170000D02*
X112889000Y-78756000D01*
X112889000Y-81264000D02*
X112889000Y-80850000D01*
X112929000Y-79170000D02*
X112929000Y-78706000D01*
X112929000Y-81314000D02*
X112929000Y-80850000D01*
X112969000Y-79170000D02*
X112969000Y-78659000D01*
X112969000Y-81361000D02*
X112969000Y-80850000D01*
X113009000Y-79170000D02*
X113009000Y-78614000D01*
X113009000Y-81406000D02*
X113009000Y-80850000D01*
X113049000Y-79170000D02*
X113049000Y-78572000D01*
X113049000Y-81448000D02*
X113049000Y-80850000D01*
X113089000Y-79170000D02*
X113089000Y-78532000D01*
X113089000Y-81488000D02*
X113089000Y-80850000D01*
X113129000Y-79170000D02*
X113129000Y-78494000D01*
X113129000Y-81526000D02*
X113129000Y-80850000D01*
X113169000Y-79170000D02*
X113169000Y-78458000D01*
X113169000Y-81562000D02*
X113169000Y-80850000D01*
X113209000Y-79170000D02*
X113209000Y-78423000D01*
X113209000Y-81597000D02*
X113209000Y-80850000D01*
X113249000Y-79170000D02*
X113249000Y-78391000D01*
X113249000Y-81629000D02*
X113249000Y-80850000D01*
X113289000Y-79170000D02*
X113289000Y-78360000D01*
X113289000Y-81660000D02*
X113289000Y-80850000D01*
X113329000Y-79170000D02*
X113329000Y-78330000D01*
X113329000Y-81690000D02*
X113329000Y-80850000D01*
X113369000Y-79170000D02*
X113369000Y-78302000D01*
X113369000Y-81718000D02*
X113369000Y-80850000D01*
X113409000Y-79170000D02*
X113409000Y-78275000D01*
X113409000Y-81745000D02*
X113409000Y-80850000D01*
X113449000Y-79170000D02*
X113449000Y-78250000D01*
X113449000Y-81770000D02*
X113449000Y-80850000D01*
X113489000Y-79170000D02*
X113489000Y-78225000D01*
X113489000Y-81795000D02*
X113489000Y-80850000D01*
X113529000Y-79170000D02*
X113529000Y-78202000D01*
X113529000Y-81818000D02*
X113529000Y-80850000D01*
X113569000Y-79170000D02*
X113569000Y-78180000D01*
X113569000Y-81840000D02*
X113569000Y-80850000D01*
X113609000Y-79170000D02*
X113609000Y-78159000D01*
X113609000Y-81861000D02*
X113609000Y-80850000D01*
X113649000Y-79170000D02*
X113649000Y-78140000D01*
X113649000Y-81880000D02*
X113649000Y-80850000D01*
X113689000Y-79170000D02*
X113689000Y-78121000D01*
X113689000Y-81899000D02*
X113689000Y-80850000D01*
X113729000Y-79170000D02*
X113729000Y-78103000D01*
X113729000Y-81917000D02*
X113729000Y-80850000D01*
X113769000Y-79170000D02*
X113769000Y-78086000D01*
X113769000Y-81934000D02*
X113769000Y-80850000D01*
X113809000Y-79170000D02*
X113809000Y-78070000D01*
X113809000Y-81950000D02*
X113809000Y-80850000D01*
X113849000Y-79170000D02*
X113849000Y-78056000D01*
X113849000Y-81964000D02*
X113849000Y-80850000D01*
X113890000Y-79170000D02*
X113890000Y-78042000D01*
X113890000Y-81978000D02*
X113890000Y-80850000D01*
X113930000Y-79170000D02*
X113930000Y-78028000D01*
X113930000Y-81992000D02*
X113930000Y-80850000D01*
X113970000Y-79170000D02*
X113970000Y-78016000D01*
X113970000Y-82004000D02*
X113970000Y-80850000D01*
X114010000Y-79170000D02*
X114010000Y-78005000D01*
X114010000Y-82015000D02*
X114010000Y-80850000D01*
X114050000Y-79170000D02*
X114050000Y-77994000D01*
X114050000Y-82026000D02*
X114050000Y-80850000D01*
X114090000Y-79170000D02*
X114090000Y-77985000D01*
X114090000Y-82035000D02*
X114090000Y-80850000D01*
X114130000Y-79170000D02*
X114130000Y-77976000D01*
X114130000Y-82044000D02*
X114130000Y-80850000D01*
X114170000Y-79170000D02*
X114170000Y-77968000D01*
X114170000Y-82052000D02*
X114170000Y-80850000D01*
X114210000Y-79170000D02*
X114210000Y-77960000D01*
X114210000Y-82060000D02*
X114210000Y-80850000D01*
X114250000Y-79170000D02*
X114250000Y-77954000D01*
X114250000Y-82066000D02*
X114250000Y-80850000D01*
X114290000Y-79170000D02*
X114290000Y-77948000D01*
X114290000Y-82072000D02*
X114290000Y-80850000D01*
X114330000Y-79170000D02*
X114330000Y-77943000D01*
X114330000Y-82077000D02*
X114330000Y-80850000D01*
X114370000Y-79170000D02*
X114370000Y-77939000D01*
X114370000Y-82081000D02*
X114370000Y-80850000D01*
X114410000Y-82084000D02*
X114410000Y-77936000D01*
X114450000Y-82087000D02*
X114450000Y-77933000D01*
X114490000Y-82089000D02*
X114490000Y-77931000D01*
X114530000Y-82090000D02*
X114530000Y-77930000D01*
X114570000Y-82090000D02*
X114570000Y-77930000D01*
X116690000Y-80010000D02*
G75*
G03X116690000Y-80010000I-2120000J0D01*
G01*
X89025000Y-77670199D02*
X88625000Y-77670199D01*
X88825000Y-77470199D02*
X88825000Y-77870199D01*
X88000000Y-81821000D02*
X87260000Y-81821000D01*
X88167000Y-81781000D02*
X87093000Y-81781000D01*
X88294000Y-81741000D02*
X86966000Y-81741000D01*
X88398000Y-81701000D02*
X86862000Y-81701000D01*
X88489000Y-81661000D02*
X86771000Y-81661000D01*
X88570000Y-81621000D02*
X86690000Y-81621000D01*
X88643000Y-81581000D02*
X86617000Y-81581000D01*
X86790000Y-81541000D02*
X86550000Y-81541000D01*
X88710000Y-81541000D02*
X88470000Y-81541000D01*
X86790000Y-81501000D02*
X86488000Y-81501000D01*
X88772000Y-81501000D02*
X88470000Y-81501000D01*
X86790000Y-81461000D02*
X86430000Y-81461000D01*
X88830000Y-81461000D02*
X88470000Y-81461000D01*
X86790000Y-81421000D02*
X86376000Y-81421000D01*
X88884000Y-81421000D02*
X88470000Y-81421000D01*
X86790000Y-81381000D02*
X86326000Y-81381000D01*
X88934000Y-81381000D02*
X88470000Y-81381000D01*
X86790000Y-81341000D02*
X86279000Y-81341000D01*
X88981000Y-81341000D02*
X88470000Y-81341000D01*
X86790000Y-81301000D02*
X86234000Y-81301000D01*
X89026000Y-81301000D02*
X88470000Y-81301000D01*
X86790000Y-81261000D02*
X86192000Y-81261000D01*
X89068000Y-81261000D02*
X88470000Y-81261000D01*
X86790000Y-81221000D02*
X86152000Y-81221000D01*
X89108000Y-81221000D02*
X88470000Y-81221000D01*
X86790000Y-81181000D02*
X86114000Y-81181000D01*
X89146000Y-81181000D02*
X88470000Y-81181000D01*
X86790000Y-81141000D02*
X86078000Y-81141000D01*
X89182000Y-81141000D02*
X88470000Y-81141000D01*
X86790000Y-81101000D02*
X86043000Y-81101000D01*
X89217000Y-81101000D02*
X88470000Y-81101000D01*
X86790000Y-81061000D02*
X86011000Y-81061000D01*
X89249000Y-81061000D02*
X88470000Y-81061000D01*
X86790000Y-81021000D02*
X85980000Y-81021000D01*
X89280000Y-81021000D02*
X88470000Y-81021000D01*
X86790000Y-80981000D02*
X85950000Y-80981000D01*
X89310000Y-80981000D02*
X88470000Y-80981000D01*
X86790000Y-80941000D02*
X85922000Y-80941000D01*
X89338000Y-80941000D02*
X88470000Y-80941000D01*
X86790000Y-80901000D02*
X85895000Y-80901000D01*
X89365000Y-80901000D02*
X88470000Y-80901000D01*
X86790000Y-80861000D02*
X85870000Y-80861000D01*
X89390000Y-80861000D02*
X88470000Y-80861000D01*
X86790000Y-80821000D02*
X85845000Y-80821000D01*
X89415000Y-80821000D02*
X88470000Y-80821000D01*
X86790000Y-80781000D02*
X85822000Y-80781000D01*
X89438000Y-80781000D02*
X88470000Y-80781000D01*
X86790000Y-80741000D02*
X85800000Y-80741000D01*
X89460000Y-80741000D02*
X88470000Y-80741000D01*
X86790000Y-80701000D02*
X85779000Y-80701000D01*
X89481000Y-80701000D02*
X88470000Y-80701000D01*
X86790000Y-80661000D02*
X85760000Y-80661000D01*
X89500000Y-80661000D02*
X88470000Y-80661000D01*
X86790000Y-80621000D02*
X85741000Y-80621000D01*
X89519000Y-80621000D02*
X88470000Y-80621000D01*
X86790000Y-80581000D02*
X85723000Y-80581000D01*
X89537000Y-80581000D02*
X88470000Y-80581000D01*
X86790000Y-80541000D02*
X85706000Y-80541000D01*
X89554000Y-80541000D02*
X88470000Y-80541000D01*
X86790000Y-80501000D02*
X85690000Y-80501000D01*
X89570000Y-80501000D02*
X88470000Y-80501000D01*
X86790000Y-80461000D02*
X85676000Y-80461000D01*
X89584000Y-80461000D02*
X88470000Y-80461000D01*
X86790000Y-80420000D02*
X85662000Y-80420000D01*
X89598000Y-80420000D02*
X88470000Y-80420000D01*
X86790000Y-80380000D02*
X85648000Y-80380000D01*
X89612000Y-80380000D02*
X88470000Y-80380000D01*
X86790000Y-80340000D02*
X85636000Y-80340000D01*
X89624000Y-80340000D02*
X88470000Y-80340000D01*
X86790000Y-80300000D02*
X85625000Y-80300000D01*
X89635000Y-80300000D02*
X88470000Y-80300000D01*
X86790000Y-80260000D02*
X85614000Y-80260000D01*
X89646000Y-80260000D02*
X88470000Y-80260000D01*
X86790000Y-80220000D02*
X85605000Y-80220000D01*
X89655000Y-80220000D02*
X88470000Y-80220000D01*
X86790000Y-80180000D02*
X85596000Y-80180000D01*
X89664000Y-80180000D02*
X88470000Y-80180000D01*
X86790000Y-80140000D02*
X85588000Y-80140000D01*
X89672000Y-80140000D02*
X88470000Y-80140000D01*
X86790000Y-80100000D02*
X85580000Y-80100000D01*
X89680000Y-80100000D02*
X88470000Y-80100000D01*
X86790000Y-80060000D02*
X85574000Y-80060000D01*
X89686000Y-80060000D02*
X88470000Y-80060000D01*
X86790000Y-80020000D02*
X85568000Y-80020000D01*
X89692000Y-80020000D02*
X88470000Y-80020000D01*
X86790000Y-79980000D02*
X85563000Y-79980000D01*
X89697000Y-79980000D02*
X88470000Y-79980000D01*
X86790000Y-79940000D02*
X85559000Y-79940000D01*
X89701000Y-79940000D02*
X88470000Y-79940000D01*
X89704000Y-79900000D02*
X85556000Y-79900000D01*
X89707000Y-79860000D02*
X85553000Y-79860000D01*
X89709000Y-79820000D02*
X85551000Y-79820000D01*
X89710000Y-79780000D02*
X85550000Y-79780000D01*
X89710000Y-79740000D02*
X85550000Y-79740000D01*
X89750000Y-79740000D02*
G75*
G03X89750000Y-79740000I-2120000J0D01*
G01*
X122045000Y-54175199D02*
X121645000Y-54175199D01*
X121845000Y-53975199D02*
X121845000Y-54375199D01*
X121020000Y-58326000D02*
X120280000Y-58326000D01*
X121187000Y-58286000D02*
X120113000Y-58286000D01*
X121314000Y-58246000D02*
X119986000Y-58246000D01*
X121418000Y-58206000D02*
X119882000Y-58206000D01*
X121509000Y-58166000D02*
X119791000Y-58166000D01*
X121590000Y-58126000D02*
X119710000Y-58126000D01*
X121663000Y-58086000D02*
X119637000Y-58086000D01*
X119810000Y-58046000D02*
X119570000Y-58046000D01*
X121730000Y-58046000D02*
X121490000Y-58046000D01*
X119810000Y-58006000D02*
X119508000Y-58006000D01*
X121792000Y-58006000D02*
X121490000Y-58006000D01*
X119810000Y-57966000D02*
X119450000Y-57966000D01*
X121850000Y-57966000D02*
X121490000Y-57966000D01*
X119810000Y-57926000D02*
X119396000Y-57926000D01*
X121904000Y-57926000D02*
X121490000Y-57926000D01*
X119810000Y-57886000D02*
X119346000Y-57886000D01*
X121954000Y-57886000D02*
X121490000Y-57886000D01*
X119810000Y-57846000D02*
X119299000Y-57846000D01*
X122001000Y-57846000D02*
X121490000Y-57846000D01*
X119810000Y-57806000D02*
X119254000Y-57806000D01*
X122046000Y-57806000D02*
X121490000Y-57806000D01*
X119810000Y-57766000D02*
X119212000Y-57766000D01*
X122088000Y-57766000D02*
X121490000Y-57766000D01*
X119810000Y-57726000D02*
X119172000Y-57726000D01*
X122128000Y-57726000D02*
X121490000Y-57726000D01*
X119810000Y-57686000D02*
X119134000Y-57686000D01*
X122166000Y-57686000D02*
X121490000Y-57686000D01*
X119810000Y-57646000D02*
X119098000Y-57646000D01*
X122202000Y-57646000D02*
X121490000Y-57646000D01*
X119810000Y-57606000D02*
X119063000Y-57606000D01*
X122237000Y-57606000D02*
X121490000Y-57606000D01*
X119810000Y-57566000D02*
X119031000Y-57566000D01*
X122269000Y-57566000D02*
X121490000Y-57566000D01*
X119810000Y-57526000D02*
X119000000Y-57526000D01*
X122300000Y-57526000D02*
X121490000Y-57526000D01*
X119810000Y-57486000D02*
X118970000Y-57486000D01*
X122330000Y-57486000D02*
X121490000Y-57486000D01*
X119810000Y-57446000D02*
X118942000Y-57446000D01*
X122358000Y-57446000D02*
X121490000Y-57446000D01*
X119810000Y-57406000D02*
X118915000Y-57406000D01*
X122385000Y-57406000D02*
X121490000Y-57406000D01*
X119810000Y-57366000D02*
X118890000Y-57366000D01*
X122410000Y-57366000D02*
X121490000Y-57366000D01*
X119810000Y-57326000D02*
X118865000Y-57326000D01*
X122435000Y-57326000D02*
X121490000Y-57326000D01*
X119810000Y-57286000D02*
X118842000Y-57286000D01*
X122458000Y-57286000D02*
X121490000Y-57286000D01*
X119810000Y-57246000D02*
X118820000Y-57246000D01*
X122480000Y-57246000D02*
X121490000Y-57246000D01*
X119810000Y-57206000D02*
X118799000Y-57206000D01*
X122501000Y-57206000D02*
X121490000Y-57206000D01*
X119810000Y-57166000D02*
X118780000Y-57166000D01*
X122520000Y-57166000D02*
X121490000Y-57166000D01*
X119810000Y-57126000D02*
X118761000Y-57126000D01*
X122539000Y-57126000D02*
X121490000Y-57126000D01*
X119810000Y-57086000D02*
X118743000Y-57086000D01*
X122557000Y-57086000D02*
X121490000Y-57086000D01*
X119810000Y-57046000D02*
X118726000Y-57046000D01*
X122574000Y-57046000D02*
X121490000Y-57046000D01*
X119810000Y-57006000D02*
X118710000Y-57006000D01*
X122590000Y-57006000D02*
X121490000Y-57006000D01*
X119810000Y-56966000D02*
X118696000Y-56966000D01*
X122604000Y-56966000D02*
X121490000Y-56966000D01*
X119810000Y-56925000D02*
X118682000Y-56925000D01*
X122618000Y-56925000D02*
X121490000Y-56925000D01*
X119810000Y-56885000D02*
X118668000Y-56885000D01*
X122632000Y-56885000D02*
X121490000Y-56885000D01*
X119810000Y-56845000D02*
X118656000Y-56845000D01*
X122644000Y-56845000D02*
X121490000Y-56845000D01*
X119810000Y-56805000D02*
X118645000Y-56805000D01*
X122655000Y-56805000D02*
X121490000Y-56805000D01*
X119810000Y-56765000D02*
X118634000Y-56765000D01*
X122666000Y-56765000D02*
X121490000Y-56765000D01*
X119810000Y-56725000D02*
X118625000Y-56725000D01*
X122675000Y-56725000D02*
X121490000Y-56725000D01*
X119810000Y-56685000D02*
X118616000Y-56685000D01*
X122684000Y-56685000D02*
X121490000Y-56685000D01*
X119810000Y-56645000D02*
X118608000Y-56645000D01*
X122692000Y-56645000D02*
X121490000Y-56645000D01*
X119810000Y-56605000D02*
X118600000Y-56605000D01*
X122700000Y-56605000D02*
X121490000Y-56605000D01*
X119810000Y-56565000D02*
X118594000Y-56565000D01*
X122706000Y-56565000D02*
X121490000Y-56565000D01*
X119810000Y-56525000D02*
X118588000Y-56525000D01*
X122712000Y-56525000D02*
X121490000Y-56525000D01*
X119810000Y-56485000D02*
X118583000Y-56485000D01*
X122717000Y-56485000D02*
X121490000Y-56485000D01*
X119810000Y-56445000D02*
X118579000Y-56445000D01*
X122721000Y-56445000D02*
X121490000Y-56445000D01*
X122724000Y-56405000D02*
X118576000Y-56405000D01*
X122727000Y-56365000D02*
X118573000Y-56365000D01*
X122729000Y-56325000D02*
X118571000Y-56325000D01*
X122730000Y-56285000D02*
X118570000Y-56285000D01*
X122730000Y-56245000D02*
X118570000Y-56245000D01*
X122770000Y-56245000D02*
G75*
G03X122770000Y-56245000I-2120000J0D01*
G01*
X119255000Y-53139801D02*
X119655000Y-53139801D01*
X119455000Y-53339801D02*
X119455000Y-52939801D01*
X120280000Y-48989000D02*
X121020000Y-48989000D01*
X120113000Y-49029000D02*
X121187000Y-49029000D01*
X119986000Y-49069000D02*
X121314000Y-49069000D01*
X119882000Y-49109000D02*
X121418000Y-49109000D01*
X119791000Y-49149000D02*
X121509000Y-49149000D01*
X119710000Y-49189000D02*
X121590000Y-49189000D01*
X119637000Y-49229000D02*
X121663000Y-49229000D01*
X121490000Y-49269000D02*
X121730000Y-49269000D01*
X119570000Y-49269000D02*
X119810000Y-49269000D01*
X121490000Y-49309000D02*
X121792000Y-49309000D01*
X119508000Y-49309000D02*
X119810000Y-49309000D01*
X121490000Y-49349000D02*
X121850000Y-49349000D01*
X119450000Y-49349000D02*
X119810000Y-49349000D01*
X121490000Y-49389000D02*
X121904000Y-49389000D01*
X119396000Y-49389000D02*
X119810000Y-49389000D01*
X121490000Y-49429000D02*
X121954000Y-49429000D01*
X119346000Y-49429000D02*
X119810000Y-49429000D01*
X121490000Y-49469000D02*
X122001000Y-49469000D01*
X119299000Y-49469000D02*
X119810000Y-49469000D01*
X121490000Y-49509000D02*
X122046000Y-49509000D01*
X119254000Y-49509000D02*
X119810000Y-49509000D01*
X121490000Y-49549000D02*
X122088000Y-49549000D01*
X119212000Y-49549000D02*
X119810000Y-49549000D01*
X121490000Y-49589000D02*
X122128000Y-49589000D01*
X119172000Y-49589000D02*
X119810000Y-49589000D01*
X121490000Y-49629000D02*
X122166000Y-49629000D01*
X119134000Y-49629000D02*
X119810000Y-49629000D01*
X121490000Y-49669000D02*
X122202000Y-49669000D01*
X119098000Y-49669000D02*
X119810000Y-49669000D01*
X121490000Y-49709000D02*
X122237000Y-49709000D01*
X119063000Y-49709000D02*
X119810000Y-49709000D01*
X121490000Y-49749000D02*
X122269000Y-49749000D01*
X119031000Y-49749000D02*
X119810000Y-49749000D01*
X121490000Y-49789000D02*
X122300000Y-49789000D01*
X119000000Y-49789000D02*
X119810000Y-49789000D01*
X121490000Y-49829000D02*
X122330000Y-49829000D01*
X118970000Y-49829000D02*
X119810000Y-49829000D01*
X121490000Y-49869000D02*
X122358000Y-49869000D01*
X118942000Y-49869000D02*
X119810000Y-49869000D01*
X121490000Y-49909000D02*
X122385000Y-49909000D01*
X118915000Y-49909000D02*
X119810000Y-49909000D01*
X121490000Y-49949000D02*
X122410000Y-49949000D01*
X118890000Y-49949000D02*
X119810000Y-49949000D01*
X121490000Y-49989000D02*
X122435000Y-49989000D01*
X118865000Y-49989000D02*
X119810000Y-49989000D01*
X121490000Y-50029000D02*
X122458000Y-50029000D01*
X118842000Y-50029000D02*
X119810000Y-50029000D01*
X121490000Y-50069000D02*
X122480000Y-50069000D01*
X118820000Y-50069000D02*
X119810000Y-50069000D01*
X121490000Y-50109000D02*
X122501000Y-50109000D01*
X118799000Y-50109000D02*
X119810000Y-50109000D01*
X121490000Y-50149000D02*
X122520000Y-50149000D01*
X118780000Y-50149000D02*
X119810000Y-50149000D01*
X121490000Y-50189000D02*
X122539000Y-50189000D01*
X118761000Y-50189000D02*
X119810000Y-50189000D01*
X121490000Y-50229000D02*
X122557000Y-50229000D01*
X118743000Y-50229000D02*
X119810000Y-50229000D01*
X121490000Y-50269000D02*
X122574000Y-50269000D01*
X118726000Y-50269000D02*
X119810000Y-50269000D01*
X121490000Y-50309000D02*
X122590000Y-50309000D01*
X118710000Y-50309000D02*
X119810000Y-50309000D01*
X121490000Y-50349000D02*
X122604000Y-50349000D01*
X118696000Y-50349000D02*
X119810000Y-50349000D01*
X121490000Y-50390000D02*
X122618000Y-50390000D01*
X118682000Y-50390000D02*
X119810000Y-50390000D01*
X121490000Y-50430000D02*
X122632000Y-50430000D01*
X118668000Y-50430000D02*
X119810000Y-50430000D01*
X121490000Y-50470000D02*
X122644000Y-50470000D01*
X118656000Y-50470000D02*
X119810000Y-50470000D01*
X121490000Y-50510000D02*
X122655000Y-50510000D01*
X118645000Y-50510000D02*
X119810000Y-50510000D01*
X121490000Y-50550000D02*
X122666000Y-50550000D01*
X118634000Y-50550000D02*
X119810000Y-50550000D01*
X121490000Y-50590000D02*
X122675000Y-50590000D01*
X118625000Y-50590000D02*
X119810000Y-50590000D01*
X121490000Y-50630000D02*
X122684000Y-50630000D01*
X118616000Y-50630000D02*
X119810000Y-50630000D01*
X121490000Y-50670000D02*
X122692000Y-50670000D01*
X118608000Y-50670000D02*
X119810000Y-50670000D01*
X121490000Y-50710000D02*
X122700000Y-50710000D01*
X118600000Y-50710000D02*
X119810000Y-50710000D01*
X121490000Y-50750000D02*
X122706000Y-50750000D01*
X118594000Y-50750000D02*
X119810000Y-50750000D01*
X121490000Y-50790000D02*
X122712000Y-50790000D01*
X118588000Y-50790000D02*
X119810000Y-50790000D01*
X121490000Y-50830000D02*
X122717000Y-50830000D01*
X118583000Y-50830000D02*
X119810000Y-50830000D01*
X121490000Y-50870000D02*
X122721000Y-50870000D01*
X118579000Y-50870000D02*
X119810000Y-50870000D01*
X118576000Y-50910000D02*
X122724000Y-50910000D01*
X118573000Y-50950000D02*
X122727000Y-50950000D01*
X118571000Y-50990000D02*
X122729000Y-50990000D01*
X118570000Y-51030000D02*
X122730000Y-51030000D01*
X118570000Y-51070000D02*
X122730000Y-51070000D01*
X122770000Y-51070000D02*
G75*
G03X122770000Y-51070000I-2120000J0D01*
G01*
X105610199Y-32895000D02*
X105610199Y-33295000D01*
X105410199Y-33095000D02*
X105810199Y-33095000D01*
X109761000Y-33920000D02*
X109761000Y-34660000D01*
X109721000Y-33753000D02*
X109721000Y-34827000D01*
X109681000Y-33626000D02*
X109681000Y-34954000D01*
X109641000Y-33522000D02*
X109641000Y-35058000D01*
X109601000Y-33431000D02*
X109601000Y-35149000D01*
X109561000Y-33350000D02*
X109561000Y-35230000D01*
X109521000Y-33277000D02*
X109521000Y-35303000D01*
X109481000Y-35130000D02*
X109481000Y-35370000D01*
X109481000Y-33210000D02*
X109481000Y-33450000D01*
X109441000Y-35130000D02*
X109441000Y-35432000D01*
X109441000Y-33148000D02*
X109441000Y-33450000D01*
X109401000Y-35130000D02*
X109401000Y-35490000D01*
X109401000Y-33090000D02*
X109401000Y-33450000D01*
X109361000Y-35130000D02*
X109361000Y-35544000D01*
X109361000Y-33036000D02*
X109361000Y-33450000D01*
X109321000Y-35130000D02*
X109321000Y-35594000D01*
X109321000Y-32986000D02*
X109321000Y-33450000D01*
X109281000Y-35130000D02*
X109281000Y-35641000D01*
X109281000Y-32939000D02*
X109281000Y-33450000D01*
X109241000Y-35130000D02*
X109241000Y-35686000D01*
X109241000Y-32894000D02*
X109241000Y-33450000D01*
X109201000Y-35130000D02*
X109201000Y-35728000D01*
X109201000Y-32852000D02*
X109201000Y-33450000D01*
X109161000Y-35130000D02*
X109161000Y-35768000D01*
X109161000Y-32812000D02*
X109161000Y-33450000D01*
X109121000Y-35130000D02*
X109121000Y-35806000D01*
X109121000Y-32774000D02*
X109121000Y-33450000D01*
X109081000Y-35130000D02*
X109081000Y-35842000D01*
X109081000Y-32738000D02*
X109081000Y-33450000D01*
X109041000Y-35130000D02*
X109041000Y-35877000D01*
X109041000Y-32703000D02*
X109041000Y-33450000D01*
X109001000Y-35130000D02*
X109001000Y-35909000D01*
X109001000Y-32671000D02*
X109001000Y-33450000D01*
X108961000Y-35130000D02*
X108961000Y-35940000D01*
X108961000Y-32640000D02*
X108961000Y-33450000D01*
X108921000Y-35130000D02*
X108921000Y-35970000D01*
X108921000Y-32610000D02*
X108921000Y-33450000D01*
X108881000Y-35130000D02*
X108881000Y-35998000D01*
X108881000Y-32582000D02*
X108881000Y-33450000D01*
X108841000Y-35130000D02*
X108841000Y-36025000D01*
X108841000Y-32555000D02*
X108841000Y-33450000D01*
X108801000Y-35130000D02*
X108801000Y-36050000D01*
X108801000Y-32530000D02*
X108801000Y-33450000D01*
X108761000Y-35130000D02*
X108761000Y-36075000D01*
X108761000Y-32505000D02*
X108761000Y-33450000D01*
X108721000Y-35130000D02*
X108721000Y-36098000D01*
X108721000Y-32482000D02*
X108721000Y-33450000D01*
X108681000Y-35130000D02*
X108681000Y-36120000D01*
X108681000Y-32460000D02*
X108681000Y-33450000D01*
X108641000Y-35130000D02*
X108641000Y-36141000D01*
X108641000Y-32439000D02*
X108641000Y-33450000D01*
X108601000Y-35130000D02*
X108601000Y-36160000D01*
X108601000Y-32420000D02*
X108601000Y-33450000D01*
X108561000Y-35130000D02*
X108561000Y-36179000D01*
X108561000Y-32401000D02*
X108561000Y-33450000D01*
X108521000Y-35130000D02*
X108521000Y-36197000D01*
X108521000Y-32383000D02*
X108521000Y-33450000D01*
X108481000Y-35130000D02*
X108481000Y-36214000D01*
X108481000Y-32366000D02*
X108481000Y-33450000D01*
X108441000Y-35130000D02*
X108441000Y-36230000D01*
X108441000Y-32350000D02*
X108441000Y-33450000D01*
X108401000Y-35130000D02*
X108401000Y-36244000D01*
X108401000Y-32336000D02*
X108401000Y-33450000D01*
X108360000Y-35130000D02*
X108360000Y-36258000D01*
X108360000Y-32322000D02*
X108360000Y-33450000D01*
X108320000Y-35130000D02*
X108320000Y-36272000D01*
X108320000Y-32308000D02*
X108320000Y-33450000D01*
X108280000Y-35130000D02*
X108280000Y-36284000D01*
X108280000Y-32296000D02*
X108280000Y-33450000D01*
X108240000Y-35130000D02*
X108240000Y-36295000D01*
X108240000Y-32285000D02*
X108240000Y-33450000D01*
X108200000Y-35130000D02*
X108200000Y-36306000D01*
X108200000Y-32274000D02*
X108200000Y-33450000D01*
X108160000Y-35130000D02*
X108160000Y-36315000D01*
X108160000Y-32265000D02*
X108160000Y-33450000D01*
X108120000Y-35130000D02*
X108120000Y-36324000D01*
X108120000Y-32256000D02*
X108120000Y-33450000D01*
X108080000Y-35130000D02*
X108080000Y-36332000D01*
X108080000Y-32248000D02*
X108080000Y-33450000D01*
X108040000Y-35130000D02*
X108040000Y-36340000D01*
X108040000Y-32240000D02*
X108040000Y-33450000D01*
X108000000Y-35130000D02*
X108000000Y-36346000D01*
X108000000Y-32234000D02*
X108000000Y-33450000D01*
X107960000Y-35130000D02*
X107960000Y-36352000D01*
X107960000Y-32228000D02*
X107960000Y-33450000D01*
X107920000Y-35130000D02*
X107920000Y-36357000D01*
X107920000Y-32223000D02*
X107920000Y-33450000D01*
X107880000Y-35130000D02*
X107880000Y-36361000D01*
X107880000Y-32219000D02*
X107880000Y-33450000D01*
X107840000Y-32216000D02*
X107840000Y-36364000D01*
X107800000Y-32213000D02*
X107800000Y-36367000D01*
X107760000Y-32211000D02*
X107760000Y-36369000D01*
X107720000Y-32210000D02*
X107720000Y-36370000D01*
X107680000Y-32210000D02*
X107680000Y-36370000D01*
X109800000Y-34290000D02*
G75*
G03X109800000Y-34290000I-2120000J0D01*
G01*
D11*
X130000476Y-42482380D02*
X130000476Y-43196666D01*
X129952857Y-43339523D01*
X129857619Y-43434761D01*
X129714761Y-43482380D01*
X129619523Y-43482380D01*
X131000476Y-43482380D02*
X130429047Y-43482380D01*
X130714761Y-43482380D02*
X130714761Y-42482380D01*
X130619523Y-42625238D01*
X130524285Y-42720476D01*
X130429047Y-42768095D01*
X131857619Y-42815714D02*
X131857619Y-43482380D01*
X131619523Y-42434761D02*
X131381428Y-43149047D01*
X132000476Y-43149047D01*
X130000476Y-104712380D02*
X130000476Y-105426666D01*
X129952857Y-105569523D01*
X129857619Y-105664761D01*
X129714761Y-105712380D01*
X129619523Y-105712380D01*
X131000476Y-105712380D02*
X130429047Y-105712380D01*
X130714761Y-105712380D02*
X130714761Y-104712380D01*
X130619523Y-104855238D01*
X130524285Y-104950476D01*
X130429047Y-104998095D01*
X131333809Y-104712380D02*
X131952857Y-104712380D01*
X131619523Y-105093333D01*
X131762380Y-105093333D01*
X131857619Y-105140952D01*
X131905238Y-105188571D01*
X131952857Y-105283809D01*
X131952857Y-105521904D01*
X131905238Y-105617142D01*
X131857619Y-105664761D01*
X131762380Y-105712380D01*
X131476666Y-105712380D01*
X131381428Y-105664761D01*
X131333809Y-105617142D01*
X69040476Y-104712380D02*
X69040476Y-105426666D01*
X68992857Y-105569523D01*
X68897619Y-105664761D01*
X68754761Y-105712380D01*
X68659523Y-105712380D01*
X70040476Y-105712380D02*
X69469047Y-105712380D01*
X69754761Y-105712380D02*
X69754761Y-104712380D01*
X69659523Y-104855238D01*
X69564285Y-104950476D01*
X69469047Y-104998095D01*
X70421428Y-104807619D02*
X70469047Y-104760000D01*
X70564285Y-104712380D01*
X70802380Y-104712380D01*
X70897619Y-104760000D01*
X70945238Y-104807619D01*
X70992857Y-104902857D01*
X70992857Y-104998095D01*
X70945238Y-105140952D01*
X70373809Y-105712380D01*
X70992857Y-105712380D01*
X69040476Y-42482380D02*
X69040476Y-43196666D01*
X68992857Y-43339523D01*
X68897619Y-43434761D01*
X68754761Y-43482380D01*
X68659523Y-43482380D01*
X70040476Y-43482380D02*
X69469047Y-43482380D01*
X69754761Y-43482380D02*
X69754761Y-42482380D01*
X69659523Y-42625238D01*
X69564285Y-42720476D01*
X69469047Y-42768095D01*
X70992857Y-43482380D02*
X70421428Y-43482380D01*
X70707142Y-43482380D02*
X70707142Y-42482380D01*
X70611904Y-42625238D01*
X70516666Y-42720476D01*
X70421428Y-42768095D01*
X63377142Y-34012380D02*
X63377142Y-33012380D01*
X63710476Y-33726666D01*
X64043809Y-33012380D01*
X64043809Y-34012380D01*
X65091428Y-33917142D02*
X65043809Y-33964761D01*
X64900952Y-34012380D01*
X64805714Y-34012380D01*
X64662857Y-33964761D01*
X64567619Y-33869523D01*
X64520000Y-33774285D01*
X64472380Y-33583809D01*
X64472380Y-33440952D01*
X64520000Y-33250476D01*
X64567619Y-33155238D01*
X64662857Y-33060000D01*
X64805714Y-33012380D01*
X64900952Y-33012380D01*
X65043809Y-33060000D01*
X65091428Y-33107619D01*
X65996190Y-34012380D02*
X65520000Y-34012380D01*
X65520000Y-33012380D01*
X66900952Y-34012380D02*
X66567619Y-33536190D01*
X66329523Y-34012380D02*
X66329523Y-33012380D01*
X66710476Y-33012380D01*
X66805714Y-33060000D01*
X66853333Y-33107619D01*
X66900952Y-33202857D01*
X66900952Y-33345714D01*
X66853333Y-33440952D01*
X66805714Y-33488571D01*
X66710476Y-33536190D01*
X66329523Y-33536190D01*
X67091428Y-34107619D02*
X67853333Y-34107619D01*
X68662857Y-34012380D02*
X68329523Y-33536190D01*
X68091428Y-34012380D02*
X68091428Y-33012380D01*
X68472380Y-33012380D01*
X68567619Y-33060000D01*
X68615238Y-33107619D01*
X68662857Y-33202857D01*
X68662857Y-33345714D01*
X68615238Y-33440952D01*
X68567619Y-33488571D01*
X68472380Y-33536190D01*
X68091428Y-33536190D01*
X69472380Y-33964761D02*
X69377142Y-34012380D01*
X69186666Y-34012380D01*
X69091428Y-33964761D01*
X69043809Y-33869523D01*
X69043809Y-33488571D01*
X69091428Y-33393333D01*
X69186666Y-33345714D01*
X69377142Y-33345714D01*
X69472380Y-33393333D01*
X69520000Y-33488571D01*
X69520000Y-33583809D01*
X69043809Y-33679047D01*
X69900952Y-33964761D02*
X69996190Y-34012380D01*
X70186666Y-34012380D01*
X70281904Y-33964761D01*
X70329523Y-33869523D01*
X70329523Y-33821904D01*
X70281904Y-33726666D01*
X70186666Y-33679047D01*
X70043809Y-33679047D01*
X69948571Y-33631428D01*
X69900952Y-33536190D01*
X69900952Y-33488571D01*
X69948571Y-33393333D01*
X70043809Y-33345714D01*
X70186666Y-33345714D01*
X70281904Y-33393333D01*
X71139047Y-33964761D02*
X71043809Y-34012380D01*
X70853333Y-34012380D01*
X70758095Y-33964761D01*
X70710476Y-33869523D01*
X70710476Y-33488571D01*
X70758095Y-33393333D01*
X70853333Y-33345714D01*
X71043809Y-33345714D01*
X71139047Y-33393333D01*
X71186666Y-33488571D01*
X71186666Y-33583809D01*
X70710476Y-33679047D01*
X71472380Y-33345714D02*
X71853333Y-33345714D01*
X71615238Y-33012380D02*
X71615238Y-33869523D01*
X71662857Y-33964761D01*
X71758095Y-34012380D01*
X71853333Y-34012380D01*
X72710476Y-34012380D02*
X72139047Y-34012380D01*
X72424761Y-34012380D02*
X72424761Y-33012380D01*
X72329523Y-33155238D01*
X72234285Y-33250476D01*
X72139047Y-33298095D01*
X73942380Y-99702857D02*
X73466190Y-100036190D01*
X73942380Y-100274285D02*
X72942380Y-100274285D01*
X72942380Y-99893333D01*
X72990000Y-99798095D01*
X73037619Y-99750476D01*
X73132857Y-99702857D01*
X73275714Y-99702857D01*
X73370952Y-99750476D01*
X73418571Y-99798095D01*
X73466190Y-99893333D01*
X73466190Y-100274285D01*
X73037619Y-99321904D02*
X72990000Y-99274285D01*
X72942380Y-99179047D01*
X72942380Y-98940952D01*
X72990000Y-98845714D01*
X73037619Y-98798095D01*
X73132857Y-98750476D01*
X73228095Y-98750476D01*
X73370952Y-98798095D01*
X73942380Y-99369523D01*
X73942380Y-98750476D01*
X73275714Y-97893333D02*
X73942380Y-97893333D01*
X72894761Y-98131428D02*
X73609047Y-98369523D01*
X73609047Y-97750476D01*
X78097142Y-85712380D02*
X77763809Y-85236190D01*
X77525714Y-85712380D02*
X77525714Y-84712380D01*
X77906666Y-84712380D01*
X78001904Y-84760000D01*
X78049523Y-84807619D01*
X78097142Y-84902857D01*
X78097142Y-85045714D01*
X78049523Y-85140952D01*
X78001904Y-85188571D01*
X77906666Y-85236190D01*
X77525714Y-85236190D01*
X78478095Y-84807619D02*
X78525714Y-84760000D01*
X78620952Y-84712380D01*
X78859047Y-84712380D01*
X78954285Y-84760000D01*
X79001904Y-84807619D01*
X79049523Y-84902857D01*
X79049523Y-84998095D01*
X79001904Y-85140952D01*
X78430476Y-85712380D01*
X79049523Y-85712380D01*
X79382857Y-84712380D02*
X80001904Y-84712380D01*
X79668571Y-85093333D01*
X79811428Y-85093333D01*
X79906666Y-85140952D01*
X79954285Y-85188571D01*
X80001904Y-85283809D01*
X80001904Y-85521904D01*
X79954285Y-85617142D01*
X79906666Y-85664761D01*
X79811428Y-85712380D01*
X79525714Y-85712380D01*
X79430476Y-85664761D01*
X79382857Y-85617142D01*
X117462380Y-94622857D02*
X116986190Y-94956190D01*
X117462380Y-95194285D02*
X116462380Y-95194285D01*
X116462380Y-94813333D01*
X116510000Y-94718095D01*
X116557619Y-94670476D01*
X116652857Y-94622857D01*
X116795714Y-94622857D01*
X116890952Y-94670476D01*
X116938571Y-94718095D01*
X116986190Y-94813333D01*
X116986190Y-95194285D01*
X116557619Y-94241904D02*
X116510000Y-94194285D01*
X116462380Y-94099047D01*
X116462380Y-93860952D01*
X116510000Y-93765714D01*
X116557619Y-93718095D01*
X116652857Y-93670476D01*
X116748095Y-93670476D01*
X116890952Y-93718095D01*
X117462380Y-94289523D01*
X117462380Y-93670476D01*
X116557619Y-93289523D02*
X116510000Y-93241904D01*
X116462380Y-93146666D01*
X116462380Y-92908571D01*
X116510000Y-92813333D01*
X116557619Y-92765714D01*
X116652857Y-92718095D01*
X116748095Y-92718095D01*
X116890952Y-92765714D01*
X117462380Y-93337142D01*
X117462380Y-92718095D01*
X92067142Y-47866380D02*
X91733809Y-47390190D01*
X91495714Y-47866380D02*
X91495714Y-46866380D01*
X91876666Y-46866380D01*
X91971904Y-46914000D01*
X92019523Y-46961619D01*
X92067142Y-47056857D01*
X92067142Y-47199714D01*
X92019523Y-47294952D01*
X91971904Y-47342571D01*
X91876666Y-47390190D01*
X91495714Y-47390190D01*
X92448095Y-46961619D02*
X92495714Y-46914000D01*
X92590952Y-46866380D01*
X92829047Y-46866380D01*
X92924285Y-46914000D01*
X92971904Y-46961619D01*
X93019523Y-47056857D01*
X93019523Y-47152095D01*
X92971904Y-47294952D01*
X92400476Y-47866380D01*
X93019523Y-47866380D01*
X93971904Y-47866380D02*
X93400476Y-47866380D01*
X93686190Y-47866380D02*
X93686190Y-46866380D01*
X93590952Y-47009238D01*
X93495714Y-47104476D01*
X93400476Y-47152095D01*
X131497142Y-37542380D02*
X131497142Y-36542380D01*
X131878095Y-36542380D01*
X131973333Y-36590000D01*
X132020952Y-36637619D01*
X132068571Y-36732857D01*
X132068571Y-36875714D01*
X132020952Y-36970952D01*
X131973333Y-37018571D01*
X131878095Y-37066190D01*
X131497142Y-37066190D01*
X132640000Y-37542380D02*
X132544761Y-37494761D01*
X132497142Y-37447142D01*
X132449523Y-37351904D01*
X132449523Y-37066190D01*
X132497142Y-36970952D01*
X132544761Y-36923333D01*
X132640000Y-36875714D01*
X132782857Y-36875714D01*
X132878095Y-36923333D01*
X132925714Y-36970952D01*
X132973333Y-37066190D01*
X132973333Y-37351904D01*
X132925714Y-37447142D01*
X132878095Y-37494761D01*
X132782857Y-37542380D01*
X132640000Y-37542380D01*
X133306666Y-36875714D02*
X133497142Y-37542380D01*
X133687619Y-37066190D01*
X133878095Y-37542380D01*
X134068571Y-36875714D01*
X134830476Y-37494761D02*
X134735238Y-37542380D01*
X134544761Y-37542380D01*
X134449523Y-37494761D01*
X134401904Y-37399523D01*
X134401904Y-37018571D01*
X134449523Y-36923333D01*
X134544761Y-36875714D01*
X134735238Y-36875714D01*
X134830476Y-36923333D01*
X134878095Y-37018571D01*
X134878095Y-37113809D01*
X134401904Y-37209047D01*
X135306666Y-37542380D02*
X135306666Y-36875714D01*
X135306666Y-37066190D02*
X135354285Y-36970952D01*
X135401904Y-36923333D01*
X135497142Y-36875714D01*
X135592380Y-36875714D01*
X135925714Y-37542380D02*
X135925714Y-36542380D01*
X136401904Y-36875714D02*
X136401904Y-37542380D01*
X136401904Y-36970952D02*
X136449523Y-36923333D01*
X136544761Y-36875714D01*
X136687619Y-36875714D01*
X136782857Y-36923333D01*
X136830476Y-37018571D01*
X136830476Y-37542380D01*
X137830476Y-37542380D02*
X137259047Y-37542380D01*
X137544761Y-37542380D02*
X137544761Y-36542380D01*
X137449523Y-36685238D01*
X137354285Y-36780476D01*
X137259047Y-36828095D01*
X76636666Y-98512380D02*
X76636666Y-99226666D01*
X76589047Y-99369523D01*
X76493809Y-99464761D01*
X76350952Y-99512380D01*
X76255714Y-99512380D01*
X77112857Y-99512380D02*
X77112857Y-98512380D01*
X77493809Y-98512380D01*
X77589047Y-98560000D01*
X77636666Y-98607619D01*
X77684285Y-98702857D01*
X77684285Y-98845714D01*
X77636666Y-98940952D01*
X77589047Y-98988571D01*
X77493809Y-99036190D01*
X77112857Y-99036190D01*
X78636666Y-99512380D02*
X78065238Y-99512380D01*
X78350952Y-99512380D02*
X78350952Y-98512380D01*
X78255714Y-98655238D01*
X78160476Y-98750476D01*
X78065238Y-98798095D01*
X131272380Y-65639523D02*
X131986666Y-65639523D01*
X132129523Y-65687142D01*
X132224761Y-65782380D01*
X132272380Y-65925238D01*
X132272380Y-66020476D01*
X132272380Y-64639523D02*
X132272380Y-65210952D01*
X132272380Y-64925238D02*
X131272380Y-64925238D01*
X131415238Y-65020476D01*
X131510476Y-65115714D01*
X131558095Y-65210952D01*
X131272380Y-64020476D02*
X131272380Y-63925238D01*
X131320000Y-63830000D01*
X131367619Y-63782380D01*
X131462857Y-63734761D01*
X131653333Y-63687142D01*
X131891428Y-63687142D01*
X132081904Y-63734761D01*
X132177142Y-63782380D01*
X132224761Y-63830000D01*
X132272380Y-63925238D01*
X132272380Y-64020476D01*
X132224761Y-64115714D01*
X132177142Y-64163333D01*
X132081904Y-64210952D01*
X131891428Y-64258571D01*
X131653333Y-64258571D01*
X131462857Y-64210952D01*
X131367619Y-64163333D01*
X131320000Y-64115714D01*
X131272380Y-64020476D01*
X131272380Y-76593333D02*
X131986666Y-76593333D01*
X132129523Y-76640952D01*
X132224761Y-76736190D01*
X132272380Y-76879047D01*
X132272380Y-76974285D01*
X132272380Y-76069523D02*
X132272380Y-75879047D01*
X132224761Y-75783809D01*
X132177142Y-75736190D01*
X132034285Y-75640952D01*
X131843809Y-75593333D01*
X131462857Y-75593333D01*
X131367619Y-75640952D01*
X131320000Y-75688571D01*
X131272380Y-75783809D01*
X131272380Y-75974285D01*
X131320000Y-76069523D01*
X131367619Y-76117142D01*
X131462857Y-76164761D01*
X131700952Y-76164761D01*
X131796190Y-76117142D01*
X131843809Y-76069523D01*
X131891428Y-75974285D01*
X131891428Y-75783809D01*
X131843809Y-75688571D01*
X131796190Y-75640952D01*
X131700952Y-75593333D01*
X131272380Y-99453333D02*
X131986666Y-99453333D01*
X132129523Y-99500952D01*
X132224761Y-99596190D01*
X132272380Y-99739047D01*
X132272380Y-99834285D01*
X131700952Y-98834285D02*
X131653333Y-98929523D01*
X131605714Y-98977142D01*
X131510476Y-99024761D01*
X131462857Y-99024761D01*
X131367619Y-98977142D01*
X131320000Y-98929523D01*
X131272380Y-98834285D01*
X131272380Y-98643809D01*
X131320000Y-98548571D01*
X131367619Y-98500952D01*
X131462857Y-98453333D01*
X131510476Y-98453333D01*
X131605714Y-98500952D01*
X131653333Y-98548571D01*
X131700952Y-98643809D01*
X131700952Y-98834285D01*
X131748571Y-98929523D01*
X131796190Y-98977142D01*
X131891428Y-99024761D01*
X132081904Y-99024761D01*
X132177142Y-98977142D01*
X132224761Y-98929523D01*
X132272380Y-98834285D01*
X132272380Y-98643809D01*
X132224761Y-98548571D01*
X132177142Y-98500952D01*
X132081904Y-98453333D01*
X131891428Y-98453333D01*
X131796190Y-98500952D01*
X131748571Y-98548571D01*
X131700952Y-98643809D01*
X68292380Y-99333333D02*
X69006666Y-99333333D01*
X69149523Y-99380952D01*
X69244761Y-99476190D01*
X69292380Y-99619047D01*
X69292380Y-99714285D01*
X68292380Y-98952380D02*
X68292380Y-98285714D01*
X69292380Y-98714285D01*
X93626666Y-36542380D02*
X93626666Y-37256666D01*
X93579047Y-37399523D01*
X93483809Y-37494761D01*
X93340952Y-37542380D01*
X93245714Y-37542380D01*
X94579047Y-36542380D02*
X94102857Y-36542380D01*
X94055238Y-37018571D01*
X94102857Y-36970952D01*
X94198095Y-36923333D01*
X94436190Y-36923333D01*
X94531428Y-36970952D01*
X94579047Y-37018571D01*
X94626666Y-37113809D01*
X94626666Y-37351904D01*
X94579047Y-37447142D01*
X94531428Y-37494761D01*
X94436190Y-37542380D01*
X94198095Y-37542380D01*
X94102857Y-37494761D01*
X94055238Y-37447142D01*
X131272380Y-88023333D02*
X131986666Y-88023333D01*
X132129523Y-88070952D01*
X132224761Y-88166190D01*
X132272380Y-88309047D01*
X132272380Y-88404285D01*
X131605714Y-87118571D02*
X132272380Y-87118571D01*
X131224761Y-87356666D02*
X131939047Y-87594761D01*
X131939047Y-86975714D01*
X68292380Y-87903333D02*
X69006666Y-87903333D01*
X69149523Y-87950952D01*
X69244761Y-88046190D01*
X69292380Y-88189047D01*
X69292380Y-88284285D01*
X68292380Y-87522380D02*
X68292380Y-86903333D01*
X68673333Y-87236666D01*
X68673333Y-87093809D01*
X68720952Y-86998571D01*
X68768571Y-86950952D01*
X68863809Y-86903333D01*
X69101904Y-86903333D01*
X69197142Y-86950952D01*
X69244761Y-86998571D01*
X69292380Y-87093809D01*
X69292380Y-87379523D01*
X69244761Y-87474761D01*
X69197142Y-87522380D01*
X68292380Y-76473333D02*
X69006666Y-76473333D01*
X69149523Y-76520952D01*
X69244761Y-76616190D01*
X69292380Y-76759047D01*
X69292380Y-76854285D01*
X68387619Y-76044761D02*
X68340000Y-75997142D01*
X68292380Y-75901904D01*
X68292380Y-75663809D01*
X68340000Y-75568571D01*
X68387619Y-75520952D01*
X68482857Y-75473333D01*
X68578095Y-75473333D01*
X68720952Y-75520952D01*
X69292380Y-76092380D01*
X69292380Y-75473333D01*
X68292380Y-65043333D02*
X69006666Y-65043333D01*
X69149523Y-65090952D01*
X69244761Y-65186190D01*
X69292380Y-65329047D01*
X69292380Y-65424285D01*
X69292380Y-64043333D02*
X69292380Y-64614761D01*
X69292380Y-64329047D02*
X68292380Y-64329047D01*
X68435238Y-64424285D01*
X68530476Y-64519523D01*
X68578095Y-64614761D01*
X75287142Y-91087142D02*
X75239523Y-91134761D01*
X75096666Y-91182380D01*
X75001428Y-91182380D01*
X74858571Y-91134761D01*
X74763333Y-91039523D01*
X74715714Y-90944285D01*
X74668095Y-90753809D01*
X74668095Y-90610952D01*
X74715714Y-90420476D01*
X74763333Y-90325238D01*
X74858571Y-90230000D01*
X75001428Y-90182380D01*
X75096666Y-90182380D01*
X75239523Y-90230000D01*
X75287142Y-90277619D01*
X76239523Y-91182380D02*
X75668095Y-91182380D01*
X75953809Y-91182380D02*
X75953809Y-90182380D01*
X75858571Y-90325238D01*
X75763333Y-90420476D01*
X75668095Y-90468095D01*
X76858571Y-90182380D02*
X76953809Y-90182380D01*
X77049047Y-90230000D01*
X77096666Y-90277619D01*
X77144285Y-90372857D01*
X77191904Y-90563333D01*
X77191904Y-90801428D01*
X77144285Y-90991904D01*
X77096666Y-91087142D01*
X77049047Y-91134761D01*
X76953809Y-91182380D01*
X76858571Y-91182380D01*
X76763333Y-91134761D01*
X76715714Y-91087142D01*
X76668095Y-90991904D01*
X76620476Y-90801428D01*
X76620476Y-90563333D01*
X76668095Y-90372857D01*
X76715714Y-90277619D01*
X76763333Y-90230000D01*
X76858571Y-90182380D01*
X117907142Y-90066666D02*
X117954761Y-90114285D01*
X118002380Y-90257142D01*
X118002380Y-90352380D01*
X117954761Y-90495238D01*
X117859523Y-90590476D01*
X117764285Y-90638095D01*
X117573809Y-90685714D01*
X117430952Y-90685714D01*
X117240476Y-90638095D01*
X117145238Y-90590476D01*
X117050000Y-90495238D01*
X117002380Y-90352380D01*
X117002380Y-90257142D01*
X117050000Y-90114285D01*
X117097619Y-90066666D01*
X118002380Y-89590476D02*
X118002380Y-89400000D01*
X117954761Y-89304761D01*
X117907142Y-89257142D01*
X117764285Y-89161904D01*
X117573809Y-89114285D01*
X117192857Y-89114285D01*
X117097619Y-89161904D01*
X117050000Y-89209523D01*
X117002380Y-89304761D01*
X117002380Y-89495238D01*
X117050000Y-89590476D01*
X117097619Y-89638095D01*
X117192857Y-89685714D01*
X117430952Y-89685714D01*
X117526190Y-89638095D01*
X117573809Y-89590476D01*
X117621428Y-89495238D01*
X117621428Y-89304761D01*
X117573809Y-89209523D01*
X117526190Y-89161904D01*
X117430952Y-89114285D01*
X95353333Y-49073142D02*
X95305714Y-49120761D01*
X95162857Y-49168380D01*
X95067619Y-49168380D01*
X94924761Y-49120761D01*
X94829523Y-49025523D01*
X94781904Y-48930285D01*
X94734285Y-48739809D01*
X94734285Y-48596952D01*
X94781904Y-48406476D01*
X94829523Y-48311238D01*
X94924761Y-48216000D01*
X95067619Y-48168380D01*
X95162857Y-48168380D01*
X95305714Y-48216000D01*
X95353333Y-48263619D01*
X95924761Y-48596952D02*
X95829523Y-48549333D01*
X95781904Y-48501714D01*
X95734285Y-48406476D01*
X95734285Y-48358857D01*
X95781904Y-48263619D01*
X95829523Y-48216000D01*
X95924761Y-48168380D01*
X96115238Y-48168380D01*
X96210476Y-48216000D01*
X96258095Y-48263619D01*
X96305714Y-48358857D01*
X96305714Y-48406476D01*
X96258095Y-48501714D01*
X96210476Y-48549333D01*
X96115238Y-48596952D01*
X95924761Y-48596952D01*
X95829523Y-48644571D01*
X95781904Y-48692190D01*
X95734285Y-48787428D01*
X95734285Y-48977904D01*
X95781904Y-49073142D01*
X95829523Y-49120761D01*
X95924761Y-49168380D01*
X96115238Y-49168380D01*
X96210476Y-49120761D01*
X96258095Y-49073142D01*
X96305714Y-48977904D01*
X96305714Y-48787428D01*
X96258095Y-48692190D01*
X96210476Y-48644571D01*
X96115238Y-48596952D01*
X82347142Y-37996666D02*
X82394761Y-38044285D01*
X82442380Y-38187142D01*
X82442380Y-38282380D01*
X82394761Y-38425238D01*
X82299523Y-38520476D01*
X82204285Y-38568095D01*
X82013809Y-38615714D01*
X81870952Y-38615714D01*
X81680476Y-38568095D01*
X81585238Y-38520476D01*
X81490000Y-38425238D01*
X81442380Y-38282380D01*
X81442380Y-38187142D01*
X81490000Y-38044285D01*
X81537619Y-37996666D01*
X81442380Y-37663333D02*
X81442380Y-36996666D01*
X82442380Y-37425238D01*
X99568095Y-50462380D02*
X99568095Y-51271904D01*
X99615714Y-51367142D01*
X99663333Y-51414761D01*
X99758571Y-51462380D01*
X99949047Y-51462380D01*
X100044285Y-51414761D01*
X100091904Y-51367142D01*
X100139523Y-51271904D01*
X100139523Y-50462380D01*
X100568095Y-50557619D02*
X100615714Y-50510000D01*
X100710952Y-50462380D01*
X100949047Y-50462380D01*
X101044285Y-50510000D01*
X101091904Y-50557619D01*
X101139523Y-50652857D01*
X101139523Y-50748095D01*
X101091904Y-50890952D01*
X100520476Y-51462380D01*
X101139523Y-51462380D01*
X97342380Y-42671904D02*
X98151904Y-42671904D01*
X98247142Y-42624285D01*
X98294761Y-42576666D01*
X98342380Y-42481428D01*
X98342380Y-42290952D01*
X98294761Y-42195714D01*
X98247142Y-42148095D01*
X98151904Y-42100476D01*
X97342380Y-42100476D01*
X98342380Y-41100476D02*
X98342380Y-41671904D01*
X98342380Y-41386190D02*
X97342380Y-41386190D01*
X97485238Y-41481428D01*
X97580476Y-41576666D01*
X97628095Y-41671904D01*
X125087142Y-63782380D02*
X124753809Y-63306190D01*
X124515714Y-63782380D02*
X124515714Y-62782380D01*
X124896666Y-62782380D01*
X124991904Y-62830000D01*
X125039523Y-62877619D01*
X125087142Y-62972857D01*
X125087142Y-63115714D01*
X125039523Y-63210952D01*
X124991904Y-63258571D01*
X124896666Y-63306190D01*
X124515714Y-63306190D01*
X125468095Y-62877619D02*
X125515714Y-62830000D01*
X125610952Y-62782380D01*
X125849047Y-62782380D01*
X125944285Y-62830000D01*
X125991904Y-62877619D01*
X126039523Y-62972857D01*
X126039523Y-63068095D01*
X125991904Y-63210952D01*
X125420476Y-63782380D01*
X126039523Y-63782380D01*
X126658571Y-62782380D02*
X126753809Y-62782380D01*
X126849047Y-62830000D01*
X126896666Y-62877619D01*
X126944285Y-62972857D01*
X126991904Y-63163333D01*
X126991904Y-63401428D01*
X126944285Y-63591904D01*
X126896666Y-63687142D01*
X126849047Y-63734761D01*
X126753809Y-63782380D01*
X126658571Y-63782380D01*
X126563333Y-63734761D01*
X126515714Y-63687142D01*
X126468095Y-63591904D01*
X126420476Y-63401428D01*
X126420476Y-63163333D01*
X126468095Y-62972857D01*
X126515714Y-62877619D01*
X126563333Y-62830000D01*
X126658571Y-62782380D01*
X125087142Y-66322380D02*
X124753809Y-65846190D01*
X124515714Y-66322380D02*
X124515714Y-65322380D01*
X124896666Y-65322380D01*
X124991904Y-65370000D01*
X125039523Y-65417619D01*
X125087142Y-65512857D01*
X125087142Y-65655714D01*
X125039523Y-65750952D01*
X124991904Y-65798571D01*
X124896666Y-65846190D01*
X124515714Y-65846190D01*
X126039523Y-66322380D02*
X125468095Y-66322380D01*
X125753809Y-66322380D02*
X125753809Y-65322380D01*
X125658571Y-65465238D01*
X125563333Y-65560476D01*
X125468095Y-65608095D01*
X126515714Y-66322380D02*
X126706190Y-66322380D01*
X126801428Y-66274761D01*
X126849047Y-66227142D01*
X126944285Y-66084285D01*
X126991904Y-65893809D01*
X126991904Y-65512857D01*
X126944285Y-65417619D01*
X126896666Y-65370000D01*
X126801428Y-65322380D01*
X126610952Y-65322380D01*
X126515714Y-65370000D01*
X126468095Y-65417619D01*
X126420476Y-65512857D01*
X126420476Y-65750952D01*
X126468095Y-65846190D01*
X126515714Y-65893809D01*
X126610952Y-65941428D01*
X126801428Y-65941428D01*
X126896666Y-65893809D01*
X126944285Y-65846190D01*
X126991904Y-65750952D01*
X125087142Y-68862380D02*
X124753809Y-68386190D01*
X124515714Y-68862380D02*
X124515714Y-67862380D01*
X124896666Y-67862380D01*
X124991904Y-67910000D01*
X125039523Y-67957619D01*
X125087142Y-68052857D01*
X125087142Y-68195714D01*
X125039523Y-68290952D01*
X124991904Y-68338571D01*
X124896666Y-68386190D01*
X124515714Y-68386190D01*
X126039523Y-68862380D02*
X125468095Y-68862380D01*
X125753809Y-68862380D02*
X125753809Y-67862380D01*
X125658571Y-68005238D01*
X125563333Y-68100476D01*
X125468095Y-68148095D01*
X126610952Y-68290952D02*
X126515714Y-68243333D01*
X126468095Y-68195714D01*
X126420476Y-68100476D01*
X126420476Y-68052857D01*
X126468095Y-67957619D01*
X126515714Y-67910000D01*
X126610952Y-67862380D01*
X126801428Y-67862380D01*
X126896666Y-67910000D01*
X126944285Y-67957619D01*
X126991904Y-68052857D01*
X126991904Y-68100476D01*
X126944285Y-68195714D01*
X126896666Y-68243333D01*
X126801428Y-68290952D01*
X126610952Y-68290952D01*
X126515714Y-68338571D01*
X126468095Y-68386190D01*
X126420476Y-68481428D01*
X126420476Y-68671904D01*
X126468095Y-68767142D01*
X126515714Y-68814761D01*
X126610952Y-68862380D01*
X126801428Y-68862380D01*
X126896666Y-68814761D01*
X126944285Y-68767142D01*
X126991904Y-68671904D01*
X126991904Y-68481428D01*
X126944285Y-68386190D01*
X126896666Y-68338571D01*
X126801428Y-68290952D01*
X125087142Y-71402380D02*
X124753809Y-70926190D01*
X124515714Y-71402380D02*
X124515714Y-70402380D01*
X124896666Y-70402380D01*
X124991904Y-70450000D01*
X125039523Y-70497619D01*
X125087142Y-70592857D01*
X125087142Y-70735714D01*
X125039523Y-70830952D01*
X124991904Y-70878571D01*
X124896666Y-70926190D01*
X124515714Y-70926190D01*
X126039523Y-71402380D02*
X125468095Y-71402380D01*
X125753809Y-71402380D02*
X125753809Y-70402380D01*
X125658571Y-70545238D01*
X125563333Y-70640476D01*
X125468095Y-70688095D01*
X126372857Y-70402380D02*
X127039523Y-70402380D01*
X126610952Y-71402380D01*
X125087142Y-75212380D02*
X124753809Y-74736190D01*
X124515714Y-75212380D02*
X124515714Y-74212380D01*
X124896666Y-74212380D01*
X124991904Y-74260000D01*
X125039523Y-74307619D01*
X125087142Y-74402857D01*
X125087142Y-74545714D01*
X125039523Y-74640952D01*
X124991904Y-74688571D01*
X124896666Y-74736190D01*
X124515714Y-74736190D01*
X126039523Y-75212380D02*
X125468095Y-75212380D01*
X125753809Y-75212380D02*
X125753809Y-74212380D01*
X125658571Y-74355238D01*
X125563333Y-74450476D01*
X125468095Y-74498095D01*
X126896666Y-74212380D02*
X126706190Y-74212380D01*
X126610952Y-74260000D01*
X126563333Y-74307619D01*
X126468095Y-74450476D01*
X126420476Y-74640952D01*
X126420476Y-75021904D01*
X126468095Y-75117142D01*
X126515714Y-75164761D01*
X126610952Y-75212380D01*
X126801428Y-75212380D01*
X126896666Y-75164761D01*
X126944285Y-75117142D01*
X126991904Y-75021904D01*
X126991904Y-74783809D01*
X126944285Y-74688571D01*
X126896666Y-74640952D01*
X126801428Y-74593333D01*
X126610952Y-74593333D01*
X126515714Y-74640952D01*
X126468095Y-74688571D01*
X126420476Y-74783809D01*
X125087142Y-77752380D02*
X124753809Y-77276190D01*
X124515714Y-77752380D02*
X124515714Y-76752380D01*
X124896666Y-76752380D01*
X124991904Y-76800000D01*
X125039523Y-76847619D01*
X125087142Y-76942857D01*
X125087142Y-77085714D01*
X125039523Y-77180952D01*
X124991904Y-77228571D01*
X124896666Y-77276190D01*
X124515714Y-77276190D01*
X126039523Y-77752380D02*
X125468095Y-77752380D01*
X125753809Y-77752380D02*
X125753809Y-76752380D01*
X125658571Y-76895238D01*
X125563333Y-76990476D01*
X125468095Y-77038095D01*
X126944285Y-76752380D02*
X126468095Y-76752380D01*
X126420476Y-77228571D01*
X126468095Y-77180952D01*
X126563333Y-77133333D01*
X126801428Y-77133333D01*
X126896666Y-77180952D01*
X126944285Y-77228571D01*
X126991904Y-77323809D01*
X126991904Y-77561904D01*
X126944285Y-77657142D01*
X126896666Y-77704761D01*
X126801428Y-77752380D01*
X126563333Y-77752380D01*
X126468095Y-77704761D01*
X126420476Y-77657142D01*
X125087142Y-80292380D02*
X124753809Y-79816190D01*
X124515714Y-80292380D02*
X124515714Y-79292380D01*
X124896666Y-79292380D01*
X124991904Y-79340000D01*
X125039523Y-79387619D01*
X125087142Y-79482857D01*
X125087142Y-79625714D01*
X125039523Y-79720952D01*
X124991904Y-79768571D01*
X124896666Y-79816190D01*
X124515714Y-79816190D01*
X126039523Y-80292380D02*
X125468095Y-80292380D01*
X125753809Y-80292380D02*
X125753809Y-79292380D01*
X125658571Y-79435238D01*
X125563333Y-79530476D01*
X125468095Y-79578095D01*
X126896666Y-79625714D02*
X126896666Y-80292380D01*
X126658571Y-79244761D02*
X126420476Y-79959047D01*
X127039523Y-79959047D01*
X125087142Y-82832380D02*
X124753809Y-82356190D01*
X124515714Y-82832380D02*
X124515714Y-81832380D01*
X124896666Y-81832380D01*
X124991904Y-81880000D01*
X125039523Y-81927619D01*
X125087142Y-82022857D01*
X125087142Y-82165714D01*
X125039523Y-82260952D01*
X124991904Y-82308571D01*
X124896666Y-82356190D01*
X124515714Y-82356190D01*
X126039523Y-82832380D02*
X125468095Y-82832380D01*
X125753809Y-82832380D02*
X125753809Y-81832380D01*
X125658571Y-81975238D01*
X125563333Y-82070476D01*
X125468095Y-82118095D01*
X126372857Y-81832380D02*
X126991904Y-81832380D01*
X126658571Y-82213333D01*
X126801428Y-82213333D01*
X126896666Y-82260952D01*
X126944285Y-82308571D01*
X126991904Y-82403809D01*
X126991904Y-82641904D01*
X126944285Y-82737142D01*
X126896666Y-82784761D01*
X126801428Y-82832380D01*
X126515714Y-82832380D01*
X126420476Y-82784761D01*
X126372857Y-82737142D01*
X114927142Y-48542380D02*
X114593809Y-48066190D01*
X114355714Y-48542380D02*
X114355714Y-47542380D01*
X114736666Y-47542380D01*
X114831904Y-47590000D01*
X114879523Y-47637619D01*
X114927142Y-47732857D01*
X114927142Y-47875714D01*
X114879523Y-47970952D01*
X114831904Y-48018571D01*
X114736666Y-48066190D01*
X114355714Y-48066190D01*
X115879523Y-48542380D02*
X115308095Y-48542380D01*
X115593809Y-48542380D02*
X115593809Y-47542380D01*
X115498571Y-47685238D01*
X115403333Y-47780476D01*
X115308095Y-47828095D01*
X116260476Y-47637619D02*
X116308095Y-47590000D01*
X116403333Y-47542380D01*
X116641428Y-47542380D01*
X116736666Y-47590000D01*
X116784285Y-47637619D01*
X116831904Y-47732857D01*
X116831904Y-47828095D01*
X116784285Y-47970952D01*
X116212857Y-48542380D01*
X116831904Y-48542380D01*
X82832380Y-50172857D02*
X82356190Y-50506190D01*
X82832380Y-50744285D02*
X81832380Y-50744285D01*
X81832380Y-50363333D01*
X81880000Y-50268095D01*
X81927619Y-50220476D01*
X82022857Y-50172857D01*
X82165714Y-50172857D01*
X82260952Y-50220476D01*
X82308571Y-50268095D01*
X82356190Y-50363333D01*
X82356190Y-50744285D01*
X82832380Y-49220476D02*
X82832380Y-49791904D01*
X82832380Y-49506190D02*
X81832380Y-49506190D01*
X81975238Y-49601428D01*
X82070476Y-49696666D01*
X82118095Y-49791904D01*
X82832380Y-48268095D02*
X82832380Y-48839523D01*
X82832380Y-48553809D02*
X81832380Y-48553809D01*
X81975238Y-48649047D01*
X82070476Y-48744285D01*
X82118095Y-48839523D01*
X117122380Y-40012857D02*
X116646190Y-40346190D01*
X117122380Y-40584285D02*
X116122380Y-40584285D01*
X116122380Y-40203333D01*
X116170000Y-40108095D01*
X116217619Y-40060476D01*
X116312857Y-40012857D01*
X116455714Y-40012857D01*
X116550952Y-40060476D01*
X116598571Y-40108095D01*
X116646190Y-40203333D01*
X116646190Y-40584285D01*
X117122380Y-39060476D02*
X117122380Y-39631904D01*
X117122380Y-39346190D02*
X116122380Y-39346190D01*
X116265238Y-39441428D01*
X116360476Y-39536666D01*
X116408095Y-39631904D01*
X116122380Y-38441428D02*
X116122380Y-38346190D01*
X116170000Y-38250952D01*
X116217619Y-38203333D01*
X116312857Y-38155714D01*
X116503333Y-38108095D01*
X116741428Y-38108095D01*
X116931904Y-38155714D01*
X117027142Y-38203333D01*
X117074761Y-38250952D01*
X117122380Y-38346190D01*
X117122380Y-38441428D01*
X117074761Y-38536666D01*
X117027142Y-38584285D01*
X116931904Y-38631904D01*
X116741428Y-38679523D01*
X116503333Y-38679523D01*
X116312857Y-38631904D01*
X116217619Y-38584285D01*
X116170000Y-38536666D01*
X116122380Y-38441428D01*
X86642380Y-49696666D02*
X86166190Y-50030000D01*
X86642380Y-50268095D02*
X85642380Y-50268095D01*
X85642380Y-49887142D01*
X85690000Y-49791904D01*
X85737619Y-49744285D01*
X85832857Y-49696666D01*
X85975714Y-49696666D01*
X86070952Y-49744285D01*
X86118571Y-49791904D01*
X86166190Y-49887142D01*
X86166190Y-50268095D01*
X86642380Y-49220476D02*
X86642380Y-49030000D01*
X86594761Y-48934761D01*
X86547142Y-48887142D01*
X86404285Y-48791904D01*
X86213809Y-48744285D01*
X85832857Y-48744285D01*
X85737619Y-48791904D01*
X85690000Y-48839523D01*
X85642380Y-48934761D01*
X85642380Y-49125238D01*
X85690000Y-49220476D01*
X85737619Y-49268095D01*
X85832857Y-49315714D01*
X86070952Y-49315714D01*
X86166190Y-49268095D01*
X86213809Y-49220476D01*
X86261428Y-49125238D01*
X86261428Y-48934761D01*
X86213809Y-48839523D01*
X86166190Y-48791904D01*
X86070952Y-48744285D01*
X74763333Y-78092380D02*
X74430000Y-77616190D01*
X74191904Y-78092380D02*
X74191904Y-77092380D01*
X74572857Y-77092380D01*
X74668095Y-77140000D01*
X74715714Y-77187619D01*
X74763333Y-77282857D01*
X74763333Y-77425714D01*
X74715714Y-77520952D01*
X74668095Y-77568571D01*
X74572857Y-77616190D01*
X74191904Y-77616190D01*
X75334761Y-77520952D02*
X75239523Y-77473333D01*
X75191904Y-77425714D01*
X75144285Y-77330476D01*
X75144285Y-77282857D01*
X75191904Y-77187619D01*
X75239523Y-77140000D01*
X75334761Y-77092380D01*
X75525238Y-77092380D01*
X75620476Y-77140000D01*
X75668095Y-77187619D01*
X75715714Y-77282857D01*
X75715714Y-77330476D01*
X75668095Y-77425714D01*
X75620476Y-77473333D01*
X75525238Y-77520952D01*
X75334761Y-77520952D01*
X75239523Y-77568571D01*
X75191904Y-77616190D01*
X75144285Y-77711428D01*
X75144285Y-77901904D01*
X75191904Y-77997142D01*
X75239523Y-78044761D01*
X75334761Y-78092380D01*
X75525238Y-78092380D01*
X75620476Y-78044761D01*
X75668095Y-77997142D01*
X75715714Y-77901904D01*
X75715714Y-77711428D01*
X75668095Y-77616190D01*
X75620476Y-77568571D01*
X75525238Y-77520952D01*
X74763333Y-75552380D02*
X74430000Y-75076190D01*
X74191904Y-75552380D02*
X74191904Y-74552380D01*
X74572857Y-74552380D01*
X74668095Y-74600000D01*
X74715714Y-74647619D01*
X74763333Y-74742857D01*
X74763333Y-74885714D01*
X74715714Y-74980952D01*
X74668095Y-75028571D01*
X74572857Y-75076190D01*
X74191904Y-75076190D01*
X75096666Y-74552380D02*
X75763333Y-74552380D01*
X75334761Y-75552380D01*
X74763333Y-73012380D02*
X74430000Y-72536190D01*
X74191904Y-73012380D02*
X74191904Y-72012380D01*
X74572857Y-72012380D01*
X74668095Y-72060000D01*
X74715714Y-72107619D01*
X74763333Y-72202857D01*
X74763333Y-72345714D01*
X74715714Y-72440952D01*
X74668095Y-72488571D01*
X74572857Y-72536190D01*
X74191904Y-72536190D01*
X75620476Y-72012380D02*
X75430000Y-72012380D01*
X75334761Y-72060000D01*
X75287142Y-72107619D01*
X75191904Y-72250476D01*
X75144285Y-72440952D01*
X75144285Y-72821904D01*
X75191904Y-72917142D01*
X75239523Y-72964761D01*
X75334761Y-73012380D01*
X75525238Y-73012380D01*
X75620476Y-72964761D01*
X75668095Y-72917142D01*
X75715714Y-72821904D01*
X75715714Y-72583809D01*
X75668095Y-72488571D01*
X75620476Y-72440952D01*
X75525238Y-72393333D01*
X75334761Y-72393333D01*
X75239523Y-72440952D01*
X75191904Y-72488571D01*
X75144285Y-72583809D01*
X74763333Y-70472380D02*
X74430000Y-69996190D01*
X74191904Y-70472380D02*
X74191904Y-69472380D01*
X74572857Y-69472380D01*
X74668095Y-69520000D01*
X74715714Y-69567619D01*
X74763333Y-69662857D01*
X74763333Y-69805714D01*
X74715714Y-69900952D01*
X74668095Y-69948571D01*
X74572857Y-69996190D01*
X74191904Y-69996190D01*
X75668095Y-69472380D02*
X75191904Y-69472380D01*
X75144285Y-69948571D01*
X75191904Y-69900952D01*
X75287142Y-69853333D01*
X75525238Y-69853333D01*
X75620476Y-69900952D01*
X75668095Y-69948571D01*
X75715714Y-70043809D01*
X75715714Y-70281904D01*
X75668095Y-70377142D01*
X75620476Y-70424761D01*
X75525238Y-70472380D01*
X75287142Y-70472380D01*
X75191904Y-70424761D01*
X75144285Y-70377142D01*
X74763333Y-66662380D02*
X74430000Y-66186190D01*
X74191904Y-66662380D02*
X74191904Y-65662380D01*
X74572857Y-65662380D01*
X74668095Y-65710000D01*
X74715714Y-65757619D01*
X74763333Y-65852857D01*
X74763333Y-65995714D01*
X74715714Y-66090952D01*
X74668095Y-66138571D01*
X74572857Y-66186190D01*
X74191904Y-66186190D01*
X75620476Y-65995714D02*
X75620476Y-66662380D01*
X75382380Y-65614761D02*
X75144285Y-66329047D01*
X75763333Y-66329047D01*
X74763333Y-64122380D02*
X74430000Y-63646190D01*
X74191904Y-64122380D02*
X74191904Y-63122380D01*
X74572857Y-63122380D01*
X74668095Y-63170000D01*
X74715714Y-63217619D01*
X74763333Y-63312857D01*
X74763333Y-63455714D01*
X74715714Y-63550952D01*
X74668095Y-63598571D01*
X74572857Y-63646190D01*
X74191904Y-63646190D01*
X75096666Y-63122380D02*
X75715714Y-63122380D01*
X75382380Y-63503333D01*
X75525238Y-63503333D01*
X75620476Y-63550952D01*
X75668095Y-63598571D01*
X75715714Y-63693809D01*
X75715714Y-63931904D01*
X75668095Y-64027142D01*
X75620476Y-64074761D01*
X75525238Y-64122380D01*
X75239523Y-64122380D01*
X75144285Y-64074761D01*
X75096666Y-64027142D01*
X74763333Y-61582380D02*
X74430000Y-61106190D01*
X74191904Y-61582380D02*
X74191904Y-60582380D01*
X74572857Y-60582380D01*
X74668095Y-60630000D01*
X74715714Y-60677619D01*
X74763333Y-60772857D01*
X74763333Y-60915714D01*
X74715714Y-61010952D01*
X74668095Y-61058571D01*
X74572857Y-61106190D01*
X74191904Y-61106190D01*
X75144285Y-60677619D02*
X75191904Y-60630000D01*
X75287142Y-60582380D01*
X75525238Y-60582380D01*
X75620476Y-60630000D01*
X75668095Y-60677619D01*
X75715714Y-60772857D01*
X75715714Y-60868095D01*
X75668095Y-61010952D01*
X75096666Y-61582380D01*
X75715714Y-61582380D01*
X74763333Y-59042380D02*
X74430000Y-58566190D01*
X74191904Y-59042380D02*
X74191904Y-58042380D01*
X74572857Y-58042380D01*
X74668095Y-58090000D01*
X74715714Y-58137619D01*
X74763333Y-58232857D01*
X74763333Y-58375714D01*
X74715714Y-58470952D01*
X74668095Y-58518571D01*
X74572857Y-58566190D01*
X74191904Y-58566190D01*
X75715714Y-59042380D02*
X75144285Y-59042380D01*
X75430000Y-59042380D02*
X75430000Y-58042380D01*
X75334761Y-58185238D01*
X75239523Y-58280476D01*
X75144285Y-58328095D01*
X118522380Y-51101523D02*
X117522380Y-51101523D01*
X118236666Y-50768190D01*
X117522380Y-50434857D01*
X118522380Y-50434857D01*
X118522380Y-49434857D02*
X118522380Y-50006285D01*
X118522380Y-49720571D02*
X117522380Y-49720571D01*
X117665238Y-49815809D01*
X117760476Y-49911047D01*
X117808095Y-50006285D01*
X124096666Y-45112380D02*
X124096666Y-45826666D01*
X124049047Y-45969523D01*
X123953809Y-46064761D01*
X123810952Y-46112380D01*
X123715714Y-46112380D01*
X125001428Y-45112380D02*
X124810952Y-45112380D01*
X124715714Y-45160000D01*
X124668095Y-45207619D01*
X124572857Y-45350476D01*
X124525238Y-45540952D01*
X124525238Y-45921904D01*
X124572857Y-46017142D01*
X124620476Y-46064761D01*
X124715714Y-46112380D01*
X124906190Y-46112380D01*
X125001428Y-46064761D01*
X125049047Y-46017142D01*
X125096666Y-45921904D01*
X125096666Y-45683809D01*
X125049047Y-45588571D01*
X125001428Y-45540952D01*
X124906190Y-45493333D01*
X124715714Y-45493333D01*
X124620476Y-45540952D01*
X124572857Y-45588571D01*
X124525238Y-45683809D01*
X128702142Y-48791666D02*
X128749761Y-48839285D01*
X128797380Y-48982142D01*
X128797380Y-49077380D01*
X128749761Y-49220238D01*
X128654523Y-49315476D01*
X128559285Y-49363095D01*
X128368809Y-49410714D01*
X128225952Y-49410714D01*
X128035476Y-49363095D01*
X127940238Y-49315476D01*
X127845000Y-49220238D01*
X127797380Y-49077380D01*
X127797380Y-48982142D01*
X127845000Y-48839285D01*
X127892619Y-48791666D01*
X127797380Y-47934523D02*
X127797380Y-48125000D01*
X127845000Y-48220238D01*
X127892619Y-48267857D01*
X128035476Y-48363095D01*
X128225952Y-48410714D01*
X128606904Y-48410714D01*
X128702142Y-48363095D01*
X128749761Y-48315476D01*
X128797380Y-48220238D01*
X128797380Y-48029761D01*
X128749761Y-47934523D01*
X128702142Y-47886904D01*
X128606904Y-47839285D01*
X128368809Y-47839285D01*
X128273571Y-47886904D01*
X128225952Y-47934523D01*
X128178333Y-48029761D01*
X128178333Y-48220238D01*
X128225952Y-48315476D01*
X128273571Y-48363095D01*
X128368809Y-48410714D01*
X114403333Y-83617142D02*
X114355714Y-83664761D01*
X114212857Y-83712380D01*
X114117619Y-83712380D01*
X113974761Y-83664761D01*
X113879523Y-83569523D01*
X113831904Y-83474285D01*
X113784285Y-83283809D01*
X113784285Y-83140952D01*
X113831904Y-82950476D01*
X113879523Y-82855238D01*
X113974761Y-82760000D01*
X114117619Y-82712380D01*
X114212857Y-82712380D01*
X114355714Y-82760000D01*
X114403333Y-82807619D01*
X115308095Y-82712380D02*
X114831904Y-82712380D01*
X114784285Y-83188571D01*
X114831904Y-83140952D01*
X114927142Y-83093333D01*
X115165238Y-83093333D01*
X115260476Y-83140952D01*
X115308095Y-83188571D01*
X115355714Y-83283809D01*
X115355714Y-83521904D01*
X115308095Y-83617142D01*
X115260476Y-83664761D01*
X115165238Y-83712380D01*
X114927142Y-83712380D01*
X114831904Y-83664761D01*
X114784285Y-83617142D01*
X91237142Y-79906666D02*
X91284761Y-79954285D01*
X91332380Y-80097142D01*
X91332380Y-80192380D01*
X91284761Y-80335238D01*
X91189523Y-80430476D01*
X91094285Y-80478095D01*
X90903809Y-80525714D01*
X90760952Y-80525714D01*
X90570476Y-80478095D01*
X90475238Y-80430476D01*
X90380000Y-80335238D01*
X90332380Y-80192380D01*
X90332380Y-80097142D01*
X90380000Y-79954285D01*
X90427619Y-79906666D01*
X90665714Y-79049523D02*
X91332380Y-79049523D01*
X90284761Y-79287619D02*
X90999047Y-79525714D01*
X90999047Y-78906666D01*
X124257142Y-56411666D02*
X124304761Y-56459285D01*
X124352380Y-56602142D01*
X124352380Y-56697380D01*
X124304761Y-56840238D01*
X124209523Y-56935476D01*
X124114285Y-56983095D01*
X123923809Y-57030714D01*
X123780952Y-57030714D01*
X123590476Y-56983095D01*
X123495238Y-56935476D01*
X123400000Y-56840238D01*
X123352380Y-56697380D01*
X123352380Y-56602142D01*
X123400000Y-56459285D01*
X123447619Y-56411666D01*
X123352380Y-56078333D02*
X123352380Y-55459285D01*
X123733333Y-55792619D01*
X123733333Y-55649761D01*
X123780952Y-55554523D01*
X123828571Y-55506904D01*
X123923809Y-55459285D01*
X124161904Y-55459285D01*
X124257142Y-55506904D01*
X124304761Y-55554523D01*
X124352380Y-55649761D01*
X124352380Y-55935476D01*
X124304761Y-56030714D01*
X124257142Y-56078333D01*
X117757142Y-51236666D02*
X117804761Y-51284285D01*
X117852380Y-51427142D01*
X117852380Y-51522380D01*
X117804761Y-51665238D01*
X117709523Y-51760476D01*
X117614285Y-51808095D01*
X117423809Y-51855714D01*
X117280952Y-51855714D01*
X117090476Y-51808095D01*
X116995238Y-51760476D01*
X116900000Y-51665238D01*
X116852380Y-51522380D01*
X116852380Y-51427142D01*
X116900000Y-51284285D01*
X116947619Y-51236666D01*
X116947619Y-50855714D02*
X116900000Y-50808095D01*
X116852380Y-50712857D01*
X116852380Y-50474761D01*
X116900000Y-50379523D01*
X116947619Y-50331904D01*
X117042857Y-50284285D01*
X117138095Y-50284285D01*
X117280952Y-50331904D01*
X117852380Y-50903333D01*
X117852380Y-50284285D01*
X107513333Y-31397142D02*
X107465714Y-31444761D01*
X107322857Y-31492380D01*
X107227619Y-31492380D01*
X107084761Y-31444761D01*
X106989523Y-31349523D01*
X106941904Y-31254285D01*
X106894285Y-31063809D01*
X106894285Y-30920952D01*
X106941904Y-30730476D01*
X106989523Y-30635238D01*
X107084761Y-30540000D01*
X107227619Y-30492380D01*
X107322857Y-30492380D01*
X107465714Y-30540000D01*
X107513333Y-30587619D01*
X108465714Y-31492380D02*
X107894285Y-31492380D01*
X108180000Y-31492380D02*
X108180000Y-30492380D01*
X108084761Y-30635238D01*
X107989523Y-30730476D01*
X107894285Y-30778095D01*
M02*
