G04 #@! TF.GenerationSoftware,KiCad,Pcbnew,5.1.0-060a0da~80~ubuntu16.04.1*
G04 #@! TF.CreationDate,2019-03-26T00:44:10-06:00*
G04 #@! TF.ProjectId,ARES_PCB_1,41524553-5f50-4434-925f-312e6b696361,rev?*
G04 #@! TF.SameCoordinates,Original*
G04 #@! TF.FileFunction,Soldermask,Top*
G04 #@! TF.FilePolarity,Negative*
%FSLAX46Y46*%
G04 Gerber Fmt 4.6, Leading zero omitted, Abs format (unit mm)*
G04 Created by KiCad (PCBNEW 5.1.0-060a0da~80~ubuntu16.04.1) date 2019-03-26 00:44:10*
%MOMM*%
%LPD*%
G04 APERTURE LIST*
%ADD10C,6.000000*%
%ADD11C,2.000000*%
%ADD12C,1.600000*%
%ADD13O,1.600000X1.600000*%
%ADD14O,1.700000X2.000000*%
%ADD15C,0.020000*%
%ADD16C,1.700000*%
%ADD17C,3.500120*%
%ADD18R,3.500120X3.500120*%
%ADD19O,1.950000X1.700000*%
%ADD20C,1.200000*%
%ADD21R,1.200000X1.200000*%
%ADD22O,2.400000X1.600000*%
%ADD23R,2.400000X1.600000*%
%ADD24R,0.450000X1.750000*%
%ADD25R,0.800000X1.800000*%
%ADD26O,0.850000X1.850000*%
%ADD27C,0.840000*%
%ADD28R,0.840000X0.840000*%
G04 APERTURE END LIST*
D10*
X130810000Y-49530000D03*
X130810000Y-111760000D03*
X69850000Y-111760000D03*
X69850000Y-49530000D03*
D11*
X73810000Y-35560000D03*
X73810000Y-40060000D03*
X64770000Y-35560000D03*
X64770000Y-40060000D03*
D12*
X71120000Y-93980000D03*
D13*
X71120000Y-104140000D03*
X83820000Y-87630000D03*
D12*
X73660000Y-87630000D03*
D13*
X119380000Y-88900000D03*
D12*
X119380000Y-99060000D03*
D13*
X97790000Y-49784000D03*
D12*
X87630000Y-49784000D03*
D14*
X133390000Y-34290000D03*
D15*
G36*
X136514504Y-33291204D02*
G01*
X136538773Y-33294804D01*
X136562571Y-33300765D01*
X136585671Y-33309030D01*
X136607849Y-33319520D01*
X136628893Y-33332133D01*
X136648598Y-33346747D01*
X136666777Y-33363223D01*
X136683253Y-33381402D01*
X136697867Y-33401107D01*
X136710480Y-33422151D01*
X136720970Y-33444329D01*
X136729235Y-33467429D01*
X136735196Y-33491227D01*
X136738796Y-33515496D01*
X136740000Y-33540000D01*
X136740000Y-35040000D01*
X136738796Y-35064504D01*
X136735196Y-35088773D01*
X136729235Y-35112571D01*
X136720970Y-35135671D01*
X136710480Y-35157849D01*
X136697867Y-35178893D01*
X136683253Y-35198598D01*
X136666777Y-35216777D01*
X136648598Y-35233253D01*
X136628893Y-35247867D01*
X136607849Y-35260480D01*
X136585671Y-35270970D01*
X136562571Y-35279235D01*
X136538773Y-35285196D01*
X136514504Y-35288796D01*
X136490000Y-35290000D01*
X135290000Y-35290000D01*
X135265496Y-35288796D01*
X135241227Y-35285196D01*
X135217429Y-35279235D01*
X135194329Y-35270970D01*
X135172151Y-35260480D01*
X135151107Y-35247867D01*
X135131402Y-35233253D01*
X135113223Y-35216777D01*
X135096747Y-35198598D01*
X135082133Y-35178893D01*
X135069520Y-35157849D01*
X135059030Y-35135671D01*
X135050765Y-35112571D01*
X135044804Y-35088773D01*
X135041204Y-35064504D01*
X135040000Y-35040000D01*
X135040000Y-33540000D01*
X135041204Y-33515496D01*
X135044804Y-33491227D01*
X135050765Y-33467429D01*
X135059030Y-33444329D01*
X135069520Y-33422151D01*
X135082133Y-33401107D01*
X135096747Y-33381402D01*
X135113223Y-33363223D01*
X135131402Y-33346747D01*
X135151107Y-33332133D01*
X135172151Y-33319520D01*
X135194329Y-33309030D01*
X135217429Y-33300765D01*
X135241227Y-33294804D01*
X135265496Y-33291204D01*
X135290000Y-33290000D01*
X136490000Y-33290000D01*
X136514504Y-33291204D01*
X136514504Y-33291204D01*
G37*
D16*
X135890000Y-34290000D03*
D17*
X80010000Y-102870000D03*
D18*
X74930000Y-102870000D03*
D19*
X134620000Y-61080000D03*
X134620000Y-63580000D03*
X134620000Y-66080000D03*
D15*
G36*
X135369504Y-67731204D02*
G01*
X135393773Y-67734804D01*
X135417571Y-67740765D01*
X135440671Y-67749030D01*
X135462849Y-67759520D01*
X135483893Y-67772133D01*
X135503598Y-67786747D01*
X135521777Y-67803223D01*
X135538253Y-67821402D01*
X135552867Y-67841107D01*
X135565480Y-67862151D01*
X135575970Y-67884329D01*
X135584235Y-67907429D01*
X135590196Y-67931227D01*
X135593796Y-67955496D01*
X135595000Y-67980000D01*
X135595000Y-69180000D01*
X135593796Y-69204504D01*
X135590196Y-69228773D01*
X135584235Y-69252571D01*
X135575970Y-69275671D01*
X135565480Y-69297849D01*
X135552867Y-69318893D01*
X135538253Y-69338598D01*
X135521777Y-69356777D01*
X135503598Y-69373253D01*
X135483893Y-69387867D01*
X135462849Y-69400480D01*
X135440671Y-69410970D01*
X135417571Y-69419235D01*
X135393773Y-69425196D01*
X135369504Y-69428796D01*
X135345000Y-69430000D01*
X133895000Y-69430000D01*
X133870496Y-69428796D01*
X133846227Y-69425196D01*
X133822429Y-69419235D01*
X133799329Y-69410970D01*
X133777151Y-69400480D01*
X133756107Y-69387867D01*
X133736402Y-69373253D01*
X133718223Y-69356777D01*
X133701747Y-69338598D01*
X133687133Y-69318893D01*
X133674520Y-69297849D01*
X133664030Y-69275671D01*
X133655765Y-69252571D01*
X133649804Y-69228773D01*
X133646204Y-69204504D01*
X133645000Y-69180000D01*
X133645000Y-67980000D01*
X133646204Y-67955496D01*
X133649804Y-67931227D01*
X133655765Y-67907429D01*
X133664030Y-67884329D01*
X133674520Y-67862151D01*
X133687133Y-67841107D01*
X133701747Y-67821402D01*
X133718223Y-67803223D01*
X133736402Y-67786747D01*
X133756107Y-67772133D01*
X133777151Y-67759520D01*
X133799329Y-67749030D01*
X133822429Y-67740765D01*
X133846227Y-67734804D01*
X133870496Y-67731204D01*
X133895000Y-67730000D01*
X135345000Y-67730000D01*
X135369504Y-67731204D01*
X135369504Y-67731204D01*
G37*
D16*
X134620000Y-68580000D03*
D19*
X134620000Y-72510000D03*
X134620000Y-75010000D03*
X134620000Y-77510000D03*
D15*
G36*
X135369504Y-79161204D02*
G01*
X135393773Y-79164804D01*
X135417571Y-79170765D01*
X135440671Y-79179030D01*
X135462849Y-79189520D01*
X135483893Y-79202133D01*
X135503598Y-79216747D01*
X135521777Y-79233223D01*
X135538253Y-79251402D01*
X135552867Y-79271107D01*
X135565480Y-79292151D01*
X135575970Y-79314329D01*
X135584235Y-79337429D01*
X135590196Y-79361227D01*
X135593796Y-79385496D01*
X135595000Y-79410000D01*
X135595000Y-80610000D01*
X135593796Y-80634504D01*
X135590196Y-80658773D01*
X135584235Y-80682571D01*
X135575970Y-80705671D01*
X135565480Y-80727849D01*
X135552867Y-80748893D01*
X135538253Y-80768598D01*
X135521777Y-80786777D01*
X135503598Y-80803253D01*
X135483893Y-80817867D01*
X135462849Y-80830480D01*
X135440671Y-80840970D01*
X135417571Y-80849235D01*
X135393773Y-80855196D01*
X135369504Y-80858796D01*
X135345000Y-80860000D01*
X133895000Y-80860000D01*
X133870496Y-80858796D01*
X133846227Y-80855196D01*
X133822429Y-80849235D01*
X133799329Y-80840970D01*
X133777151Y-80830480D01*
X133756107Y-80817867D01*
X133736402Y-80803253D01*
X133718223Y-80786777D01*
X133701747Y-80768598D01*
X133687133Y-80748893D01*
X133674520Y-80727849D01*
X133664030Y-80705671D01*
X133655765Y-80682571D01*
X133649804Y-80658773D01*
X133646204Y-80634504D01*
X133645000Y-80610000D01*
X133645000Y-79410000D01*
X133646204Y-79385496D01*
X133649804Y-79361227D01*
X133655765Y-79337429D01*
X133664030Y-79314329D01*
X133674520Y-79292151D01*
X133687133Y-79271107D01*
X133701747Y-79251402D01*
X133718223Y-79233223D01*
X133736402Y-79216747D01*
X133756107Y-79202133D01*
X133777151Y-79189520D01*
X133799329Y-79179030D01*
X133822429Y-79170765D01*
X133846227Y-79164804D01*
X133870496Y-79161204D01*
X133895000Y-79160000D01*
X135345000Y-79160000D01*
X135369504Y-79161204D01*
X135369504Y-79161204D01*
G37*
D16*
X134620000Y-80010000D03*
D15*
G36*
X135369504Y-102021204D02*
G01*
X135393773Y-102024804D01*
X135417571Y-102030765D01*
X135440671Y-102039030D01*
X135462849Y-102049520D01*
X135483893Y-102062133D01*
X135503598Y-102076747D01*
X135521777Y-102093223D01*
X135538253Y-102111402D01*
X135552867Y-102131107D01*
X135565480Y-102152151D01*
X135575970Y-102174329D01*
X135584235Y-102197429D01*
X135590196Y-102221227D01*
X135593796Y-102245496D01*
X135595000Y-102270000D01*
X135595000Y-103470000D01*
X135593796Y-103494504D01*
X135590196Y-103518773D01*
X135584235Y-103542571D01*
X135575970Y-103565671D01*
X135565480Y-103587849D01*
X135552867Y-103608893D01*
X135538253Y-103628598D01*
X135521777Y-103646777D01*
X135503598Y-103663253D01*
X135483893Y-103677867D01*
X135462849Y-103690480D01*
X135440671Y-103700970D01*
X135417571Y-103709235D01*
X135393773Y-103715196D01*
X135369504Y-103718796D01*
X135345000Y-103720000D01*
X133895000Y-103720000D01*
X133870496Y-103718796D01*
X133846227Y-103715196D01*
X133822429Y-103709235D01*
X133799329Y-103700970D01*
X133777151Y-103690480D01*
X133756107Y-103677867D01*
X133736402Y-103663253D01*
X133718223Y-103646777D01*
X133701747Y-103628598D01*
X133687133Y-103608893D01*
X133674520Y-103587849D01*
X133664030Y-103565671D01*
X133655765Y-103542571D01*
X133649804Y-103518773D01*
X133646204Y-103494504D01*
X133645000Y-103470000D01*
X133645000Y-102270000D01*
X133646204Y-102245496D01*
X133649804Y-102221227D01*
X133655765Y-102197429D01*
X133664030Y-102174329D01*
X133674520Y-102152151D01*
X133687133Y-102131107D01*
X133701747Y-102111402D01*
X133718223Y-102093223D01*
X133736402Y-102076747D01*
X133756107Y-102062133D01*
X133777151Y-102049520D01*
X133799329Y-102039030D01*
X133822429Y-102030765D01*
X133846227Y-102024804D01*
X133870496Y-102021204D01*
X133895000Y-102020000D01*
X135345000Y-102020000D01*
X135369504Y-102021204D01*
X135369504Y-102021204D01*
G37*
D16*
X134620000Y-102870000D03*
D19*
X134620000Y-100370000D03*
X134620000Y-97870000D03*
X134620000Y-95370000D03*
X66040000Y-102750000D03*
X66040000Y-100250000D03*
X66040000Y-97750000D03*
D15*
G36*
X66789504Y-94401204D02*
G01*
X66813773Y-94404804D01*
X66837571Y-94410765D01*
X66860671Y-94419030D01*
X66882849Y-94429520D01*
X66903893Y-94442133D01*
X66923598Y-94456747D01*
X66941777Y-94473223D01*
X66958253Y-94491402D01*
X66972867Y-94511107D01*
X66985480Y-94532151D01*
X66995970Y-94554329D01*
X67004235Y-94577429D01*
X67010196Y-94601227D01*
X67013796Y-94625496D01*
X67015000Y-94650000D01*
X67015000Y-95850000D01*
X67013796Y-95874504D01*
X67010196Y-95898773D01*
X67004235Y-95922571D01*
X66995970Y-95945671D01*
X66985480Y-95967849D01*
X66972867Y-95988893D01*
X66958253Y-96008598D01*
X66941777Y-96026777D01*
X66923598Y-96043253D01*
X66903893Y-96057867D01*
X66882849Y-96070480D01*
X66860671Y-96080970D01*
X66837571Y-96089235D01*
X66813773Y-96095196D01*
X66789504Y-96098796D01*
X66765000Y-96100000D01*
X65315000Y-96100000D01*
X65290496Y-96098796D01*
X65266227Y-96095196D01*
X65242429Y-96089235D01*
X65219329Y-96080970D01*
X65197151Y-96070480D01*
X65176107Y-96057867D01*
X65156402Y-96043253D01*
X65138223Y-96026777D01*
X65121747Y-96008598D01*
X65107133Y-95988893D01*
X65094520Y-95967849D01*
X65084030Y-95945671D01*
X65075765Y-95922571D01*
X65069804Y-95898773D01*
X65066204Y-95874504D01*
X65065000Y-95850000D01*
X65065000Y-94650000D01*
X65066204Y-94625496D01*
X65069804Y-94601227D01*
X65075765Y-94577429D01*
X65084030Y-94554329D01*
X65094520Y-94532151D01*
X65107133Y-94511107D01*
X65121747Y-94491402D01*
X65138223Y-94473223D01*
X65156402Y-94456747D01*
X65176107Y-94442133D01*
X65197151Y-94429520D01*
X65219329Y-94419030D01*
X65242429Y-94410765D01*
X65266227Y-94404804D01*
X65290496Y-94401204D01*
X65315000Y-94400000D01*
X66765000Y-94400000D01*
X66789504Y-94401204D01*
X66789504Y-94401204D01*
G37*
D16*
X66040000Y-95250000D03*
D14*
X92710000Y-34290000D03*
D15*
G36*
X95834504Y-33291204D02*
G01*
X95858773Y-33294804D01*
X95882571Y-33300765D01*
X95905671Y-33309030D01*
X95927849Y-33319520D01*
X95948893Y-33332133D01*
X95968598Y-33346747D01*
X95986777Y-33363223D01*
X96003253Y-33381402D01*
X96017867Y-33401107D01*
X96030480Y-33422151D01*
X96040970Y-33444329D01*
X96049235Y-33467429D01*
X96055196Y-33491227D01*
X96058796Y-33515496D01*
X96060000Y-33540000D01*
X96060000Y-35040000D01*
X96058796Y-35064504D01*
X96055196Y-35088773D01*
X96049235Y-35112571D01*
X96040970Y-35135671D01*
X96030480Y-35157849D01*
X96017867Y-35178893D01*
X96003253Y-35198598D01*
X95986777Y-35216777D01*
X95968598Y-35233253D01*
X95948893Y-35247867D01*
X95927849Y-35260480D01*
X95905671Y-35270970D01*
X95882571Y-35279235D01*
X95858773Y-35285196D01*
X95834504Y-35288796D01*
X95810000Y-35290000D01*
X94610000Y-35290000D01*
X94585496Y-35288796D01*
X94561227Y-35285196D01*
X94537429Y-35279235D01*
X94514329Y-35270970D01*
X94492151Y-35260480D01*
X94471107Y-35247867D01*
X94451402Y-35233253D01*
X94433223Y-35216777D01*
X94416747Y-35198598D01*
X94402133Y-35178893D01*
X94389520Y-35157849D01*
X94379030Y-35135671D01*
X94370765Y-35112571D01*
X94364804Y-35088773D01*
X94361204Y-35064504D01*
X94360000Y-35040000D01*
X94360000Y-33540000D01*
X94361204Y-33515496D01*
X94364804Y-33491227D01*
X94370765Y-33467429D01*
X94379030Y-33444329D01*
X94389520Y-33422151D01*
X94402133Y-33401107D01*
X94416747Y-33381402D01*
X94433223Y-33363223D01*
X94451402Y-33346747D01*
X94471107Y-33332133D01*
X94492151Y-33319520D01*
X94514329Y-33309030D01*
X94537429Y-33300765D01*
X94561227Y-33294804D01*
X94585496Y-33291204D01*
X94610000Y-33290000D01*
X95810000Y-33290000D01*
X95834504Y-33291204D01*
X95834504Y-33291204D01*
G37*
D16*
X95210000Y-34290000D03*
D19*
X134620000Y-83940000D03*
X134620000Y-86440000D03*
X134620000Y-88940000D03*
D15*
G36*
X135369504Y-90591204D02*
G01*
X135393773Y-90594804D01*
X135417571Y-90600765D01*
X135440671Y-90609030D01*
X135462849Y-90619520D01*
X135483893Y-90632133D01*
X135503598Y-90646747D01*
X135521777Y-90663223D01*
X135538253Y-90681402D01*
X135552867Y-90701107D01*
X135565480Y-90722151D01*
X135575970Y-90744329D01*
X135584235Y-90767429D01*
X135590196Y-90791227D01*
X135593796Y-90815496D01*
X135595000Y-90840000D01*
X135595000Y-92040000D01*
X135593796Y-92064504D01*
X135590196Y-92088773D01*
X135584235Y-92112571D01*
X135575970Y-92135671D01*
X135565480Y-92157849D01*
X135552867Y-92178893D01*
X135538253Y-92198598D01*
X135521777Y-92216777D01*
X135503598Y-92233253D01*
X135483893Y-92247867D01*
X135462849Y-92260480D01*
X135440671Y-92270970D01*
X135417571Y-92279235D01*
X135393773Y-92285196D01*
X135369504Y-92288796D01*
X135345000Y-92290000D01*
X133895000Y-92290000D01*
X133870496Y-92288796D01*
X133846227Y-92285196D01*
X133822429Y-92279235D01*
X133799329Y-92270970D01*
X133777151Y-92260480D01*
X133756107Y-92247867D01*
X133736402Y-92233253D01*
X133718223Y-92216777D01*
X133701747Y-92198598D01*
X133687133Y-92178893D01*
X133674520Y-92157849D01*
X133664030Y-92135671D01*
X133655765Y-92112571D01*
X133649804Y-92088773D01*
X133646204Y-92064504D01*
X133645000Y-92040000D01*
X133645000Y-90840000D01*
X133646204Y-90815496D01*
X133649804Y-90791227D01*
X133655765Y-90767429D01*
X133664030Y-90744329D01*
X133674520Y-90722151D01*
X133687133Y-90701107D01*
X133701747Y-90681402D01*
X133718223Y-90663223D01*
X133736402Y-90646747D01*
X133756107Y-90632133D01*
X133777151Y-90619520D01*
X133799329Y-90609030D01*
X133822429Y-90600765D01*
X133846227Y-90594804D01*
X133870496Y-90591204D01*
X133895000Y-90590000D01*
X135345000Y-90590000D01*
X135369504Y-90591204D01*
X135369504Y-90591204D01*
G37*
D16*
X134620000Y-91440000D03*
D19*
X66040000Y-91320000D03*
X66040000Y-88820000D03*
X66040000Y-86320000D03*
D15*
G36*
X66789504Y-82971204D02*
G01*
X66813773Y-82974804D01*
X66837571Y-82980765D01*
X66860671Y-82989030D01*
X66882849Y-82999520D01*
X66903893Y-83012133D01*
X66923598Y-83026747D01*
X66941777Y-83043223D01*
X66958253Y-83061402D01*
X66972867Y-83081107D01*
X66985480Y-83102151D01*
X66995970Y-83124329D01*
X67004235Y-83147429D01*
X67010196Y-83171227D01*
X67013796Y-83195496D01*
X67015000Y-83220000D01*
X67015000Y-84420000D01*
X67013796Y-84444504D01*
X67010196Y-84468773D01*
X67004235Y-84492571D01*
X66995970Y-84515671D01*
X66985480Y-84537849D01*
X66972867Y-84558893D01*
X66958253Y-84578598D01*
X66941777Y-84596777D01*
X66923598Y-84613253D01*
X66903893Y-84627867D01*
X66882849Y-84640480D01*
X66860671Y-84650970D01*
X66837571Y-84659235D01*
X66813773Y-84665196D01*
X66789504Y-84668796D01*
X66765000Y-84670000D01*
X65315000Y-84670000D01*
X65290496Y-84668796D01*
X65266227Y-84665196D01*
X65242429Y-84659235D01*
X65219329Y-84650970D01*
X65197151Y-84640480D01*
X65176107Y-84627867D01*
X65156402Y-84613253D01*
X65138223Y-84596777D01*
X65121747Y-84578598D01*
X65107133Y-84558893D01*
X65094520Y-84537849D01*
X65084030Y-84515671D01*
X65075765Y-84492571D01*
X65069804Y-84468773D01*
X65066204Y-84444504D01*
X65065000Y-84420000D01*
X65065000Y-83220000D01*
X65066204Y-83195496D01*
X65069804Y-83171227D01*
X65075765Y-83147429D01*
X65084030Y-83124329D01*
X65094520Y-83102151D01*
X65107133Y-83081107D01*
X65121747Y-83061402D01*
X65138223Y-83043223D01*
X65156402Y-83026747D01*
X65176107Y-83012133D01*
X65197151Y-82999520D01*
X65219329Y-82989030D01*
X65242429Y-82980765D01*
X65266227Y-82974804D01*
X65290496Y-82971204D01*
X65315000Y-82970000D01*
X66765000Y-82970000D01*
X66789504Y-82971204D01*
X66789504Y-82971204D01*
G37*
D16*
X66040000Y-83820000D03*
D19*
X66040000Y-79890000D03*
X66040000Y-77390000D03*
X66040000Y-74890000D03*
D15*
G36*
X66789504Y-71541204D02*
G01*
X66813773Y-71544804D01*
X66837571Y-71550765D01*
X66860671Y-71559030D01*
X66882849Y-71569520D01*
X66903893Y-71582133D01*
X66923598Y-71596747D01*
X66941777Y-71613223D01*
X66958253Y-71631402D01*
X66972867Y-71651107D01*
X66985480Y-71672151D01*
X66995970Y-71694329D01*
X67004235Y-71717429D01*
X67010196Y-71741227D01*
X67013796Y-71765496D01*
X67015000Y-71790000D01*
X67015000Y-72990000D01*
X67013796Y-73014504D01*
X67010196Y-73038773D01*
X67004235Y-73062571D01*
X66995970Y-73085671D01*
X66985480Y-73107849D01*
X66972867Y-73128893D01*
X66958253Y-73148598D01*
X66941777Y-73166777D01*
X66923598Y-73183253D01*
X66903893Y-73197867D01*
X66882849Y-73210480D01*
X66860671Y-73220970D01*
X66837571Y-73229235D01*
X66813773Y-73235196D01*
X66789504Y-73238796D01*
X66765000Y-73240000D01*
X65315000Y-73240000D01*
X65290496Y-73238796D01*
X65266227Y-73235196D01*
X65242429Y-73229235D01*
X65219329Y-73220970D01*
X65197151Y-73210480D01*
X65176107Y-73197867D01*
X65156402Y-73183253D01*
X65138223Y-73166777D01*
X65121747Y-73148598D01*
X65107133Y-73128893D01*
X65094520Y-73107849D01*
X65084030Y-73085671D01*
X65075765Y-73062571D01*
X65069804Y-73038773D01*
X65066204Y-73014504D01*
X65065000Y-72990000D01*
X65065000Y-71790000D01*
X65066204Y-71765496D01*
X65069804Y-71741227D01*
X65075765Y-71717429D01*
X65084030Y-71694329D01*
X65094520Y-71672151D01*
X65107133Y-71651107D01*
X65121747Y-71631402D01*
X65138223Y-71613223D01*
X65156402Y-71596747D01*
X65176107Y-71582133D01*
X65197151Y-71569520D01*
X65219329Y-71559030D01*
X65242429Y-71550765D01*
X65266227Y-71544804D01*
X65290496Y-71541204D01*
X65315000Y-71540000D01*
X66765000Y-71540000D01*
X66789504Y-71541204D01*
X66789504Y-71541204D01*
G37*
D16*
X66040000Y-72390000D03*
D19*
X66040000Y-68460000D03*
X66040000Y-65960000D03*
X66040000Y-63460000D03*
D15*
G36*
X66789504Y-60111204D02*
G01*
X66813773Y-60114804D01*
X66837571Y-60120765D01*
X66860671Y-60129030D01*
X66882849Y-60139520D01*
X66903893Y-60152133D01*
X66923598Y-60166747D01*
X66941777Y-60183223D01*
X66958253Y-60201402D01*
X66972867Y-60221107D01*
X66985480Y-60242151D01*
X66995970Y-60264329D01*
X67004235Y-60287429D01*
X67010196Y-60311227D01*
X67013796Y-60335496D01*
X67015000Y-60360000D01*
X67015000Y-61560000D01*
X67013796Y-61584504D01*
X67010196Y-61608773D01*
X67004235Y-61632571D01*
X66995970Y-61655671D01*
X66985480Y-61677849D01*
X66972867Y-61698893D01*
X66958253Y-61718598D01*
X66941777Y-61736777D01*
X66923598Y-61753253D01*
X66903893Y-61767867D01*
X66882849Y-61780480D01*
X66860671Y-61790970D01*
X66837571Y-61799235D01*
X66813773Y-61805196D01*
X66789504Y-61808796D01*
X66765000Y-61810000D01*
X65315000Y-61810000D01*
X65290496Y-61808796D01*
X65266227Y-61805196D01*
X65242429Y-61799235D01*
X65219329Y-61790970D01*
X65197151Y-61780480D01*
X65176107Y-61767867D01*
X65156402Y-61753253D01*
X65138223Y-61736777D01*
X65121747Y-61718598D01*
X65107133Y-61698893D01*
X65094520Y-61677849D01*
X65084030Y-61655671D01*
X65075765Y-61632571D01*
X65069804Y-61608773D01*
X65066204Y-61584504D01*
X65065000Y-61560000D01*
X65065000Y-60360000D01*
X65066204Y-60335496D01*
X65069804Y-60311227D01*
X65075765Y-60287429D01*
X65084030Y-60264329D01*
X65094520Y-60242151D01*
X65107133Y-60221107D01*
X65121747Y-60201402D01*
X65138223Y-60183223D01*
X65156402Y-60166747D01*
X65176107Y-60152133D01*
X65197151Y-60139520D01*
X65219329Y-60129030D01*
X65242429Y-60120765D01*
X65266227Y-60114804D01*
X65290496Y-60111204D01*
X65315000Y-60110000D01*
X66765000Y-60110000D01*
X66789504Y-60111204D01*
X66789504Y-60111204D01*
G37*
D16*
X66040000Y-60960000D03*
D20*
X76930000Y-93980000D03*
D21*
X74930000Y-93980000D03*
D20*
X114300000Y-90900000D03*
D21*
X114300000Y-88900000D03*
D20*
X94520000Y-45466000D03*
D21*
X96520000Y-45466000D03*
D20*
X78740000Y-38830000D03*
D21*
X78740000Y-36830000D03*
D22*
X107950000Y-53340000D03*
X92710000Y-101600000D03*
X107950000Y-55880000D03*
X92710000Y-99060000D03*
X107950000Y-58420000D03*
X92710000Y-96520000D03*
X107950000Y-60960000D03*
X92710000Y-93980000D03*
X107950000Y-63500000D03*
X92710000Y-91440000D03*
X107950000Y-66040000D03*
X92710000Y-88900000D03*
X107950000Y-68580000D03*
X92710000Y-86360000D03*
X107950000Y-71120000D03*
X92710000Y-83820000D03*
X107950000Y-73660000D03*
X92710000Y-81280000D03*
X107950000Y-76200000D03*
X92710000Y-78740000D03*
X107950000Y-78740000D03*
X92710000Y-76200000D03*
X107950000Y-81280000D03*
X92710000Y-73660000D03*
X107950000Y-83820000D03*
X92710000Y-71120000D03*
X107950000Y-86360000D03*
X92710000Y-68580000D03*
X107950000Y-88900000D03*
X92710000Y-66040000D03*
X107950000Y-91440000D03*
X92710000Y-63500000D03*
X107950000Y-93980000D03*
X92710000Y-60960000D03*
X107950000Y-96520000D03*
X92710000Y-58420000D03*
X107950000Y-99060000D03*
X92710000Y-55880000D03*
X107950000Y-101600000D03*
D23*
X92710000Y-53340000D03*
D24*
X99915000Y-38310000D03*
X100565000Y-38310000D03*
X101215000Y-38310000D03*
X101865000Y-38310000D03*
X102515000Y-38310000D03*
X103165000Y-38310000D03*
X103815000Y-38310000D03*
X104465000Y-38310000D03*
X105115000Y-38310000D03*
X105765000Y-38310000D03*
X106415000Y-38310000D03*
X107065000Y-38310000D03*
X107715000Y-38310000D03*
X108365000Y-38310000D03*
X108365000Y-45510000D03*
X107715000Y-45510000D03*
X107065000Y-45510000D03*
X106415000Y-45510000D03*
X105765000Y-45510000D03*
X105115000Y-45510000D03*
X104465000Y-45510000D03*
X103815000Y-45510000D03*
X103165000Y-45510000D03*
X102515000Y-45510000D03*
X101865000Y-45510000D03*
X101215000Y-45510000D03*
X100565000Y-45510000D03*
X99915000Y-45510000D03*
D13*
X120650000Y-60960000D03*
D12*
X130810000Y-60960000D03*
D13*
X120650000Y-63500000D03*
D12*
X130810000Y-63500000D03*
D13*
X120650000Y-66040000D03*
D12*
X130810000Y-66040000D03*
D13*
X120650000Y-68580000D03*
D12*
X130810000Y-68580000D03*
D13*
X120650000Y-72390000D03*
D12*
X130810000Y-72390000D03*
D13*
X120650000Y-74930000D03*
D12*
X130810000Y-74930000D03*
D13*
X120650000Y-77470000D03*
D12*
X130810000Y-77470000D03*
D13*
X120650000Y-80010000D03*
D12*
X130810000Y-80010000D03*
D13*
X110490000Y-45720000D03*
D12*
X120650000Y-45720000D03*
D13*
X80010000Y-54610000D03*
D12*
X80010000Y-44450000D03*
D13*
X114300000Y-44450000D03*
D12*
X114300000Y-34290000D03*
D13*
X83820000Y-54610000D03*
D12*
X83820000Y-44450000D03*
D13*
X80010000Y-80010000D03*
D12*
X69850000Y-80010000D03*
D13*
X80010000Y-77470000D03*
D12*
X69850000Y-77470000D03*
D13*
X80010000Y-74930000D03*
D12*
X69850000Y-74930000D03*
D13*
X80010000Y-72390000D03*
D12*
X69850000Y-72390000D03*
D13*
X80010000Y-68580000D03*
D12*
X69850000Y-68580000D03*
X69850000Y-66040000D03*
D13*
X80010000Y-66040000D03*
X80010000Y-63500000D03*
D12*
X69850000Y-63500000D03*
D13*
X80010000Y-60960000D03*
D12*
X69850000Y-60960000D03*
D25*
X115570000Y-51942000D03*
X114620000Y-48642000D03*
X116520000Y-48642000D03*
D26*
X120855000Y-37465000D03*
X128005000Y-37465000D03*
D27*
X123130000Y-43180000D03*
X123780000Y-42180000D03*
X124430000Y-43180000D03*
X125080000Y-42180000D03*
D28*
X125730000Y-43180000D03*
D20*
X125095000Y-49625000D03*
D21*
X125095000Y-47625000D03*
D20*
X113570000Y-80010000D03*
D21*
X115570000Y-80010000D03*
D20*
X87630000Y-80740000D03*
D21*
X87630000Y-78740000D03*
D20*
X120650000Y-57245000D03*
D21*
X120650000Y-55245000D03*
D20*
X120650000Y-50070000D03*
D21*
X120650000Y-52070000D03*
D20*
X108680000Y-34290000D03*
D21*
X106680000Y-34290000D03*
M02*
